<?xml version="1.0" encoding="UTF-8" standalone="no"?>
<!DOCTYPE svg PUBLIC "-//W3C//DTD SVG 1.1//EN" "http://www.w3.org/Graphics/SVG/1.1/DTD/svg11.dtd">
<svg>
<metadata>
Created by FontForge 20090914 at Fri Dec 30 17:23:32 2016
 By www-data
Developer: Tanbin Islam Siyam
Developed under 'Avro Font Development Project'.
http://www.omicronlab.com

This Font Software is licensed under the SIL Open Font License, Version 1.0. No modification of the license is permitted, only verbatim copy is allowed. This license is copied below, and is also available with a FAQ at: http://scripts.sil.org/OFL
Latin typefaces are from Gentium (http://scripts.sil.org/cms/scripts/page.php?item_id=Gentium). Gentium is a trademark of SIL International.
</metadata>
<defs>
<font id="Kalpurush" horiz-adv-x="469">
  <font-face font-family="Kalpurush" font-weight="400" font-stretch="normal" units-per-em="1000" panose-1="2 0 6 0 0 0 0 0 0 0" ascent="800" descent="-200" x-height="454" cap-height="615.001" bbox="-554.998 -402 1118 1033" underline-thickness="20" underline-position="-297" unicode-range="U+0020-U+25CC"/>
<missing-glyph horiz-adv-x="672" d="M102 678h465v-678h-465v678zM507 60v558h-344v-558h344z"/>
    <glyph glyph-name=".notdef" horiz-adv-x="672" d="M102 678h465v-678h-465v678zM507 60v558h-344v-558h344z"/>
    <glyph glyph-name="space" unicode=" " horiz-adv-x="364"/>
    <glyph glyph-name="exclam" unicode="!" horiz-adv-x="272" d="M154 190c-6 -4.66699 -9.83301 -8.33203 -11.5 -10.999s-6.5 -5.33398 -14.5 -8.00098l-14 10l-28 436c12.667 8 25.667 15.333 39 22l37 18l21 -13zM191 60.002c0 -22.667 -6.33301 -41.667 -19 -57s-28.667 -23 -48 -23c-32.667 0 -49 18.333 -49 55 c0 22 6.66699 40.833 20 56.5s29.333 23.5 48 23.5c32 0 48 -18.333 48 -55z"/>
    <glyph glyph-name="quotedbl" unicode="&quot;" horiz-adv-x="425" d="M326 407c-5.33301 -2.66699 -12.6699 -5 -22.0029 -7s-17.666 -3 -24.999 -3l-26 299c3.33301 2 8.33301 4.5 15 7.5s13.834 5.83301 21.501 8.5s14.834 5 21.501 7s11.667 3.33301 15 4l21 -11zM150.996 407c-5.33301 -2.66699 -12.668 -5 -22.001 -7 s-17.666 -3 -24.999 -3l-26 299c4 2 9.33301 4.5 16 7.5s13.667 5.83301 21 8.5s14.333 5 21 7s11.667 3.33301 15 4l21 -11z"/>
    <glyph glyph-name="numbersign" unicode="#" d="M479 457c-1.33301 -7.33301 -3.5 -15.168 -6.5 -23.501s-5.83301 -15.166 -8.5 -20.499h-358l-12 12c1.33301 7.33301 3.5 14.833 6.5 22.5l8.5 21.5h358zM283 82.998c-6 -4.66699 -12.8311 -8.49805 -20.498 -11.498l-24.5 -9.5l-12 10l153 539 c7.33301 5.33301 14.666 9.16602 21.999 11.499s14.666 5.16602 21.999 8.49902l14 -11zM136.002 83c-5.33301 -4.66699 -11.833 -8.49805 -19.5 -11.498l-24.5 -9.5l-12 10l153 539c7.33301 5.33301 14.5 9.16602 21.5 11.499s14.167 5.16602 21.5 8.49902l15 -11z M426.002 275.002c-1.33301 -6.66699 -3.33301 -14.168 -6 -22.501s-5 -15.166 -7 -20.499h-360l-11 12c1.33301 6.66699 3.33301 14 6 22s5.66699 15.333 9 22h359z"/>
    <glyph glyph-name="dollar" unicode="$" d="M255 -70c-6 -5.33301 -10.666 -8.66797 -13.999 -10.001s-9 -3 -17 -5l-13 11v736c4.66699 2.66699 8 4.66699 10 6s3.66699 2.33301 5 3s3.16602 1.33398 5.49902 2.00098l10.5 3l13 -11v-735zM421.001 183.998c0 -22 -4.16406 -44.167 -12.4971 -66.5 s-21.5 -42.5 -39.5 -60.5s-40.833 -32.833 -68.5 -44.5s-60.834 -17.5 -99.501 -17.5c-22.667 0 -46 4 -70 12s-51 21.333 -81 40c-2 1.33301 -3.66699 6.66602 -5 15.999s-2 20.166 -2 32.499s0.5 24.833 1.5 37.5s2.83301 23.667 5.5 33l21 -2 c18 -38.667 41.667 -66.667 71 -84s61.666 -26 96.999 -26c14.667 0 28.834 2.5 42.501 7.5s26 12 37 21s19.833 20 26.5 33s10 27.167 10 42.5c0 26.667 -7.5 48.167 -22.5 64.5s-34 30 -57 41s-47.667 20.833 -74 29.5s-51 19.167 -74 31.5s-42 27.833 -57 46.5 s-22.5 43.334 -22.5 74.001c0 15.333 3.33301 31.666 10 48.999s17.834 33.333 33.501 48s36.334 26.834 62.001 36.501s57.834 14.5 96.501 14.5c31.333 0 60.166 -4 86.499 -12s46.166 -18.667 59.499 -32c2 -2 1.83301 -6.16699 -0.5 -12.5s-5.83301 -13 -10.5 -20 s-9.83398 -13.833 -15.501 -20.5s-10.5 -12 -14.5 -16l-19 4c-18.667 21.333 -37.834 36.833 -57.501 46.5s-39.167 14.5 -58.5 14.5c-20.667 0 -38 -2.33301 -52 -7s-25.333 -10.667 -34 -18s-14.834 -15.5 -18.501 -24.5s-5.5 -18.167 -5.5 -27.5 c0 -21.333 7.66699 -38.666 23 -51.999s34.5 -25 57.5 -35s48 -19.667 75 -29s52 -21 75 -35s42.167 -31.5 57.5 -52.5s23 -47.833 23 -80.5z"/>
    <glyph glyph-name="percent" unicode="%" horiz-adv-x="690" d="M653 151c0 -22.667 -3.83203 -44 -11.499 -64s-18.167 -37.5 -31.5 -52.5s-28.666 -27 -45.999 -36s-35.333 -13.5 -54 -13.5c-19.333 0 -36.833 4.5 -52.5 13.5s-29.334 21 -41.001 36s-20.667 32.5 -27 52.5s-9.5 41.333 -9.5 64s4 43.834 12 63.501s18.5 37 31.5 52 s28.167 26.833 45.5 35.5s35.333 13 54 13c19.333 0 37 -4.33301 53 -13s29.667 -20.334 41 -35.001s20.166 -32 26.499 -52s9.5 -41.333 9.5 -64zM175.001 8c-3.33301 -2 -7.83398 -4.16797 -13.501 -6.50098s-11.667 -4.66602 -18 -6.99902s-12.666 -4.5 -18.999 -6.5 l-15.5 -5l-12 17l418 580c9.33301 5.33301 20 10 32 14s23 7.33301 33 10l14 -16zM311 437.999c0 -22.667 -3.83398 -44 -11.501 -64s-18.167 -37.5 -31.5 -52.5s-28.666 -27 -45.999 -36s-35.666 -13.5 -54.999 -13.5s-36.833 4.5 -52.5 13.5s-29.334 21 -41.001 36 s-20.667 32.5 -27 52.5s-9.5 41.333 -9.5 64s4 44 12 64s18.5 37.5 31.5 52.5s28.167 26.833 45.5 35.5s35.333 13 54 13c19.333 0 37 -4.33301 53 -13s29.833 -20.5 41.5 -35.5s20.667 -32.5 27 -52.5s9.5 -41.333 9.5 -64zM582.999 140.999 c0 46 -7.33203 80.001 -21.999 102.001s-31.667 33 -51 33c-14.667 0 -28.167 -9.33301 -40.5 -28s-18.5 -47.334 -18.5 -86.001c0 -47.333 6.66699 -82 20 -104s30.666 -33 51.999 -33c16 0 30 9.83301 42 29.5s18 48.5 18 86.5zM240 428 c0 46.667 -7.33203 80.834 -21.999 102.501s-31.667 32.5 -51 32.5c-14.667 0 -28.167 -9.33301 -40.5 -28s-18.5 -47.334 -18.5 -86.001c0 -47.333 6.66699 -82 20 -104s30.666 -33 51.999 -33c16 0 30 9.83301 42 29.5s18 48.5 18 86.5z"/>
    <glyph glyph-name="ampersand" unicode="&amp;" horiz-adv-x="667" d="M657 365c-8 -10 -16.0117 -18.3389 -24.0117 -25.0059s-16 -12.667 -24 -18c-12 5.33301 -26.167 9.83301 -42.5 13.5s-30.166 5.83398 -41.499 6.50098c7.33301 -11.333 11.833 -22.166 13.5 -32.499s2.5 -25.166 2.5 -44.499c0 -28 -7.66699 -58.333 -23 -91 s-36.5 -63 -63.5 -91s-58.667 -51.333 -95 -70s-75.166 -28 -116.499 -28c-30 0 -57.5 4 -82.5 12s-46.5 19.833 -64.5 35.5s-32 35.167 -42 58.5s-15 50.333 -15 81c0 44 18.333 88.667 55 134s89.334 87.333 158.001 126c20.667 11.333 37.834 23 51.501 35 s24.334 24 32.001 36s13 23.833 16 35.5s4.5 22.834 4.5 33.501c0 22.667 -5.66699 42.334 -17 59.001s-28.666 25 -51.999 25c-12 0 -22.333 -3 -31 -9s-15.834 -14 -21.501 -24s-10 -21.167 -13 -33.5s-4.5 -24.833 -4.5 -37.5c0 -26 5.33301 -54 16 -84 s24.834 -60.5 42.501 -91.5s37.834 -61.833 60.501 -92.5s46.167 -59.667 70.5 -87s48.5 -52.666 72.5 -75.999s46 -43 66 -59c12.667 -10.667 26 -17.667 40 -21s30.667 -2.66602 50 2.00098l4 -21c-28 -12.667 -51.667 -22 -71 -28s-32.666 -9 -39.999 -9 c-8 0 -22.667 8.16699 -44 24.5s-45.833 38.333 -73.5 66s-56.5 59.667 -86.5 96s-57.5 74.333 -82.5 114s-45.667 80 -62 121s-24.5 80.167 -24.5 117.5c0 26 4.33301 50.333 13 73s20.334 42.167 35.001 58.5s31.5 29.166 50.5 38.499s38.833 14 59.5 14 s38.167 -3.33301 52.5 -10s25.833 -15.5 34.5 -26.5s14.834 -23.667 18.501 -38s5.5 -29.5 5.5 -45.5c0 -34 -10.667 -66 -32 -96s-51.333 -57 -90 -81c-35.333 -22 -64.833 -42.833 -88.5 -62.5s-42.5 -38.667 -56.5 -57s-24 -36.5 -30 -54.5s-9 -36.333 -9 -55 c0 -22.667 3.83301 -42.834 11.5 -60.501s18 -32.5 31 -44.5s28 -21 45 -27s34.5 -9 52.5 -9c34.667 0 65.834 6.83301 93.501 20.5s51.167 30.667 70.5 51s34.166 42.333 44.499 66s15.5 45.834 15.5 66.501c0 14 -2.33301 27 -7 39s-10.667 22.5 -18 31.5 s-15.666 16 -24.999 21s-18.666 7.5 -27.999 7.5l-11 14c3.33301 4 8.5 8.5 15.5 13.5s13.833 8.83301 20.5 11.5h217l11 -18v0z"/>
    <glyph glyph-name="quotesingle" unicode="'" horiz-adv-x="250" d="M151 407c-5.33301 -2.66699 -12.668 -5 -22.001 -7s-17.666 -3 -24.999 -3l-26 299c4 2 9.33301 4.5 16 7.5s13.667 5.83301 21 8.5s14.333 5 21 7s11.667 3.33301 15 4l21 -11z"/>
    <glyph glyph-name="parenleft" unicode="(" horiz-adv-x="317" d="M282 -154c-36.667 16.667 -68.999 40.333 -96.999 71s-51.333 66 -70 106s-32.667 83.833 -42 131.5s-14 97.5 -14 149.5c0 53.333 5.33301 105 16 155s25.667 95.833 45 137.5s42.833 78.5 70.5 110.5s58.167 56.667 91.5 74l16 -22 c-21.333 -18 -41.5 -41.167 -60.5 -69.5s-35.5 -61.333 -49.5 -99s-25.167 -79.5 -33.5 -125.5s-12.5 -95 -12.5 -147c0 -47.333 3.5 -93.666 10.5 -138.999s17 -87.5 30 -126.5s29.167 -74.333 48.5 -106s41.666 -57.834 66.999 -78.501z"/>
    <glyph glyph-name="parenright" unicode=")" horiz-adv-x="317" d="M259 324c0 -53.333 -5.33008 -105.001 -15.9971 -155.001s-25.834 -96 -45.501 -138s-43.334 -79 -71.001 -111s-58.167 -56.667 -91.5 -74l-15 22c20.667 18 40.5 41.333 59.5 70s35.667 61.834 50 99.501s25.666 79.5 33.999 125.5s12.5 95 12.5 147 c0 47.333 -3.5 93.5 -10.5 138.5s-17 87.167 -30 126.5s-29.333 74.833 -49 106.5s-41.834 57.5 -66.501 77.5l15 22c36.667 -16.667 69 -40.167 97 -70.5s51.333 -65.5 70 -105.5s32.834 -83.833 42.501 -131.5s14.5 -97.5 14.5 -149.5z"/>
    <glyph glyph-name="asterisk" unicode="*" horiz-adv-x="447" d="M171 518c-2.66699 1.33301 -4.33398 1.66797 -5.00098 1.00098s-1.16699 -1.33398 -1.5 -2.00098s-0.666016 -1 -0.999023 -1s-1.5 1.66699 -3.5 5l206 155l24.5 -16c9 -6 16.167 -11.667 21.5 -17l1 -20zM228 490.002 c-2.66699 -1.33301 -3.83398 -2.49805 -3.50098 -3.49805s0.833008 -1.83301 1.5 -2.5s0.833984 -1.16699 0.500977 -1.5s-2.5 -0.5 -6.5 -0.5l-31 257c7.33301 3.33301 16 7.66602 26 12.999s18.667 8.66602 26 9.99902l18 -10zM401 491.004 c-0.666992 -8 -1.16699 -17.499 -1.5 -28.499s-1.83301 -20.167 -4.5 -27.5l-18 -11l-210 158c0 2.66699 -0.5 4.16699 -1.5 4.5s-2 0.5 -3 0.5s-1.5 0.166992 -1.5 0.5s1 2.16602 3 5.49902zM46 616.005c0.666992 8 1.16699 17.666 1.5 28.999s1.83301 20.333 4.5 27l17 11 l212 -157c0 -3.33301 0.333008 -5 1 -5h2.5c1 0 1.5 -0.166992 1.5 -0.5s-1 -2.16602 -3 -5.49902zM258 369.004l-25.502 -13.5c-9.66699 -5 -18.167 -8.16699 -25.5 -9.5l-19 9l31 262c2.66699 1.33301 3.83398 2.5 3.50098 3.5s-0.666016 1.83301 -0.999023 2.5 s-0.333008 1.16699 0 1.5s2.5 0.5 6.5 0.5zM80.998 431.004l-25 15.998c-9.33301 6 -16.333 11.667 -21 17l-1 21l242 104c2.66699 -1.33301 4.33398 -1.66602 5.00098 -0.999023s1.16699 1.33398 1.5 2.00098s0.666016 1 0.999023 1s1.5 -1.66699 3.5 -5z"/>
    <glyph glyph-name="plus" unicode="+" horiz-adv-x="410" d="M380 290c-1.33301 -6.66699 -3.5 -14.168 -6.5 -22.501s-5.83301 -15.166 -8.5 -20.499h-323l-12 12c3.33301 14 8.33301 28.333 15 43h323zM233 114.999c-6.66699 -3.33301 -13.833 -6.33301 -21.5 -9s-15.167 -4.66699 -22.5 -6l-12 11v324c6 2 13 4.5 21 7.5 s15.667 5.16699 23 6.5l12 -11v-323z"/>
    <glyph glyph-name="comma" unicode="," horiz-adv-x="229" d="M191 34c0 -12.667 -2.49902 -26.999 -7.49902 -42.999s-12.333 -32.167 -22 -48.5s-21.334 -32.5 -35.001 -48.5s-28.834 -30.333 -45.501 -43l-22 17c18 21.333 30.833 41.666 38.5 60.999s11.5 43 11.5 71c0 14.667 -4.33301 26.167 -13 34.5s-23.667 11.833 -45 10.5 l-8 23c2.66699 4 8.66699 8.5 18 13.5s19.833 9.83301 31.5 14.5s22.834 8.5 33.501 11.5s19 4.5 25 4.5c15.333 -7.33301 25.833 -17.5 31.5 -30.5s8.5 -28.833 8.5 -47.5z"/>
    <glyph glyph-name="hyphen" unicode="-" horiz-adv-x="337" d="M307 266c-2 -7.33301 -4.33203 -15.1689 -6.99902 -23.502s-5.33398 -15.166 -8.00098 -20.499h-250l-12 12c1.33301 7.33301 3.33301 14.833 6 22.5s5.66699 14.834 9 21.501h250l12 -12v0z"/>
    <glyph glyph-name="period" unicode="." horiz-adv-x="229" d="M180 60c0 -22.667 -6.33301 -41.667 -19 -57s-28.667 -23 -48 -23c-17.333 0 -29.833 4.83301 -37.5 14.5s-11.5 23.167 -11.5 40.5c0 22 6.66699 40.833 20 56.5s29.333 23.5 48 23.5c32 0 48 -18.333 48 -55z"/>
    <glyph glyph-name="slash" unicode="/" d="M103 -139c-6.66699 -4 -16.5 -8.50098 -29.5 -13.501s-23.5 -8.83301 -31.5 -11.5l-18 13l342 908c9.33301 6 19.333 10.833 30 14.5s20.667 6.83398 30 9.50098l18 -10z"/>
    <glyph glyph-name="zero" unicode="0" d="M432 294c0 -42 -5.00098 -81.665 -15.001 -118.998s-24 -70.166 -42 -98.499s-39.833 -50.666 -65.5 -66.999s-53.834 -24.5 -84.501 -24.5c-31.333 0 -58.666 8.16699 -81.999 24.5s-42.833 38.666 -58.5 66.999s-27.5 61.166 -35.5 98.499s-12 77 -12 119 s5 81.667 15 119s24.167 70.166 42.5 98.499s40.166 50.666 65.499 66.999s53.333 24.5 84 24.5s57.834 -8.16699 81.501 -24.5s43.334 -38.5 59.001 -66.5s27.5 -60.667 35.5 -98s12 -77.333 12 -120zM351.999 276.002c0 44.667 -3.50098 83.8301 -10.501 117.497 s-16.333 61.834 -28 84.501s-25.167 39.834 -40.5 51.501s-31.333 17.5 -48 17.5c-33.333 0 -59.666 -18.333 -78.999 -55s-29 -95.667 -29 -177c0 -90 12.167 -158 36.5 -204s54.5 -69 90.5 -69c34 0 60.5 18.333 79.5 55s28.5 96.334 28.5 179.001z"/>
    <glyph glyph-name="one" unicode="1" d="M83 0v25.999c25.333 2.66699 46.5 5.83398 63.5 9.50098s30.5 7.5 40.5 11.5s17.167 8 21.5 12s6.5 7.66699 6.5 11v389c0 13.333 -0.5 23.5 -1.5 30.5s-3.5 12.833 -7.5 17.5c-4 4 -15.667 6 -35 6s-50.333 -4.33301 -93 -13l-10 25c13.333 4 29.333 9.33301 48 16 s37.667 14 57 22s37.666 16 54.999 24s31.333 15 42 21l18 -17v-521c0 -3.33301 1.83301 -6.83301 5.5 -10.5s10 -7.5 19 -11.5s21.333 -8 37 -12s35.834 -7.33301 60.501 -10v-26h-327z"/>
    <glyph glyph-name="two" unicode="2" d="M401 0l-338.997 -0.00195312l-14 36l141.5 168c36.333 44.667 64.5 82.167 84.5 112.5s33.667 55.666 41 75.999s11 39.833 11 58.5c0 30 -7.5 55.167 -22.5 75.5s-40.167 30.5 -75.5 30.5c-13.333 0 -25.5 -3.16699 -36.5 -9.5s-20.5 -14.333 -28.5 -24 s-14.333 -20.5 -19 -32.5s-7 -23.667 -7 -35l-28.5 -15.5c-7.66699 -4.33301 -19.167 -7.16602 -34.5 -8.49902l-13 15c0 16.667 5.66699 34.167 17 52.5s26.5 35.166 45.5 50.499s40.333 28 64 38s48.167 15 73.5 15c20 0 38.5 -2.66699 55.5 -8s31.667 -13.666 44 -24.999 s22.166 -25.666 29.499 -42.999s11 -38 11 -62c0 -22 -4.66699 -44.5 -14 -67.5s-24.833 -49.667 -46.5 -80s-49.667 -66.333 -84 -108l-126.5 -150.5h204c11.333 0 20.166 4.33301 26.499 13s11.166 18.667 14.499 30c4 12.667 7 27.334 9 44.001l24 -6z"/>
    <glyph glyph-name="three" unicode="3" d="M403 186c0 -27.333 -4.33398 -53.1699 -13.001 -77.5029s-21.667 -45.666 -39 -63.999s-38.833 -32.833 -64.5 -43.5s-55.167 -16 -88.5 -16c-25.333 0 -51.666 5.16699 -78.999 15.5s-56 29.5 -86 57.5l17 33c14.667 -11.333 28 -20.5 40 -27.5s23.5 -12.667 34.5 -17 s22 -7.33301 33 -9s22.5 -2.5 34.5 -2.5c40 0 72.167 12 96.5 36s36.5 57 36.5 99c0 24.667 -3.83301 45.5 -11.5 62.5s-17.5 30.833 -29.5 41.5s-25.333 18.334 -40 23.001s-29.334 7 -44.001 7h-10c-2 0 -3.83301 -0.166992 -5.5 -0.5 s-3.83398 -0.666016 -6.50098 -0.999023s-6.33398 -0.833008 -11.001 -1.5l-7 29c30 8 54 17.5 72 28.5s31.833 22.167 41.5 33.5s16 22.833 19 34.5s4.5 22.5 4.5 32.5c0 11.333 -1.66699 22.833 -5 34.5s-8.66602 22.167 -15.999 31.5s-16.666 17 -27.999 23 s-24.666 9 -39.999 9c-26 0 -46.167 -8.16699 -60.5 -24.5s-19.5 -35.5 -15.5 -57.5c-11.333 -5.33301 -22 -9.5 -32 -12.5s-22 -5.16699 -36 -6.5l-13 15c0 14 5 28.667 15 44s23.5 29.5 40.5 42.5s36.667 23.833 59 32.5s45.833 13 70.5 13c24 0 44.833 -4 62.5 -12 s32 -18.333 43 -31s19.167 -27 24.5 -43s8 -32.333 8 -49c0 -24.667 -9.16699 -48.5 -27.5 -71.5s-43.5 -41.5 -75.5 -55.5c18.667 -2 36 -7.5 52 -16.5s30 -20.5 42 -34.5s21.333 -29.833 28 -47.5s10 -36.5 10 -56.5z"/>
    <glyph glyph-name="four" unicode="4" d="M427 210c-7.33301 -10.667 -13.833 -18.502 -19.5 -23.502s-12.167 -10.167 -19.5 -15.5h-34v-120c0 -5.33301 4.5 -10.166 13.5 -14.499s27.167 -9.5 54.5 -15.5v-21h-239v21c21.333 3.33301 38.666 6.5 51.999 9.5s23.833 6 31.5 9s12.834 5.83301 15.501 8.5 s4 5.33398 4 8.00098v115h-243l-16 16l242 386c13.333 6 25.5 12 36.5 18l30.5 17l18 -17v-366h60zM286 507.998l-182 -283h182v283z"/>
    <glyph glyph-name="five" unicode="5" d="M408 200c0 -28 -4.33203 -55.001 -12.999 -81.001s-21.167 -49 -37.5 -69s-36.5 -35.833 -60.5 -47.5s-51.333 -17.5 -82 -17.5c-30 0 -60 5.66699 -90 17s-59 30 -87 56l17 33c34.667 -24 63.5 -39.333 86.5 -46s43.833 -10 62.5 -10c21.333 0 39.833 4 55.5 12 s28.834 18.667 39.501 32s18.5 28.666 23.5 45.999s7.5 35.333 7.5 54c0 44.667 -10.667 80.5 -32 107.5s-55 40.5 -101 40.5c-14 0 -31 -3.16699 -51 -9.5s-38.667 -16.166 -56 -29.499l-23 16c2.66699 18 6.16699 39.667 10.5 65s8.5 51.333 12.5 78s7.5 52.5 10.5 77.5 s5.16699 46.167 6.5 63.5h213c9.33301 0 17.5 0.333008 24.5 1s13.167 1.66699 18.5 3c6 1.33301 11.333 3 16 5l14 -14c-7.33301 -10.667 -16.333 -21.667 -27 -33s-19.667 -19.666 -27 -24.999h-189c-0.666992 -9.33301 -1.83398 -21.5 -3.50098 -36.5 s-3.5 -30.167 -5.5 -45.5s-4.16699 -29.833 -6.5 -43.5l-5.5 -31.5c13.333 4 28.666 7.16699 45.999 9.5s34.333 3.5 51 3.5c29.333 0 55.333 -5 78 -15s41.667 -23.167 57 -39.5s27 -35.5 35 -57.5s12 -45 12 -69z"/>
    <glyph glyph-name="six" unicode="6" d="M430 201c0 -22.667 -3.83008 -46.668 -11.4971 -72.001s-19.334 -48.666 -35.001 -69.999s-34.834 -39 -57.501 -53s-49 -21 -79 -21c-26.667 0 -51.667 6 -75 18s-43.833 28.667 -61.5 50s-31.5 47.166 -41.5 77.499s-15 63.833 -15 100.5c0 46 6.66699 90 20 132 s33.5 80 60.5 114s61.333 62.667 103 86s90.834 39 147.501 47l9 -29c-44.667 -10 -83.334 -26 -116.001 -48s-59.834 -47.5 -81.501 -76.5s-37.834 -60.333 -48.501 -94s-16 -67.167 -16 -100.5c0 -77.333 12.167 -134.166 36.5 -170.499s56.833 -54.5 97.5 -54.5 c17.333 0 31.833 4.16699 43.5 12.5s21 18.833 28 31.5s12 26.834 15 42.501s4.5 31.167 4.5 46.5c0 30.667 -3.66699 55.834 -11 75.501s-16.5 35.167 -27.5 46.5s-23.167 19.166 -36.5 23.499s-26 6.5 -38 6.5c-19.333 0 -40.666 -6.16699 -63.999 -18.5 s-44.666 -33.5 -63.999 -63.5l-6 47c12.667 17.333 26.167 31.666 40.5 42.999s28.333 20.5 42 27.5s26.667 11.833 39 14.5s23.166 4 32.499 4c52.667 0 93.5 -15.667 122.5 -47s43.5 -74 43.5 -128z"/>
    <glyph glyph-name="seven" unicode="7" d="M432 570l-67.998 -159.999l-63.5 -154.5l-53 -134.5c-15.667 -40.667 -27.834 -74 -36.501 -100c-22 -15.333 -48.333 -27.333 -79 -36l-20 16c28 50 53.333 97.667 76 143s43.5 89.333 62.5 132l54.5 125.5l53 123.5h-222c-4.66699 0 -9.33398 -0.166992 -14.001 -0.5 s-9.5 -2.5 -14.5 -6.5s-10.333 -11 -16 -21s-11.834 -24.333 -18.501 -43l-22 9c0.666992 7.33301 1.83398 16.666 3.50098 27.999s3.5 23 5.5 35l6 34.5c2 11 4 20.167 6 27.5h344l16 -18v0z"/>
    <glyph glyph-name="eight" unicode="8" d="M422 172c0 -25.333 -5.3291 -49.334 -15.9961 -72.001s-25.167 -42.5 -43.5 -59.5s-39.666 -30.5 -63.999 -40.5s-50.5 -15 -78.5 -15s-52.667 4.33301 -74 13s-39.5 20 -54.5 34s-26.333 30.333 -34 49s-11.5 38 -11.5 58c0 36.667 12.167 70.167 36.5 100.5 s56.833 56.5 97.5 78.5l35 -18c-32 -23.333 -55.167 -46 -69.5 -68s-21.5 -48 -21.5 -78c0 -34 10.667 -62.5 32 -85.5s50.666 -34.5 87.999 -34.5c18 0 33.333 3.5 46 10.5s23.167 16 31.5 27s14.333 23.5 18 37.5s5.5 28 5.5 42c0 29.333 -6.83301 53 -20.5 71 s-30.5 33.167 -50.5 45.5s-42 23.166 -66 32.499s-46 20 -66 32s-36.833 26.833 -50.5 44.5s-20.5 41.167 -20.5 70.5c0 22.667 4.5 43.5 13.5 62.5s21.333 35.5 37 49.5s34 24.833 55 32.5s43.833 11.5 68.5 11.5c49.333 0 87.166 -12.167 113.499 -36.5 s39.5 -55.5 39.5 -93.5c0 -14.667 -2.83301 -28.667 -8.5 -42s-13.667 -26 -24 -38s-22.5 -23.667 -36.5 -35s-29.333 -22.333 -46 -33l-34 21c28 18.667 47.833 37.334 59.5 56.001s17.5 37.334 17.5 56.001c0 34 -9.66699 59 -29 75s-45 24 -77 24 c-14.667 0 -27.334 -2.83301 -38.001 -8.5s-19.5 -12.834 -26.5 -21.501s-12.333 -18.667 -16 -30s-5.5 -22.333 -5.5 -33c0 -20.667 7.16699 -37.667 21.5 -51s32.166 -25.333 53.499 -36s44.333 -21.167 69 -31.5s47.667 -22.833 69 -37.5s39.166 -32.667 53.499 -54 s21.5 -48.666 21.5 -81.999z"/>
    <glyph glyph-name="nine" unicode="9" d="M425 357c0 -49.333 -6.66602 -95.3311 -19.999 -137.998s-33.666 -80.334 -60.999 -113.001s-61.833 -60 -103.5 -82s-90.834 -37 -147.501 -45l-9 29c48 12 88.667 28.167 122 48.5s60.333 44.166 81 71.499s35.667 57.666 45 90.999s14 69.333 14 108 c0 43.333 -3.66699 79.333 -11 108s-16.833 51.667 -28.5 69s-24.5 29.666 -38.5 36.999s-27.667 11 -41 11c-34 0 -60.167 -12.667 -78.5 -38s-27.5 -57.333 -27.5 -96c0 -30 3.66699 -54.5 11 -73.5s16.666 -34 27.999 -45s23.666 -18.5 36.999 -22.5s26 -6 38 -6 c28 0 53.167 9.16699 75.5 27.5s39.833 41.5 52.5 69.5l6 -51c-8 -14.667 -17.833 -28 -29.5 -40s-24.5 -22.5 -38.5 -31.5s-28.5 -16 -43.5 -21s-29.5 -7.5 -43.5 -7.5c-26 0 -49.167 4.33301 -69.5 13s-37.666 20.667 -51.999 36s-25.166 33.5 -32.499 54.5 s-11 43.5 -11 67.5c0 24.667 5 49.834 15 75.501s23.667 48.834 41 69.501s38.166 37.5 62.499 50.5s50.833 19.5 79.5 19.5c22.667 0 44.667 -4.66699 66 -14s40.333 -24 57 -44s30 -45.5 40 -76.5s15 -68.167 15 -111.5z"/>
    <glyph glyph-name="colon" unicode=":" horiz-adv-x="229" d="M180 60c0 -22.667 -6.33301 -41.667 -19 -57s-28.667 -23 -48 -23c-17.333 0 -29.833 4.83301 -37.5 14.5s-11.5 23.167 -11.5 40.5c0 22 6.66699 40.833 20 56.5s29.333 23.5 48 23.5c32 0 48 -18.333 48 -55zM180 414c0 -22.667 -6.33301 -41.667 -19 -57 s-28.667 -23 -48 -23c-17.333 0 -29.833 4.83301 -37.5 14.5s-11.5 23.167 -11.5 40.5c0 22 6.66699 40.833 20 56.5s29.333 23.5 48 23.5c32 0 48 -18.333 48 -55z"/>
    <glyph glyph-name="semicolon" unicode=";" horiz-adv-x="229" d="M191 34c0 -12.667 -2.49902 -26.999 -7.49902 -42.999s-12.333 -32.167 -22 -48.5s-21.334 -32.5 -35.001 -48.5s-28.834 -30.333 -45.501 -43l-22 17c18 21.333 30.833 41.666 38.5 60.999s11.5 43 11.5 71c0 14.667 -4.33301 26.167 -13 34.5s-23.667 11.833 -45 10.5 l-8 23c2.66699 4 8.66699 8.5 18 13.5s19.833 9.83301 31.5 14.5s22.834 8.5 33.501 11.5s19 4.5 25 4.5c15.333 -7.33301 25.833 -17.5 31.5 -30.5s8.5 -28.833 8.5 -47.5zM180.001 414.001c0 -22.667 -6.33301 -41.667 -19 -57s-28.667 -23 -48 -23 c-17.333 0 -29.833 4.83301 -37.5 14.5s-11.5 23.167 -11.5 40.5c0 22 6.66699 40.833 20 56.5s29.333 23.5 48 23.5c32 0 48 -18.333 48 -55z"/>
    <glyph glyph-name="less" unicode="&lt;" horiz-adv-x="439" d="M409 427c-1.33301 -7.33301 -3.5 -15.833 -6.5 -25.5l-7.5 -23.5l-353 -131l-12 12c1.33301 6.66699 3.33301 14.667 6 24s5.66699 17.333 9 24l352 132zM409 157l-18.5 -16.5c-5 -4.33301 -12.5 -9.5 -22.5 -15.5l-326 122l-12 12c1.33301 6.66699 3.33301 14.667 6 24 s5.66699 17.333 9 24l356 -132z"/>
    <glyph glyph-name="equal" unicode="=" horiz-adv-x="439" d="M409 363c-1.33301 -6.66699 -3.5 -14.167 -6.5 -22.5l-7.5 -20.5h-353l-12 12c1.33301 6.66699 3.33301 14 6 22s5.66699 15 9 21h352zM409 217c-1.33301 -7.33301 -3.5 -15 -6.5 -23s-5.5 -15 -7.5 -21h-353l-12 13c3.33301 14 8.33301 28.333 15 43h352z"/>
    <glyph glyph-name="greater" unicode="&gt;" horiz-adv-x="439" d="M409 305c-1.33301 -7.33301 -3.33301 -15.667 -6 -25s-5.66699 -17.333 -9 -24l-356 132l-8 19c7.33301 6 14.5 11.5 21.5 16.5s13.5 10.167 19.5 15.5l327 -122zM409 304.999c-1.33301 -7.33301 -3.33398 -15.667 -6.00098 -25s-5.66699 -17.333 -9 -24l-352 -131 l-12 12c2 6.66699 4.33301 15 7 25s5.33398 17.667 8.00098 23l353 132z"/>
    <glyph glyph-name="question" unicode="?" horiz-adv-x="433" d="M394 499c0 -24.667 -3.83008 -45.002 -11.4971 -61.002s-17.334 -29.833 -29.001 -41.5s-24.334 -22.334 -38.001 -32.001s-26.667 -20 -39 -31s-23 -24.167 -32 -39.5s-14.167 -34.333 -15.5 -57l-3 -47c-6 -4.66699 -9.83301 -8.5 -11.5 -11.5 s-6.83398 -5.83301 -15.501 -8.5l-12 10l-4 57c-0.666992 18.667 2 35.334 8 50.001s13.667 28.334 23 41.001s19.833 24.667 31.5 36s22.5 22.833 32.5 34.5s18.333 23.834 25 36.501s10 26.667 10 42c0 40 -9.16699 71.5 -27.5 94.5s-44.5 34.5 -78.5 34.5 c-12 0 -23.333 -2.66699 -34 -8s-20 -12.5 -28 -21.5s-14.333 -19.333 -19 -31s-7 -23.834 -7 -36.501c0 -4.66699 0.666992 -9.33398 2 -14.001l4 -14c-10.667 -5.33301 -21.667 -9.5 -33 -12.5s-24.333 -5.16699 -39 -6.5l-13 15c-0.666992 2.66699 -1 5.33398 -1 8.00098 v8c0 22.667 5.66699 43.834 17 63.501s26.5 36.667 45.5 51s40.833 25.5 65.5 33.5s50.667 12 78 12c48 0 84.833 -14.167 110.5 -42.5s38.5 -65.5 38.5 -111.5zM263.003 59.998c0 -22.667 -6.33301 -41.667 -19 -57s-28.667 -23 -48 -23 c-17.333 0 -29.833 4.83301 -37.5 14.5s-11.5 23.167 -11.5 40.5c0 22 6.66699 40.833 20 56.5s29.333 23.5 48 23.5c32 0 48 -18.333 48 -55z"/>
    <glyph glyph-name="at" unicode="@" horiz-adv-x="807" d="M773 268c0 -42 -6.99902 -80.502 -20.999 -115.502s-31.333 -64.833 -52 -89.5s-43.167 -43.834 -67.5 -57.501s-46.833 -20.5 -67.5 -20.5c-16 0 -30 7.16699 -42 21.5s-20.333 38.5 -25 72.5c-13.333 -18.667 -25.166 -34 -35.499 -46s-20.333 -21.5 -30 -28.5 s-19.667 -12 -30 -15s-21.833 -4.5 -34.5 -4.5c-16.667 0 -33.5 5.33301 -50.5 16s-32.5 26 -46.5 46s-25.333 44.333 -34 73s-13 61 -13 97c0 28 5 56.833 15 86.5s24.167 56.834 42.5 81.501s40.333 44.834 66 60.501s54.5 23.5 86.5 23.5 c7.33301 0 14.166 -0.5 20.499 -1.5s12.5 -3.16699 18.5 -6.5s12.333 -8 19 -14s14.334 -13.667 23.001 -23c18 10.667 35.667 25.667 53 45l15 -15c-2.66699 -9.33301 -5.33398 -19.333 -8.00098 -30c-2 -9.33301 -3.66699 -20.166 -5 -32.499s-2 -25.166 -2 -38.499v-214 c0 -29.333 5 -51 15 -65s22.667 -21 38 -21c8 0 17.5 5.16699 28.5 15.5s21.333 24.333 31 42s17.834 38.5 24.501 62.5s10 49.667 10 77c0 54.667 -7 103.334 -21 146.001s-33.5 78.5 -58.5 107.5s-54.833 51.167 -89.5 66.5s-72.667 23 -114 23 c-50 0 -95 -9.33301 -135 -28s-74 -43.5 -102 -74.5s-49.667 -66.833 -65 -107.5s-23 -83 -23 -127c0 -59.333 9.16699 -112.5 27.5 -159.5s42.833 -86.833 73.5 -119.5s66.167 -57.834 106.5 -75.501s82.5 -26.5 126.5 -26.5c27.333 0 54.166 2.83301 80.499 8.5 s50.666 12.834 72.999 21.501s42.166 18 59.499 28s31 19 41 27l13 -27c-12 -12 -27.333 -24.833 -46 -38.5s-40.334 -26.334 -65.001 -38.001s-52.167 -21.167 -82.5 -28.5s-62.833 -11 -97.5 -11c-56 0 -107.5 9.66699 -154.5 29s-87.333 46.833 -121 82.5 s-60 78.667 -79 129s-28.5 106.833 -28.5 169.5c0 55.333 11 108.5 33 159.5s51.833 96.167 89.5 135.5s81.834 70.666 132.501 93.999s104.667 35 162 35c48.667 0 92.834 -8.16699 132.501 -24.5s73.5 -40.666 101.5 -72.999s49.667 -72.333 65 -120 s23 -102.834 23 -165.501zM495.001 356.998c-9.33301 18 -19.498 32.335 -30.498 43.002s-26.167 16 -45.5 16c-36 0 -65.167 -15.333 -87.5 -46s-33.5 -76.667 -33.5 -138c0 -28 3.33301 -53.167 10 -75.5s15.167 -41.333 25.5 -57s21.666 -27.834 33.999 -36.501 s24.166 -13 35.499 -13c6 0 12 1 18 3s12.333 5.66699 19 11s14.5 12.666 23.5 21.999s19.5 21.333 31.5 36v235z"/>
    <glyph glyph-name="A" unicode="A" horiz-adv-x="595" d="M379 0l-0.000976562 20.999c48.667 2.66699 69.334 13.667 62.001 33l-56 163h-199l-54 -163c-3.33301 -10 1 -17.167 13 -21.5s31.333 -8.16602 58 -11.499v-21h-203v21c22 4 39.5 8.16699 52.5 12.5s21.167 11.166 24.5 20.499l182 550c7.33301 8 16.5 15.333 27.5 22 s20.833 12.334 29.5 17.001l205 -589c3.33301 -9.33301 9.5 -16.5 18.5 -21.5s24.167 -8.83301 45.5 -11.5v-21h-206zM199.999 260.999h170l-86 251z"/>
    <glyph glyph-name="B" unicode="B" horiz-adv-x="550" d="M496 174c0 -28 -5.49805 -53.167 -16.498 -75.5s-26.167 -41.333 -45.5 -57s-42.833 -27.667 -70.5 -36s-57.834 -12.5 -90.501 -12.5c-14.667 0 -33.834 0.166992 -57.501 0.5s-47.167 1.16602 -70.5 2.49902c-26.667 1.33301 -55 2.66602 -85 3.99902h-36v21 c22 4.66699 39.333 9.66699 52 15s19 10.333 19 15v530c-12.667 -1.33301 -24.834 -3 -36.501 -5l-34.5 -6l-4 31c12.667 3.33301 27.334 6.83301 44.001 10.5s34.334 6.83398 53.001 9.50098s37.5 4.83398 56.5 6.50098s37.5 2.5 55.5 2.5c66 0 118 -11.667 156 -35 s57 -55.666 57 -96.999c0 -35.333 -8.33301 -65.5 -25 -90.5s-39.334 -43.167 -68.001 -54.5c20.667 -4 40 -11.333 58 -22s33.5 -23.834 46.5 -39.501s23.333 -33.5 31 -53.5s11.5 -41.333 11.5 -64zM254.002 317c-16 0 -30.5 -0.667969 -43.5 -2.00098s-25.5 -3 -37.5 -5 v-259c0 -2.66699 1.66699 -5.33398 5 -8.00098c11.333 -3.33301 25 -5.66602 41 -6.99902s30.333 -2 43 -2c47.333 0 84.833 11.333 112.5 34s41.5 52.334 41.5 89.001c0 18 -3.16699 36.5 -9.5 55.5s-16 36.167 -29 51.5s-29.833 28 -50.5 38s-45 15 -73 15z M202.002 588.999l-14 0.00195312c-4.66699 0 -9.66699 -0.333008 -15 -1v-234h17c36.667 0 66.5 3.66699 89.5 11s41 16.666 54 27.999s21.667 24.166 26 38.499s6.5 28.5 6.5 42.5c0 16 -2.66699 31 -8 45s-14.333 26.167 -27 36.5s-29.5 18.5 -50.5 24.5 s-47.167 9 -78.5 9z"/>
    <glyph glyph-name="C" unicode="C" horiz-adv-x="536" d="M497 103c-42 -44.667 -80.3291 -75.501 -114.996 -92.501s-69 -25.5 -103 -25.5c-30 0 -59.667 6.83301 -89 20.5s-55.5 33.334 -78.5 59.001s-41.667 57.167 -56 94.5s-21.5 79.666 -21.5 126.999c0 52 7.83301 99.167 23.5 141.5s37 78.5 64 108.5 s58.5 53.167 94.5 69.5s74 24.5 114 24.5c35.333 0 66.166 -4.83301 92.499 -14.5s48.166 -21.167 65.499 -34.5c2 -1.33301 1.5 -4.5 -1.5 -9.5s-7 -10.667 -12 -17s-10.333 -12.5 -16 -18.5l-14.5 -15l-17 3c-16.667 15.333 -36.334 27.833 -59.001 37.5 s-49 14.5 -79 14.5c-16.667 0 -35.334 -4.66699 -56.001 -14s-40.167 -24.666 -58.5 -45.999s-33.666 -49.333 -45.999 -84s-18.5 -77.334 -18.5 -128.001c0 -43.333 6.33301 -81.166 19 -113.499s28.834 -59.333 48.501 -81s41.5 -38 65.5 -49s47.667 -16.5 71 -16.5 c17.333 0 40.166 6 68.499 18s60.5 33 96.5 63c3.33301 -1.33301 6.66602 -4.83301 9.99902 -10.5s6 -9.5 8 -11.5z"/>
    <glyph glyph-name="D" unicode="D" horiz-adv-x="593" d="M549 330c0 -61.333 -9 -112.999 -27 -154.999s-40.667 -76 -68 -102s-57.166 -44.667 -89.499 -56s-62.833 -17 -91.5 -17h-233l133 73c0 -11.333 6.16699 -19.5 18.5 -24.5s35.833 -7.5 70.5 -7.5c22.667 0 46 5.5 70 16.5s45.833 27.667 65.5 50 s35.834 50.333 48.501 84s19 73.5 19 119.5c0 86.667 -21 154.667 -63 204s-102.333 74 -181 74c-36.667 0 -71.667 -2 -105 -6s-64 -8.33301 -92 -13l-4 31c14 4 30.5 7.83301 49.5 11.5s38.833 6.66699 59.5 9s41.667 4.33301 63 6s41.666 2.5 60.999 2.5 c45.333 0 86.166 -6.83301 122.499 -20.5s67.333 -33.334 93 -59.001s45.5 -57 59.5 -94s21 -79.167 21 -126.5zM24 0.000976562v21c22 4.66699 39.333 9.66699 52 15s19 10.333 19 15v554h78v-530c0 -12.667 6 -22.167 18 -28.5s29.667 -11.833 53 -16.5v-30h-220z"/>
    <glyph glyph-name="E" unicode="E" horiz-adv-x="496" d="M434 603c-1.33301 -16.667 -4 -36 -8 -58s-8 -39.333 -12 -52h-22c-1.33301 30 -5.33301 50.5 -12 61.5s-16 16.5 -28 16.5h-204l14 44h256zM384 345c-5.33301 -9.33301 -12.333 -18.999 -21 -28.999s-16.667 -17.667 -24 -23c-10 9.33301 -21.833 16.166 -35.5 20.499 s-34.167 6.5 -61.5 6.5h-101l11 39h219zM466 119.001c-2.66699 -28 -5.99805 -52.502 -9.99805 -73.502s-7.33301 -36.167 -10 -45.5h-422v21c22 4.66699 39.333 9.66699 52 15s19 10.333 19 15v513c0 4 -6 8.83301 -18 14.5s-29.667 10.834 -53 15.501v21h138h82v-21 c-22 -4.66699 -39.333 -8 -52 -10s-19 -5 -19 -9v-500c0 -4.66699 1.16699 -9 3.5 -13s7 -7.33301 14 -10s17.167 -4.66699 30.5 -6s30.666 -2 51.999 -2h63c14.667 0 27.334 0.833008 38.001 2.5s20.167 5.33398 28.5 11.001s15.666 14 21.999 25 s13.166 26.167 20.499 45.5z"/>
    <glyph glyph-name="F" unicode="F" horiz-adv-x="478" d="M438 603c-0.666992 -16.667 -3.00098 -36 -7.00098 -58s-8 -39.333 -12 -52h-23c-1.33301 30 -5.16602 50.5 -11.499 61.5s-15.833 16.5 -28.5 16.5h-208l14 44h261zM369.999 345c-6 -9.33301 -13.333 -18.999 -22 -28.999s-16.667 -17.667 -24 -23 c-9.33301 9.33301 -20.833 16.166 -34.5 20.499s-34.167 6.5 -61.5 6.5h-102l12 39h218zM23.999 0.000976562v20.999c22 4.66699 39.333 9.66699 52 15s19 10.333 19 15v513c0 4 -6 8.83301 -18 14.5s-29.667 10.834 -53 15.501v21h220v-21c-22 -4.66699 -39.333 -8 -52 -10 s-19 -5 -19 -9v-524c0 -4 6.33301 -8.5 19 -13.5s35 -10.5 67 -16.5v-21h-235z"/>
    <glyph glyph-name="G" unicode="G" horiz-adv-x="583" d="M559 277c-18.667 -4.66699 -31.834 -10.6699 -39.501 -18.0029s-11.5 -14.666 -11.5 -21.999v-159l-37 -18c-9.33301 -4.66699 -17.666 -8.5 -24.999 -11.5s-11 -3.16699 -11 -0.5v189c0 6.66699 -7 13.334 -21 20.001s-40.667 13.334 -80 20.001v21h225v-21z M509 579.997c2 -2 1.50098 -5.33398 -1.49902 -10.001s-7.16699 -9.83398 -12.5 -15.501s-11.166 -11.334 -17.499 -17.001s-11.5 -10.5 -15.5 -14.5l-16 3c-21.333 20.667 -44.333 34.167 -69 40.5s-53 9.5 -85 9.5c-12 0 -28.333 -4.33301 -49 -13s-41 -23.167 -61 -43.5 s-37.167 -47.5 -51.5 -81.5s-21.5 -76.333 -21.5 -127c0 -45.333 6.16699 -84.666 18.5 -117.999s28.166 -61 47.499 -83s41.333 -38.5 66 -49.5s49.334 -16.5 74.001 -16.5c33.333 0 62.666 4.5 87.999 13.5s46.666 21.5 63.999 37.5c2 -1.33301 5 -2.83301 9 -4.5l13 -5.5 c4.66699 -2 8.66699 -3.83301 12 -5.5s5.66602 -3.16699 6.99902 -4.5c-24 -20 -45.5 -35.833 -64.5 -47.5s-36.5 -20.667 -52.5 -27s-31.167 -10.5 -45.5 -12.5s-28.833 -3 -43.5 -3c-32.667 0 -65 6.16699 -97 18.5s-60.667 30.833 -86 55.5s-45.833 55.834 -61.5 93.501 s-23.5 81.5 -23.5 131.5c0 54 8.66699 102.5 26 145.5s40.666 79.333 69.999 109s63.833 52.334 103.5 68.001s81.834 23.5 126.501 23.5c10.667 0 22.5 -1.16699 35.5 -3.5s26.167 -5.5 39.5 -9.5s26.333 -9.16699 39 -15.5s24.334 -13.5 35.001 -21.5z"/>
    <glyph glyph-name="H" unicode="H" horiz-adv-x="654" d="M400 0v21c22 4.66699 39.333 9.66699 52 15s19 10.333 19 15v513c0 4 -6 8.83301 -18 14.5s-29.667 10.834 -53 15.501v21h220v-21c-22 -4.66699 -39.333 -9.66699 -52 -15s-19 -10.333 -19 -15v-513c0 -4 6 -8.83301 18 -14.5s29.667 -10.834 53 -15.501v-21h-220z M160 300v44h321v-44h-321zM24 0v21c22 4.66699 39.333 9.66699 52 15s19 10.333 19 15v513c0 4 -6 8.83301 -18 14.5s-29.667 10.834 -53 15.501v21h220v-21c-22 -4.66699 -39.333 -9.66699 -52 -15s-19 -10.333 -19 -15v-513c0 -4 6 -8.83301 18 -14.5 s29.667 -10.834 53 -15.501v-21h-220z"/>
    <glyph glyph-name="I" unicode="I" horiz-adv-x="298" d="M34 0v21c22 4.66699 39.333 9.66699 52 15s19 10.333 19 15v513c0 4 -6 8.83301 -18 14.5s-29.667 10.834 -53 15.501v21h220v-21c-22 -4.66699 -39.333 -9.66699 -52 -15s-19 -10.333 -19 -15v-513c0 -4 6 -8.83301 18 -14.5s29.667 -10.834 53 -15.501v-21h-220z"/>
    <glyph glyph-name="J" unicode="J" horiz-adv-x="305" d="M271 594c-22 -4.66699 -39.3281 -9.66504 -51.9951 -14.998s-19 -10.333 -19 -15v-464c0 -38.667 -2.66699 -71 -8 -97s-12.5 -47.833 -21.5 -65.5s-19.333 -32.5 -31 -44.5s-23.834 -23.333 -36.501 -34c-8.66699 -6.66699 -18.334 -12.834 -29.001 -18.501 s-21.334 -10.5 -32.001 -14.5s-20.834 -7 -30.501 -9s-17.5 -3 -23.5 -3c-10 0 -19.833 1.5 -29.5 4.5s-18.334 6.66699 -26.001 11s-13.834 8.66602 -18.501 12.999s-7 8.16602 -7 11.499c0 2.66699 2.16699 6.33398 6.5 11.001s9.5 9.5 15.5 14.5s12.167 9.66699 18.5 14 s11.833 7.16602 16.5 8.49902c18 -12 32.167 -19.5 42.5 -22.5s21.833 -4.5 34.5 -4.5c8.66699 0 17.667 2.66699 27 8s18 15.166 26 29.499s14.667 33.833 20 58.5s8 56 8 94v499c0 2 -1.33301 4.16699 -4 6.5s-7.5 4.83301 -14.5 7.5s-16.667 5.33398 -29 8.00098 s-28.166 5.33398 -47.499 8.00098v21h244v-21v0z"/>
    <glyph glyph-name="K" unicode="K" horiz-adv-x="578" d="M573 18c-19.333 -6 -38.667 -11.667 -58 -17s-36.666 -8 -51.999 -8c-9.33301 0 -17.666 1.5 -24.999 4.5s-14.333 8.5 -21 16.5l-243 300l199 237c15.333 17.333 19.5 28.333 12.5 33s-23.167 8 -48.5 10v21h205v-21c-21.333 -2.66699 -38 -5.5 -50 -8.5 s-23 -10.167 -33 -21.5l-212 -236l234 -266c11.333 -13.333 24.666 -21 39.999 -23s31.666 -2 48.999 0zM23.999 0v21c22 4.66699 39.333 9.66699 52 15s19 10.333 19 15v513c0 4 -6 8.83301 -18 14.5s-29.667 10.834 -53 15.501v21h220v-21 c-22 -4.66699 -39.333 -9.66699 -52 -15s-19 -10.333 -19 -15v-513c0 -4 6 -8.83301 18 -14.5s29.667 -10.834 53 -15.501v-21h-220z"/>
    <glyph glyph-name="L" unicode="L" horiz-adv-x="476" d="M461 119c-2.66699 -28 -6 -52.5029 -10 -73.5029s-7.33301 -36.167 -10 -45.5h-417v21c22 4.66699 39.333 9.66699 52 15s19 10.333 19 15v513c0 4 -6 8.83301 -18 14.5s-29.667 10.834 -53 15.501v21h220v-21c-22 -4.66699 -39.333 -9.66699 -52 -15 s-19 -10.333 -19 -15v-484c0 -11.333 6.33301 -20.166 19 -26.499s36.667 -9.5 72 -9.5h70c14.667 0 27.167 0.833008 37.5 2.5s19.5 5.33398 27.5 11.001s15 14 21 25s12.667 26.167 20 45.5l21 -9v0z"/>
    <glyph glyph-name="M" unicode="M" horiz-adv-x="806" d="M545 0v21.001c22 4.66699 40.167 9.66699 54.5 15s21.5 10.333 21.5 15l-5 514l75 28l5 -542c0 -4 6 -8.83301 18 -14.5s29.667 -10.834 53 -15.501v-21h-222zM757 594.001c-11.333 0 -24.001 -2.16504 -38.001 -6.49805s-27.833 -10.166 -41.5 -17.499 s-26.167 -16.333 -37.5 -27s-19.666 -22.334 -24.999 -35.001l-213 -508h-2c-4 20.667 -6.83301 38 -8.5 52s-2.5 25.667 -2.5 35s0.833008 17.166 2.5 23.499s3.5 12.166 5.5 17.499l189 446c8.66699 19.333 14.5 31 17.5 35s7.5 6 13.5 6h140v-21zM401.999 129.003 c2 -5.33301 3.83496 -11.168 5.50195 -17.501s2.66699 -14.333 3 -24s-0.333984 -21.5 -2.00098 -35.5s-4.5 -31.333 -8.5 -52h-22l-223 518c-6 14.667 -14 26.834 -24 36.501s-20.667 17.5 -32 23.5s-22.833 10.167 -34.5 12.5s-21.834 3.5 -30.501 3.5v21h140 c6.66699 0 11.5 -2.5 14.5 -7.5s8.5 -16.167 16.5 -33.5zM29.001 0.000976562v21.001c22.667 4.66699 40.167 9.66699 52.5 15s18.5 10.333 18.5 15l5 533l55 12l-5 -545c0 -4 6 -8.83301 18 -14.5s29.667 -10.834 53 -15.501v-21h-197z"/>
    <glyph glyph-name="N" unicode="N" horiz-adv-x="649" d="M625 594c-23.333 -3.33301 -41 -7.99902 -53 -13.999s-18 -11.333 -18 -16v-548l-58 19v529c0 4 -5.33301 9.16699 -16 15.5s-29 11.166 -55 14.499v21h200v-21zM554 -14.999c-16 2 -28.6689 5.33398 -38.002 10.001s-16 9.66699 -20 15l-380 527 c-13.333 18.667 -27.666 32.167 -42.999 40.5s-31.666 13.833 -48.999 16.5v21h104c4.66699 0 8.66699 -0.333008 12 -1s6.5 -2.33398 9.5 -5.00098s6.5 -6.5 10.5 -11.5s9 -11.833 15 -20.5l322 -444c3.33301 -5.33301 8 -12 14 -20s12.333 -16 19 -24l24 -30v-74z M23.998 0.00195312v20.999c24 3.33301 41.833 8 53.5 14s17.5 11.333 17.5 16v533l59 12v-545c0 -4 5.5 -9.16699 16.5 -15.5s29.167 -11.166 54.5 -14.499v-21h-201z"/>
    <glyph glyph-name="O" unicode="O" horiz-adv-x="600" d="M556 316c0 -44 -7.33594 -86 -22.0029 -126s-34.667 -75.167 -60 -105.5s-54.666 -54.5 -87.999 -72.5s-68.333 -27 -105 -27c-39.333 0 -74.333 8.66699 -105 26s-56.5 40.5 -77.5 69.5s-37 62.333 -48 100s-16.5 77.167 -16.5 118.5c0 44 7.16699 86 21.5 126 s33.833 75.167 58.5 105.5s53.834 54.5 87.501 72.5s69.5 27 107.5 27c40 0 75.5 -8.83301 106.5 -26.5s56.833 -41.167 77.5 -70.5s36.334 -62.833 47.001 -100.5s16 -76.5 16 -116.5zM479.997 307c0 34 -4.50098 67 -13.501 99s-21.5 60.5 -37.5 85.5s-35.333 45 -58 60 s-48 22.5 -76 22.5c-29.333 0 -55.333 -6.16699 -78 -18.5s-42 -29.833 -58 -52.5s-28.167 -50 -36.5 -82s-12.5 -68 -12.5 -108c0 -36.667 5 -71.334 15 -104.001s23.333 -61.167 40 -85.5s36.167 -43.666 58.5 -57.999s46.166 -21.5 71.499 -21.5 c26.667 0 51.334 5.66699 74.001 17s42.334 28 59.001 50s29.5 49.333 38.5 82s13.5 70.667 13.5 114z"/>
    <glyph glyph-name="P" unicode="P" horiz-adv-x="523" d="M24 0l-0.00292969 21.002c22 4.66699 39.333 9.66699 52 15s19 10.333 19 15v530c-12 -1.33301 -24 -3 -36 -5l-35 -6l-4 31c32 8.66699 68.167 15.667 108.5 21s80.5 8 120.5 8c70 0 125.833 -14.833 167.5 -44.5s62.5 -72.5 62.5 -128.5 c0 -34 -6.83301 -63.333 -20.5 -88s-30.5 -45 -50.5 -61s-41.667 -27.833 -65 -35.5s-44.333 -11.5 -63 -11.5c-30.667 0 -57 5 -79 15l-11 37c13.333 -6 26.333 -10 39 -12s24.667 -3 36 -3c14.667 0 30.334 3 47.001 9s31.667 14.667 45 26s24.5 25.666 33.5 42.999 s13.5 37.666 13.5 60.999c0 26.667 -4.83301 49.667 -14.5 69s-22.667 35.166 -39 47.499s-35.666 21.333 -57.999 27s-46.166 8.5 -71.499 8.5h-24c-8 0 -16 -0.333008 -24 -1v-537c0 -4 5.83301 -8.66699 17.5 -14s34.5 -10.666 68.5 -15.999v-21h-235z"/>
    <glyph glyph-name="Q" unicode="Q" horiz-adv-x="600" d="M556 316c0 -44 -7.33594 -86 -22.0029 -126s-34.667 -75.167 -60 -105.5s-54.666 -54.5 -87.999 -72.5s-68.333 -27 -105 -27c-36 0 -69.167 8.33301 -99.5 25s-56.333 39.167 -78 67.5s-38.667 61.5 -51 99.5s-18.5 78.667 -18.5 122c0 44 7.16699 86 21.5 126 s33.833 75.167 58.5 105.5s53.834 54.5 87.501 72.5s69.5 27 107.5 27c40 0 75.5 -8.83301 106.5 -26.5s56.833 -41.167 77.5 -70.5s36.334 -62.833 47.001 -100.5s16 -76.5 16 -116.5zM625.997 -57c-15.333 -28.667 -31.333 -51.166 -48 -67.499s-30 -24.5 -40 -24.5 c-25.333 0 -50.166 7.5 -74.499 22.5s-48.666 31.833 -72.999 50.5l-73 53.5c-24.333 17 -48.833 27.833 -73.5 32.5c12.667 3.33301 24.667 6.33301 36 9c9.33301 2 18.666 3.66699 27.999 5s16.333 1.33301 21 0c18.667 -5.33301 37.5 -13.5 56.5 -24.5 s37.5 -22.333 55.5 -34s35.333 -21.834 52 -30.501s32.667 -13 48 -13c8 0 17.167 2.66699 27.5 8s25.166 15.333 44.499 30zM479.997 307.001c0 34 -4.50098 67 -13.501 99s-21.5 60.5 -37.5 85.5s-35.333 45 -58 60s-48 22.5 -76 22.5 c-29.333 0 -55.333 -6.16699 -78 -18.5s-42 -29.833 -58 -52.5s-28.167 -50 -36.5 -82s-12.5 -68 -12.5 -108c0 -36.667 5 -71.334 15 -104.001s23.333 -61.167 40 -85.5s36.167 -43.666 58.5 -57.999s46.166 -21.5 71.499 -21.5c26.667 0 51.334 5.66699 74.001 17 s42.334 28 59.001 50s29.5 49.333 38.5 82s13.5 70.667 13.5 114z"/>
    <glyph glyph-name="R" unicode="R" horiz-adv-x="561" d="M24 0l-0.00195312 21.002c22 4.66699 39.333 9.66699 52 15s19 10.333 19 15v529c-11.333 -1.33301 -23 -2.83301 -35 -4.5s-24 -3.5 -36 -5.5l-4 31c30.667 7.33301 62.334 14 95.001 20s70.667 9 114 9c78 0 136.333 -14.167 175 -42.5s58 -63.5 58 -105.5 c0 -50 -15 -90.167 -45 -120.5s-68.667 -50.833 -116 -61.5l162 -232c10 -14 21.667 -22.833 35 -26.5s31 -4.5 53 -2.5l5 -21c-21.333 -7.33301 -41.666 -13.333 -60.999 -18s-35.333 -7 -48 -7c-9.33301 0 -18.5 2.66699 -27.5 8s-15.833 11.666 -20.5 18.999l-166 272h-8 c-8 0 -16.333 0.333008 -25 1s-17.667 2 -27 4v-246c0 -4 6 -8.83301 18 -14.5s29.667 -10.834 53 -15.501v-21h-220zM210.998 589.002c-6.66699 0 -13.001 -0.167969 -19.001 -0.500977s-12.333 -0.5 -19 -0.5v-251c8.66699 -1.33301 16.334 -2.16602 23.001 -2.49902 s13.667 -0.5 21 -0.5c54 0 95.833 11.333 125.5 34s44.5 55.667 44.5 99c0 36 -14.167 65.333 -42.5 88s-72.833 34 -133.5 34z"/>
    <glyph glyph-name="S" unicode="S" horiz-adv-x="476" d="M432 184c0 -22 -4.33594 -44.668 -13.0029 -68.001s-22 -44.666 -40 -63.999s-40.667 -35.333 -68 -48s-59.333 -19 -96 -19c-21.333 0 -46.166 4.33301 -74.499 13s-53.833 20.334 -76.5 35.001c-2 1.33301 -3.66699 7 -5 17s-2 21.5 -2 34.5s0.5 26.333 1.5 40 s2.83301 24.834 5.5 33.501l20 -2c15.333 -38.667 37.166 -67 65.499 -85s59.166 -27 92.499 -27c14.667 0 29.5 3 44.5 9s28.5 14.167 40.5 24.5s21.667 22.5 29 36.5s11 28.667 11 44c0 26.667 -7.5 48.5 -22.5 65.5s-33.833 31.833 -56.5 44.5s-47.167 24.5 -73.5 35.5 s-50.833 23.833 -73.5 38.5s-41.5 32.167 -56.5 52.5s-22.5 46.166 -22.5 77.499c0 15.333 3.5 32.166 10.5 50.499s18.167 35.5 33.5 51.5s35.333 29.333 60 40s55 16 91 16c14.667 0 29.334 -1.16699 44.001 -3.5s28.5 -5.5 41.5 -9.5s24.667 -8.66699 35 -14 s18.5 -11.333 24.5 -18c2 -2 2 -5.83301 0 -11.5s-5.16699 -11.834 -9.5 -18.501s-9.16602 -13.334 -14.499 -20.001s-10 -11.667 -14 -15l-18 3c-18 21.333 -37.5 36 -58.5 44s-40.833 12 -59.5 12c-18 0 -33.5 -2.66699 -46.5 -8s-23.833 -12 -32.5 -20s-15 -17 -19 -27 s-6 -19.667 -6 -29c0 -20.667 7.66699 -38.167 23 -52.5s34.333 -27.666 57 -39.999s47.334 -24.666 74.001 -36.999s51.334 -26.5 74.001 -42.5s41.667 -35.167 57 -57.5s23 -49.5 23 -81.5z"/>
    <glyph glyph-name="T" unicode="T" horiz-adv-x="551" d="M529 603c-0.666992 -16.667 -2.33203 -34.832 -4.99902 -54.499s-6 -39.834 -10 -60.501h-22c-6 28 -11.333 48.833 -16 62.5s-14.334 20.5 -29.001 20.5h-194l14 44h247zM84.002 571.002c-5.33301 0 -9.83301 -0.833008 -13.5 -2.5s-7.66699 -5.5 -12 -11.5 s-9 -14.667 -14 -26s-11.167 -26.333 -18.5 -45l-21 9c1.33301 19.333 3.5 39.833 6.5 61.5s6.16699 41.167 9.5 58.5h306l14 -44h-257zM150.002 0.00195312v21c30 6 50.833 12.167 62.5 18.5s17.5 11.833 17.5 16.5v519c0 4 -6 7 -18 9s-29.667 5.33301 -53 10v21h219v-21 c-22 -4.66699 -39.167 -8 -51.5 -10s-18.5 -5 -18.5 -9v-519c0 -4 5.83301 -9.33301 17.5 -16s32.5 -13 62.5 -19v-21h-238z"/>
    <glyph glyph-name="U" unicode="U" horiz-adv-x="654" d="M623 594c-22 -4.66699 -39.3359 -9.66699 -52.0029 -15s-19 -10.333 -19 -15v-308c0 -86 -20.167 -152.667 -60.5 -200s-95.833 -71 -166.5 -71c-33.333 0 -64.166 4.66699 -92.499 14s-52.666 23.5 -72.999 42.5s-36.166 43 -47.499 72s-17 63.5 -17 103.5v347 c0 4 -6 8.83301 -18 14.5s-29.667 10.834 -53 15.501v21h220v-21c-22 -4.66699 -39.333 -9.66699 -52 -15s-19 -10.333 -19 -15v-323c0 -62.667 14.5 -111.667 43.5 -147s71.5 -53 127.5 -53c23.333 0 44 5.66699 62 17s33 26.166 45 44.499s21.167 39.166 27.5 62.499 s9.5 47 9.5 71v328c0 4 -6 8.83301 -18 14.5s-29.667 10.834 -53 15.501v21h206v-21v0z"/>
    <glyph glyph-name="V" unicode="V" horiz-adv-x="650" d="M630 594c-22 -4 -39.334 -7.99805 -52.001 -11.998s-20.667 -10.667 -24 -20l-187 -533c-2.66699 -7.33301 -7.16699 -13.5 -13.5 -18.5s-13.166 -9.33301 -20.499 -13s-14.666 -6.5 -21.999 -8.5s-13 -3.33301 -17 -4l-215 577c-6 16.667 -29 27.334 -69 32.001v21h212 v-21c-48.667 -2.66699 -69.334 -13.334 -62.001 -32.001l172 -463l164 463c3.33301 9.33301 -0.666992 16.166 -12 20.499s-30.333 8.16602 -57 11.499v21h203v-21v0z"/>
    <glyph glyph-name="W" unicode="W" horiz-adv-x="850" d="M831 594c-20 -4.66699 -36.8311 -8.83594 -50.498 -12.5029s-21.5 -9.5 -23.5 -17.5l-112 -535c-2 -7.33301 -5.83301 -13.5 -11.5 -18.5s-12 -9.33301 -19 -13s-14 -6.5 -21 -8.5s-12.5 -3.33301 -16.5 -4l-159 476l-140 -432c-2 -7.33301 -6.33301 -13.666 -13 -18.999 s-13.667 -9.66602 -21 -12.999s-14.833 -6 -22.5 -8s-13.5 -3.33301 -17.5 -4l-127 575c-2 8 -7.83301 14.667 -17.5 20s-26.167 10 -49.5 14v21h209v-21c-16 -1.33301 -28.5 -3.33301 -37.5 -6s-15.833 -5.5 -20.5 -8.5s-7.33398 -6.16699 -8.00098 -9.5 s-0.666992 -6.66602 0 -9.99902l97 -438l158 493h27l173 -493l91 442c1.33301 7.33301 -5.33398 13.333 -20.001 18s-33 8.66699 -55 12v21h207v-21v0z"/>
    <glyph glyph-name="X" unicode="X" horiz-adv-x="615" d="M576 594c-23.333 -2.66699 -41.833 -6.66699 -55.5 -12s-24.834 -15 -33.501 -29l-181 -292l-24 72l137 220c9.33301 15.333 8.33301 25.5 -3 30.5s-31.666 8.5 -60.999 10.5v21h221v-21zM380 0l0.000976562 21.002c28.667 3.33301 46.667 7.66602 54 12.999 s6.33301 14.666 -3 27.999l-335 491c-5.33301 7.33301 -10.166 13.333 -14.499 18s-9.33301 8.5 -15 11.5s-12.167 5.33301 -19.5 7s-16.333 3.16699 -27 4.5v21h220v-21c-28 -2.66699 -46 -6.5 -54 -11.5s-7.33301 -14.833 2 -29.5l335 -491 c9.33301 -14 19.666 -23.667 30.999 -29s26.666 -9.33301 45.999 -12v-21h-220zM172.001 62.002c-9.33301 -14.667 -8.66699 -24.665 2 -29.998s31 -9 61 -11v-21h-220v21c21.333 1.33301 39.5 5.16602 54.5 11.499s26.5 16.166 34.5 29.499l187 305l17 -85z"/>
    <glyph glyph-name="Y" unicode="Y" horiz-adv-x="594" d="M574 594c-22 -4 -38.9971 -8.16797 -50.9971 -12.501s-20.333 -10.833 -25 -19.5l-178 -323h-54c-11.333 26.667 -25 55.5 -41 86.5s-32.5 61.167 -49.5 90.5s-33.833 56.833 -50.5 82.5s-31 46.834 -43 63.501l-10 10c-3.33301 3.33301 -8 6.16602 -14 8.49902 s-13.5 4.33301 -22.5 6s-20.167 2.5 -33.5 2.5l-2 21c19.333 2.66699 38.666 5 57.999 7s35.666 3 48.999 3c15.333 0 28 -6.33301 38 -19c12 -16 25 -34.5 39 -55.5s28 -43.5 42 -67.5l41 -73.5c13.333 -25 25.666 -49.167 36.999 -72.5l131 230 c5.33301 8.66699 4 15.334 -4 20.001s-24.667 8.66699 -50 12v21h193v-21zM176.003 -0.000976562l-0.000976562 21c30 6 50.833 12.167 62.5 18.5s17.5 11.833 17.5 16.5v255h78v-255c0 -4 5.83301 -9.33301 17.5 -16s32.834 -13 63.501 -19v-21h-239z"/>
    <glyph glyph-name="Z" unicode="Z" horiz-adv-x="523" d="M484 143c-1.33301 -21.333 -2.5 -45.667 -3.5 -73l-2.5 -70h-435l-14 22l347 544h-224c-10.667 0 -22.334 -7.5 -35.001 -22.5s-22.667 -39.5 -30 -73.5l-28 6l14 147c8.66699 -2 16.667 -3.5 24 -4.5s14.5 -1.83301 21.5 -2.5s14.333 -1 22 -1h25.5h301l12 -21 l-344 -545h255c6.66699 0 12.834 1.5 18.501 4.5s11 8.33301 16 16s10.167 18 15.5 31s11 29.5 17 49.5l27 -7v0z"/>
    <glyph glyph-name="bracketleft" unicode="[" horiz-adv-x="308" d="M288 -122c-1.33301 -6 -3.33203 -13 -5.99902 -21s-5.33398 -15 -8.00098 -21h-206v945h203l16 -12c-1.33301 -8.66699 -3.33301 -17 -6 -25s-5 -13.667 -7 -17h-137v-834h134l17 -15v0z"/>
    <glyph glyph-name="backslash" unicode="\" d="M425 -164c-8 2.66699 -17.833 6.50098 -29.5 11.501s-20.5 9.5 -26.5 13.5l-342 910l18 10c9.33301 -2.66699 18.5 -5.83398 27.5 -9.50098s18.167 -8.5 27.5 -14.5l342 -908z"/>
    <glyph glyph-name="bracketright" unicode="]" horiz-adv-x="308" d="M37 -164l-15.999 15c1.33301 7.33301 3.16602 15 5.49902 23s4.5 14.333 6.5 19h138v834h-134l-17 12c1.33301 7.33301 3.33301 14.833 6 22.5l7 19.5h206v-945h-202z"/>
    <glyph glyph-name="asciicircum" unicode="^" horiz-adv-x="492" d="M443 310c-8 -7.33301 -15.832 -13.5 -23.499 -18.5s-17.167 -10.167 -28.5 -15.5l-18 13l-138 353l-122 -332c-7.33301 -6.66699 -16.333 -13.167 -27 -19.5s-19.334 -11.166 -26.001 -14.499l-11 13l157 425c8 7.33301 18.5 15.166 31.5 23.499s24.167 14.833 33.5 19.5 l172 -447v0z"/>
    <glyph glyph-name="underscore" unicode="_" d="M438 -76c-1.33301 -7.33301 -3.33203 -15 -5.99902 -23s-5.33398 -15 -8.00098 -21h-382l-12 13c3.33301 14 8.33301 28.333 15 43h382l11 -12v0z"/>
    <glyph glyph-name="grave" unicode="`" horiz-adv-x="319" d="M214 526c-7.33301 -6 -16.332 -10.999 -26.999 -14.999l-172 184l10 20l14.5 3c6.33301 1.33301 13.166 2.66602 20.499 3.99902s14.333 2.5 21 3.5s12 1.5 16 1.5l117 -201v0z"/>
    <glyph glyph-name="a" unicode="a" horiz-adv-x="459" d="M452 40c-28 -19.333 -50.835 -33.333 -68.502 -42s-31.167 -13 -40.5 -13c-11.333 0 -20.666 8.5 -27.999 25.5s-11 40.167 -11 69.5v263c0 22 -5.66699 40.5 -17 55.5s-33 22.167 -65 21.5c-10.667 0 -21 -1.66699 -31 -5s-18.667 -7.83301 -26 -13.5 s-13.166 -12.5 -17.499 -20.5s-5.83301 -17 -4.5 -27c0 -3.33301 -3.5 -6.83301 -10.5 -10.5s-15.167 -7 -24.5 -10s-18.666 -5.33301 -27.999 -7s-16 -1.83398 -20 -0.500977l-7 19c7.33301 16 18.666 31.5 33.999 46.5s32.833 28.333 52.5 40s40.5 20.834 62.5 27.501 s43.333 10 64 10c36 0 63.5 -9.33301 82.5 -28s28.5 -45 28.5 -79v-275c0 -25.333 6.66699 -38 20 -38c4.66699 0 10.5 0.833008 17.5 2.5s17.167 5.16699 30.5 10.5zM245.998 227c-44.667 -8 -77 -22.498 -97 -43.498s-30 -44.833 -30 -71.5c0 -13.333 2 -24 6 -32 s8.66699 -14.333 14 -19s11.166 -7.83398 17.499 -9.50098s11.5 -2.5 15.5 -2.5c41.333 0 87 22 137 66l4 -36c-30.667 -33.333 -61.167 -57.333 -91.5 -72s-56.5 -22 -78.5 -22c-12 0 -24.167 2 -36.5 6s-23.5 10.167 -33.5 18.5s-18.167 19.166 -24.5 32.499 s-9.5 29.666 -9.5 48.999c0 38.667 13.833 72.834 41.5 102.501s68.834 50.167 123.501 61.5l154 31l5 -36z"/>
    <glyph glyph-name="b" unicode="b" horiz-adv-x="508" d="M463 240c0 -28 -5.50391 -57.1641 -16.5039 -87.4971s-26.5 -57.833 -46.5 -82.5s-44.5 -45 -73.5 -61s-61.5 -24 -97.5 -24c-12.667 0 -33.667 5.5 -63 16.5s-62 26.167 -98 45.5v586c0 14.667 -0.833008 26.167 -2.5 34.5s-4.66699 14.5 -9 18.5 s-10.666 6.66699 -18.999 8s-19.166 2.66602 -32.499 3.99902v20c21.333 5.33301 41.666 10.666 60.999 15.999s38.666 13 57.999 23l4.5 -4.5l5.5 -5.5c2.66699 -2.66699 5.33398 -5 8.00098 -7v-385c32.667 39.333 64.334 68.166 95.001 86.499s55.334 27.5 74.001 27.5 c22 0 42.333 -5.16699 61 -15.5s34.834 -25.333 48.501 -45s24.167 -43.667 31.5 -72s11 -60.5 11 -96.5zM397.996 199.003c0 32.667 -3.33496 61.6689 -10.002 87.002s-15.667 46.666 -27 63.999s-24.166 30.5 -38.499 39.5s-29.5 13.5 -45.5 13.5 c-6 0 -13.833 -1.66699 -23.5 -5s-20.5 -9 -32.5 -17s-24.833 -18.833 -38.5 -32.5s-27.167 -30.5 -40.5 -50.5v-199c12.667 -10 25.834 -18.167 39.501 -24.5s26.5 -11.333 38.5 -15s23 -6.33398 33 -8.00098s18 -2.5 24 -2.5c20 0 37.5 4.33301 52.5 13s27.5 20 37.5 34 s17.667 30 23 48s8 36.333 8 55z"/>
    <glyph glyph-name="c" unicode="c" horiz-adv-x="437" d="M410 93c-21.333 -25.333 -39.998 -45.166 -55.998 -59.499s-30.833 -25 -44.5 -32s-27 -11.5 -40 -13.5s-27.167 -3 -42.5 -3c-24 0 -47.167 5.33301 -69.5 16s-42.333 26 -60 46s-31.834 44.333 -42.501 73s-16 61 -16 97c0 34.667 6.33301 67.334 19 98.001 s30.334 57.5 53.001 80.5s49 41 79 54s62.667 19.5 98 19.5c10.667 0 21.667 -1 33 -3s22.166 -4.66699 32.499 -8s19.833 -7.33301 28.5 -12s15.667 -10 21 -16c0.666992 -4 0.166992 -9.5 -1.5 -16.5s-4 -14.5 -7 -22.5s-6.33301 -15.667 -10 -23 s-6.83398 -13.333 -9.50098 -18l-18 5c-2.66699 6 -7 12.5 -13 19.5s-13.5 13.5 -22.5 19.5s-20 11 -33 15s-27.833 6 -44.5 6c-17.333 0 -33.833 -3.83301 -49.5 -11.5s-29.667 -19.167 -42 -34.5s-22.166 -34.333 -29.499 -57s-11 -49.334 -11 -80.001 c0 -28 4.16699 -53.167 12.5 -75.5s19.5 -41.333 33.5 -57s30 -27.834 48 -36.501s36.667 -13 56 -13c9.33301 0 17.833 0.333008 25.5 1s16.167 3 25.5 7s20.166 10.333 32.499 19s27.5 20.667 45.5 36l19 -20v0z"/>
    <glyph glyph-name="d" unicode="d" horiz-adv-x="520" d="M513 41c-30 -20 -53.166 -34.332 -69.499 -42.999s-29.166 -13 -38.499 -13c-13.333 0 -23.5 11 -30.5 33s-10.5 60.333 -10.5 115v489c0 18 -0.5 32.333 -1.5 43s-3.66699 18.834 -8 24.501s-11.333 9.5 -21 11.5s-23.167 3.66699 -40.5 5v19 c26.667 3.33301 50.5 8.16602 71.5 14.499l57.5 17.5l15 -15v-618c0 -23.333 1 -40 3 -50s4.66699 -17.333 8 -22c3.33301 -3.33301 9.16602 -4.33301 17.499 -3s22.166 5.66602 41.499 12.999zM400.001 127.001l-46.9961 -58.501 c-14.667 -17.667 -29.834 -32.667 -45.501 -45s-31.834 -21.833 -48.501 -28.5s-35.334 -10 -56.001 -10c-18 0 -36.667 5.33301 -56 16s-37 26 -53 46s-29.167 44.333 -39.5 73s-15.5 61 -15.5 97c0 28 5.66699 56.833 17 86.5s27 56.834 47 81.501 s44.167 44.834 72.5 60.501s59.5 23.5 93.5 23.5c19.333 0 39 -3.5 59 -10.5s42.667 -23.167 68 -48.5c0 -10 -0.5 -18 -1.5 -24s-2.66699 -11.167 -5 -15.5s-5.33301 -8 -9 -11s-8.16699 -6.16699 -13.5 -9.5c-10 20.667 -25.167 36.667 -45.5 48s-42.833 17 -67.5 17 c-42 0 -76.167 -15.167 -102.5 -45.5s-39.5 -76.166 -39.5 -137.499c0 -28 4 -53.167 12 -75.5s18.167 -41.333 30.5 -57s26 -27.834 41 -36.501s29.167 -13 42.5 -13c12.667 0 25.167 2.83301 37.5 8.5s24.5 13.167 36.5 22.5s23.833 19.5 35.5 30.5l34.5 33.5 c4 -2 7.66699 -4.83301 11 -8.5s5.66602 -6.83398 6.99902 -9.50098z"/>
    <glyph glyph-name="e" unicode="e" horiz-adv-x="462" d="M423 272c-6 -6.66699 -13.8311 -12.6631 -23.498 -17.9961s-19.834 -10.333 -30.501 -15h-280l1 44h234c7.33301 0 12.333 1.16699 15 3.5s4 7.16602 4 14.499c0 8.66699 -1.33301 19.667 -4 33s-7.66699 26.166 -15 38.499s-17.5 23 -30.5 32s-30.167 13.5 -51.5 13.5 c-19.333 0 -37 -4.5 -53 -13.5s-29.667 -21.5 -41 -37.5s-20.166 -35 -26.499 -57s-9.5 -46 -9.5 -72c0 -24.667 3.33301 -48.334 10 -71.001s16.167 -42.667 28.5 -60s27.5 -31.166 45.5 -41.499s38.333 -15.5 61 -15.5c10 0 19.833 0.5 29.5 1.5s20 3.83301 31 8.5 s23.333 11.167 37 19.5s29.5 20.166 47.5 35.499c4 -2 7.66699 -5.16699 11 -9.5s5.66602 -7.83301 6.99902 -10.5c-22 -24 -41.167 -43.167 -57.5 -57.5s-31.833 -25.333 -46.5 -33s-29 -12.834 -43 -15.501s-29.333 -4 -46 -4c-25.333 0 -49.333 5.33301 -72 16 s-42.5 25.834 -59.5 45.501s-30.667 43.5 -41 71.5s-15.5 59.333 -15.5 94c0 44 9.5 85.5 28.5 124.5s45.5 70.167 79.5 93.5c14.667 10 32.167 19 52.5 27s39.166 12 56.499 12c32 0 58.667 -6.33301 80 -19s38.5 -28.834 51.5 -48.501s22.167 -41 27.5 -64 s8 -44.833 8 -65.5z"/>
    <glyph glyph-name="f" unicode="f" horiz-adv-x="311" d="M399 710c0 -2.66699 -2.33105 -6.66895 -6.99805 -12.002s-10.334 -10.666 -17.001 -15.999s-13.5 -10.5 -20.5 -15.5s-12.833 -8.5 -17.5 -10.5c-15.333 13.333 -30.833 23.5 -46.5 30.5s-27.834 10.5 -36.501 10.5s-17.834 -3 -27.501 -9s-18.667 -16.5 -27 -31.5 s-15.166 -35.5 -20.499 -61.5s-8 -59 -8 -99v-42h126l14 -14c-6 -9.33301 -14 -19 -24 -29s-18 -16.667 -24 -20c-7.33301 4 -18 7.83301 -32 11.5s-34 5.5 -60 5.5v-358c0 -4 7.5 -8 22.5 -12s41.5 -9.66699 79.5 -17v-21h-244v21c22.667 4 39.834 8.83301 51.501 14.5 s17.5 10.5 17.5 14.5v358h-66l-10 14l38 32h38v15c0 38.667 2.66699 71 8 97s12.333 48.167 21 66.5s18.834 33.5 30.501 45.5s24.167 23.333 37.5 34c8.66699 6.66699 18.167 12.834 28.5 18.501s20.666 10.5 30.999 14.5s20.166 7 29.499 9s17 3 23 3 c10 0 20.333 -2 31 -6s20.5 -8.5 29.5 -13.5s16.5 -10.167 22.5 -15.5s9 -9.33301 9 -12z"/>
    <glyph glyph-name="g" unicode="g" horiz-adv-x="488" d="M474 -59c0 -26.667 -7.49316 -51.333 -22.4932 -74s-34.167 -42.167 -57.5 -58.5s-49.666 -29.166 -78.999 -38.499s-58.333 -14 -87 -14c-22.667 0 -46.5 2.5 -71.5 7.5s-48 12.667 -69 23s-38.333 23.833 -52 40.5s-20.5 37 -20.5 61c0 8.66699 1.83301 18 5.5 28 s10.667 20.667 21 32s25.166 23.666 44.499 36.999s45 28.333 77 45c6.66699 -0.666992 12.667 -1.66699 18 -3c4.66699 -1.33301 9 -2.83301 13 -4.5s6.66699 -4.16699 8 -7.5c-26 -14 -46.667 -26.333 -62 -37s-26.833 -20.334 -34.5 -29.001s-12.5 -16.5 -14.5 -23.5 s-3 -13.167 -3 -18.5c0 -13.333 4.5 -26.166 13.5 -38.499s21.167 -23 36.5 -32s33.166 -16.167 53.499 -21.5s41.5 -8 63.5 -8c44 0 79.167 10.833 105.5 32.5s39.5 49.5 39.5 83.5c0 8.66699 -2.16699 17 -6.5 25s-12 15.167 -23 21.5s-26 11.833 -45 16.5 s-43.167 8.66699 -72.5 12c-32 4 -58.5 8.66699 -79.5 14s-37.833 11.333 -50.5 18s-21.5 13.834 -26.5 21.501s-7.5 15.5 -7.5 23.5c0 2.66699 1 6.5 3 11.5s6.16699 11.167 12.5 18.5s15.166 15.833 26.499 25.5s26.666 20.5 45.999 32.5l69 8 c-29.333 -19.333 -49.5 -36 -60.5 -50s-16.5 -22.333 -16.5 -25c0 -4 1.66699 -7.83301 5 -11.5s9.66602 -7.33398 18.999 -11.001s22.166 -7.16699 38.499 -10.5s37.166 -6.33301 62.499 -9c35.333 -4 64.666 -10 87.999 -18s41.833 -17.167 55.5 -27.5 s23.167 -21.333 28.5 -33s8 -23.167 8 -34.5zM483.007 454.001c-4 -9.33301 -7.83496 -17.834 -11.502 -25.501s-9.16699 -15.5 -16.5 -23.5c-17.333 -3.33301 -35.166 -5.66602 -53.499 -6.99902s-41.166 -1.66602 -68.499 -0.999023l-23 38 c43.333 2.66699 77.5 7.66699 102.5 15s45.167 13.666 60.5 18.999zM405.005 313c0 -25.333 -5.66797 -48.334 -17.001 -69.001s-26 -38.334 -44 -53.001s-38.5 -26.167 -61.5 -34.5s-46.5 -12.5 -70.5 -12.5c-23.333 0 -45 3.5 -65 10.5s-37.333 17 -52 30 s-26 28.833 -34 47.5s-12 39.334 -12 62.001c0 24 5.33301 46.667 16 68s24.834 39.833 42.501 55.5s37.667 28.167 60 37.5s45.5 14 69.5 14s46.167 -4.16699 66.5 -12.5s38 -19.666 53 -33.999s26.833 -31 35.5 -50s13 -38.833 13 -59.5zM337.004 292.999 c0 17.333 -2.83008 33.668 -8.49707 49.001s-14.167 28.666 -25.5 39.999s-25.333 20.333 -42 27s-36 10 -58 10c-8 0 -17 -2 -27 -6s-19.333 -10.167 -28 -18.5s-16 -18.5 -22 -30.5s-9 -26 -9 -42c0 -17.333 2.66699 -33.833 8 -49.5s13.5 -29.167 24.5 -40.5 s24.833 -20.333 41.5 -27s36.667 -10 60 -10c9.33301 0 19.166 2.16699 29.499 6.5s19.666 10.5 27.999 18.5s15.166 18.167 20.499 30.5s8 26.5 8 42.5z"/>
    <glyph glyph-name="h" unicode="h" horiz-adv-x="552" d="M327 0l0.00195312 20.999c46 12 69 22 69 30v258c0 20 -1.33301 36.167 -4 48.5s-6.5 22 -11.5 29s-11.5 11.833 -19.5 14.5s-17.333 4 -28 4c-22.667 0 -48.667 -11.333 -78 -34s-58.333 -57 -87 -103v-217c0 -5.33301 6.16699 -10.5 18.5 -15.5 s29.166 -9.83301 50.499 -14.5v-21h-210v21c21.333 5.33301 38 10.333 50 15s18 9.66699 18 15v583c0 13.333 -0.666992 23.833 -2 31.5s-4.16602 13.667 -8.49902 18s-11 7.33301 -20 9s-21.5 3.5 -37.5 5.5v20c27.333 4.66699 50 10 68 16s36.333 13.667 55 23l18 -17 v-406c14 20.667 29.667 39.334 47 56.001s34.666 30.834 51.999 42.501s34.166 20.667 50.499 27s30.833 9.5 43.5 9.5c14 0 27.5 -2.16699 40.5 -6.5s24.5 -10.833 34.5 -19.5s18 -19.834 24 -33.501s9 -29.5 9 -47.5v-311c0 -4.66699 5 -9.16699 15 -13.5 s27.667 -9.83301 53 -16.5v-21h-210z"/>
    <glyph glyph-name="i" unicode="i" horiz-adv-x="271" d="M190 616c0 -18.667 -5.33301 -34.501 -16 -47.501s-24 -19.5 -40 -19.5c-27.333 0 -41 15.667 -41 47c0 18.667 5.5 34.334 16.5 47.001s24.167 19 39.5 19c27.333 0 41 -15.333 41 -46zM34 -0.000976562l-0.00195312 21.001c22 4.66699 39 9.66699 51 15 s18 10.333 18 15v276c0 16.667 -0.333008 30.167 -1 40.5s-3.16699 18.333 -7.5 24s-11.166 9.83398 -20.499 12.501s-22.666 4.66699 -39.999 6v20c20.667 3.33301 42.5 8.66602 65.5 15.999s42.833 15 59.5 23h17v-418c0 -4 5.5 -8.83301 16.5 -14.5 s28.167 -10.834 51.5 -15.501v-21h-210z"/>
    <glyph glyph-name="j" unicode="j" horiz-adv-x="259" d="M178 616c0 -18.667 -5.33301 -34.501 -16 -47.501s-24 -19.5 -40 -19.5c-27.333 0 -41 15.667 -41 47c0 18.667 5.5 34.334 16.5 47.001s24.167 19 39.5 19c27.333 0 41 -15.333 41 -46zM164 47.999c0 -37.333 -2.33008 -69 -6.99707 -95s-11.334 -48.333 -20.001 -67 s-18.667 -34.167 -30 -46.5s-23.333 -23.833 -36 -34.5c-17.333 -14 -36.333 -25.667 -57 -35s-37.334 -14 -50.001 -14c-10 0 -19.833 1.33301 -29.5 4s-18.334 5.66699 -26.001 9s-13.834 7 -18.501 11s-7 7.33301 -7 10s2.33301 6.5 7 11.5s10.334 10.333 17.001 16 s13.5 11 20.5 16s12.833 8.5 17.5 10.5c10.667 -9.33301 21.5 -15.333 32.5 -18s22.5 -4 34.5 -4c9.33301 0 18.666 3 27.999 9s17.666 16.5 24.999 31.5s13.333 35.333 18 61s7 58.167 7 97.5v306c0 16.667 -0.333008 30 -1 40s-3.16699 18 -7.5 24 s-11.166 10.167 -20.499 12.5s-22.333 4.5 -39 6.5v20c13.333 2 25.333 4.5 36 7.5s20.834 6 30.501 9s19 6.5 28 10.5s18.833 8 29.5 12h18v-421z"/>
    <glyph glyph-name="k" unicode="k" horiz-adv-x="500" d="M483 433c-14.667 -1.33301 -28 -3.83301 -40 -7.5s-24.667 -11.167 -38 -22.5l-199 -161l-38 15l151 133c10.667 9.33301 17.167 16.833 19.5 22.5s2 10 -1 13s-8.16699 5 -15.5 6s-15.333 1.5 -24 1.5v21h185v-21zM27 0l-0.000976562 21.002 c21.333 5.33301 38 10.166 50 14.499s18 9.5 18 15.5v582c0 14.667 -1 26.167 -3 34.5s-5.5 14.5 -10.5 18.5s-11.833 6.66699 -20.5 8s-20 2.66602 -34 3.99902v20c22.667 4.66699 44.834 10 66.501 16s40.5 13.667 56.5 23l18 -17v-689c0 -2.66699 0.5 -5 1.5 -7 s3.5 -4 7.5 -6s9.5 -4.33301 16.5 -7s16.5 -6 28.5 -10v-21h-195zM499.999 9.00195c-19.333 -4.66699 -37.335 -8.16699 -54.002 -10.5s-28.667 -3.5 -36 -3.5c-13.333 0 -24.166 2 -32.499 6s-16.166 10.667 -23.499 20l-185 236l51 37l202 -240 c9.33301 -10.667 19.333 -17.667 30 -21s25.667 -4.33301 45 -3z"/>
    <glyph glyph-name="l" unicode="l" horiz-adv-x="271" d="M29 0v21c28 5.33301 47.333 10.333 58 15s16 9.66699 16 15v582c0 14.667 -1 26 -3 34s-5.66699 14 -11 18s-12.333 6.83301 -21 8.5s-20 3.16699 -34 4.5v20c23.333 4.66699 44.833 9.66699 64.5 15s39.5 13.333 59.5 24l18 -17v-689c0 -5.33301 5.5 -10.5 16.5 -15.5 s29.833 -9.83301 56.5 -14.5v-21h-220z"/>
    <glyph glyph-name="m" unicode="m" horiz-adv-x="803" d="M579 0l0.00390625 21c45.333 11.333 68 21.333 68 30v258c0 40 -4.33301 66.833 -13 80.5s-22.667 20.5 -42 20.5c-21.333 0 -45 -11.5 -71 -34.5s-51.667 -54.833 -77 -95.5v-229c0 -4.66699 5.16699 -9.16699 15.5 -13.5s28.166 -9.83301 53.499 -16.5v-21h-210v21 c45.333 11.333 68 21.333 68 30v258c0 40 -4.16699 66.833 -12.5 80.5s-22.5 20.5 -42.5 20.5c-22 0 -45.167 -11.333 -69.5 -34s-50.5 -54.667 -78.5 -96v-229c0 -5.33301 6.16699 -10.5 18.5 -15.5s29.166 -9.83301 50.499 -14.5v-21h-210v21 c21.333 5.33301 38 10.333 50 15s18 9.66699 18 15v296c0 12.667 -0.666992 22.834 -2 30.501s-4.16602 13.667 -8.49902 18s-11 7.33301 -20 9s-21.5 3.5 -37.5 5.5v20c24.667 3.33301 46 8.5 64 15.5s35.667 14.833 53 23.5l17 -17l6 -112 c29.333 43.333 59 75.666 89 96.999s56.667 32 80 32c15.333 0 29.666 -2 42.999 -6s24.833 -10.5 34.5 -19.5s17.167 -20.833 22.5 -35.5s8 -33 8 -55v-9c28 40.667 57 71.667 87 93s57 32 81 32c31.333 0 57.166 -8.66699 77.499 -26s30.5 -44.333 30.5 -81v-311 c0 -4.66699 5.16699 -9.16699 15.5 -13.5s28.166 -9.83301 53.499 -16.5v-21h-210z"/>
    <glyph glyph-name="n" unicode="n" horiz-adv-x="552" d="M327 0l0.000976562 21c46 12 69 22 69 30v258c0 20 -1.16699 36.167 -3.5 48.5s-6 22 -11 29s-11.5 11.833 -19.5 14.5s-17.667 4 -29 4c-20 0 -44.5 -10.167 -73.5 -30.5s-59.5 -55.833 -91.5 -106.5v-217c0 -5.33301 6.16699 -10.5 18.5 -15.5 s29.166 -9.83301 50.499 -14.5v-21h-210v21c21.333 5.33301 38 10.333 50 15s18 9.66699 18 15v296c0 12.667 -0.5 22.834 -1.5 30.501s-3.66699 13.5 -8 17.5s-11 7 -20 9s-21.833 4 -38.5 6v20c22 3.33301 42.5 8.33301 61.5 15s37.5 14.667 55.5 24l17 -17l6 -122 c14 22 29.667 41.5 47 58.5s34.666 31.5 51.999 43.5s34.333 21.167 51 27.5s31.334 9.5 44.001 9.5c14 0 27.5 -2.16699 40.5 -6.5s24.5 -10.833 34.5 -19.5s18 -19.834 24 -33.501s9 -29.5 9 -47.5v-311c0 -4.66699 5 -9.16699 15 -13.5s27.667 -9.83301 53 -16.5v-21 h-210z"/>
    <glyph glyph-name="o" unicode="o" horiz-adv-x="503" d="M464 237c0 -32.667 -6 -64.168 -18 -94.501s-28.167 -57.166 -48.5 -80.499s-43.833 -42 -70.5 -56s-55 -21 -85 -21c-30.667 0 -58.5 5.83301 -83.5 17.5s-46.333 27.834 -64 48.501s-31.334 45.167 -41.001 73.5s-14.5 59.166 -14.5 92.499 c0 32 5.83301 63.167 17.5 93.5s27.5 57.333 47.5 81s43.5 42.5 70.5 56.5s55.833 21 86.5 21s58.5 -5.83301 83.5 -17.5s46.333 -27.834 64 -48.501s31.334 -45.167 41.001 -73.5s14.5 -59.166 14.5 -92.499zM389 221.999c0 26 -4.33301 50.667 -13 74 s-19.667 43.833 -33 61.5s-28.5 31.667 -45.5 42s-33.833 15.5 -50.5 15.5c-24.667 0 -45.5 -4.66699 -62.5 -14s-30.667 -22.333 -41 -39s-17.833 -36.167 -22.5 -58.5s-7 -46.5 -7 -72.5s4.5 -50.5 13.5 -73.5s20.5 -43.333 34.5 -61s29.333 -31.667 46 -42 s32.667 -15.5 48 -15.5c46 0 79.667 16.5 101 49.5s32 77.5 32 133.5z"/>
    <glyph glyph-name="p" unicode="p" horiz-adv-x="530" d="M490 240c0 -28 -5.16992 -57.166 -15.5029 -87.499s-24.166 -57.833 -41.499 -82.5s-37.166 -45 -59.499 -61s-45.5 -24 -69.5 -24c-19.333 0 -41 5.5 -65 16.5s-47.667 26.5 -71 46.5v-231c0 -5.33301 6.16699 -10.5 18.5 -15.5s33.833 -9.83301 64.5 -14.5v-21h-224v21 c21.333 5.33301 38 10.333 50 15s18 9.66699 18 15v530c0 12 -0.666992 22 -2 30s-4.33301 14.333 -9 19s-11.5 8 -20.5 10s-21.167 3.33301 -36.5 4v20c22.667 4.66699 43 10 61 16s36.667 13.667 56 23l17 -17l5 -97c32 39.333 63.833 68.166 95.5 86.499 s56.834 27.5 75.501 27.5c22 0 42.5 -5.16699 61.5 -15.5s35.167 -25.333 48.5 -45s23.833 -43.667 31.5 -72s11.5 -60.5 11.5 -96.5zM424.997 208.001c0 28.667 -3.33203 55.167 -9.99902 79.5s-15.667 45.333 -27 63s-24.166 31.5 -38.499 41.5s-29.5 15 -45.5 15 c-6 0 -13.667 -1.66699 -23 -5s-20 -9.33301 -32 -18s-24.833 -20 -38.5 -34s-27.834 -31.333 -42.501 -52v-194c30 -22 55.667 -36.667 77 -44s40.666 -11 57.999 -11c35.333 0 64.5 13.5 87.5 40.5s34.5 66.5 34.5 118.5z"/>
    <glyph glyph-name="q" unicode="q" horiz-adv-x="515" d="M281 -234l0.000976562 21.002c30.667 4.66699 52.167 9.5 64.5 14.5s18.5 10.167 18.5 15.5v597c5.33301 2 11.333 5.16699 18 9.5s13.5 9.16602 20.5 14.499s13.5 10.833 19.5 16.5l15 14.5l15 -15c-2.66699 -8.66699 -5.33398 -18.667 -8.00098 -30 c-2 -9.33301 -3.66699 -20.333 -5 -33s-2 -26.334 -2 -41.001v-533c0 -5.33301 5 -10.5 15 -15.5s27.667 -9.83301 53 -14.5v-21h-224zM400.001 127.002l-46.9961 -58.499c-14.667 -17.667 -29.834 -32.667 -45.501 -45s-31.834 -21.833 -48.501 -28.5 s-35.334 -10 -56.001 -10c-18 0 -36.667 5.33301 -56 16s-37 26 -53 46s-29.167 44.333 -39.5 73s-15.5 61 -15.5 97c0 28.667 4.5 55 13.5 79s20.167 45.333 33.5 64s27.5 34.5 42.5 47.5s28.167 22.833 39.5 29.5c18.667 10 37 17.833 55 23.5s33.333 8.5 46 8.5 c19.333 0 39 -3.5 59 -10.5s42.667 -23.167 68 -48.5c0 -10 -0.5 -18 -1.5 -24s-2.66699 -11.167 -5 -15.5s-5.33301 -8 -9 -11s-8.16699 -6.16699 -13.5 -9.5c-10 20.667 -25.167 36.834 -45.5 48.501s-42.833 17.5 -67.5 17.5c-18 0 -35.667 -3.83301 -53 -11.5 s-32.5 -19.167 -45.5 -34.5s-23.5 -34.5 -31.5 -57.5s-12 -49.833 -12 -80.5c0 -28 4 -53.167 12 -75.5s18.167 -41.333 30.5 -57s26 -27.834 41 -36.501s29.167 -13 42.5 -13c12.667 0 25.167 2.83301 37.5 8.5s24.5 13.167 36.5 22.5s23.833 19.5 35.5 30.5l34.5 33.5 c4 -2 7.66699 -4.83301 11 -8.5s5.66602 -6.83398 6.99902 -9.50098z"/>
    <glyph glyph-name="r" unicode="r" horiz-adv-x="396" d="M376 451c2.66699 -2 4.00293 -7.8291 4.00293 -17.4961s-1.33301 -20.667 -4 -33s-5.83398 -25 -9.50098 -38s-7.5 -23.833 -11.5 -32.5h-21c-4 26.667 -11 45 -21 55s-21 15 -33 15c-14.667 0 -33 -12.5 -55 -37.5s-41 -65.167 -57 -120.5v-191 c0 -5.33301 6.16699 -10.5 18.5 -15.5s33.833 -9.83301 64.5 -14.5v-21h-224v21c21.333 5.33301 38 10.333 50 15s18 9.66699 18 15v284c0 21.333 -1 36.166 -3 44.499s-4.66699 14.166 -8 17.499c-4.66699 4.66699 -10.834 7.66699 -18.501 9s-20.5 2.66602 -38.5 3.99902 v20c21.333 5.33301 42.166 10.833 62.499 16.5s38.5 13.167 54.5 22.5l17 -17l6 -111c18 36 38.667 66.333 62 91s49 37 77 37c10.667 0 22 -1.33301 34 -4s24 -7.33398 36 -14.001z"/>
    <glyph glyph-name="s" unicode="s" horiz-adv-x="386" d="M342 138c0 -34.667 -7.00586 -62.167 -21.0059 -82.5s-30.333 -35.666 -49 -45.999s-37.334 -17 -56.001 -20s-32.667 -4.5 -42 -4.5c-15.333 0 -34.166 3 -56.499 9s-44.166 15 -65.499 27c-2 0.666992 -3.5 5.83398 -4.5 15.501s-1.33301 20.834 -1 33.501 s1.33301 25.334 3 38.001s3.5 22.667 5.5 30l21 -5c0.666992 -14 4.33398 -27 11.001 -39s15.334 -22.5 26.001 -31.5s23.334 -16.167 38.001 -21.5s30.334 -8 47.001 -8c23.333 0 42.5 7.16699 57.5 21.5s22.5 33.166 22.5 56.499c0 12.667 -3.5 24 -10.5 34 s-16.167 19.167 -27.5 27.5s-24.333 16.166 -39 23.499l-44 23c-13.333 6.66699 -26.333 14 -39 22s-24 16.833 -34 26.5s-18 20.667 -24 33s-9 26.166 -9 41.499c0 20 4 38 12 54s18.833 29.333 32.5 40s29.167 18.834 46.5 24.501s35.333 8.5 54 8.5 c10 0 21.167 -0.833008 33.5 -2.5s24.333 -4.16699 36 -7.5s22.667 -7.33301 33 -12s18.833 -10 25.5 -16c2 -2 2.16699 -6.33301 0.5 -13s-4 -14 -7 -22s-6.16699 -15.667 -9.5 -23s-6 -12.333 -8 -15l-19 4c-15.333 23.333 -31.5 39.666 -48.5 48.999s-33.5 14 -49.5 14 c-21.333 0 -38.166 -6.5 -50.499 -19.5s-18.5 -26.167 -18.5 -39.5c0 -10.667 3.16699 -20.167 9.5 -28.5s14.5 -16 24.5 -23s21.5 -13.833 34.5 -20.5l39.5 -21l42.5 -23c14.333 -8 27.333 -17.333 39 -28s21 -22.834 28 -36.501s10.5 -29.5 10.5 -47.5z"/>
    <glyph glyph-name="t" unicode="t" horiz-adv-x="344" d="M330 57c-32 -23.333 -62.666 -41.166 -91.999 -53.499s-52.666 -18.5 -69.999 -18.5c-22.667 0 -42.5 9.16699 -59.5 27.5s-25.5 50.166 -25.5 95.499v300h-63l-10 14l38 32h35v120l58 51l15 -12v-159h160l14 -14c-6 -9.33301 -14 -19 -24 -29s-18.333 -16.667 -25 -20 c-8 4 -20 7.83301 -36 11.5s-37 5.5 -63 5.5h-26v-258c0 -19.333 1 -35.5 3 -48.5s5 -23.333 9 -31s9.33301 -13 16 -16s15 -4.5 25 -4.5c11.333 0 25.666 2 42.999 6s38.666 12.667 63.999 26l14 -25v0z"/>
    <glyph glyph-name="u" unicode="u" horiz-adv-x="530" d="M522 40c-24 -15.333 -45.8281 -28.332 -65.4951 -38.999s-33.5 -16 -41.5 -16c-11.333 0 -20.666 7.5 -27.999 22.5s-11.666 39.5 -12.999 73.5c-20.667 -20 -39.334 -36.333 -56.001 -49s-32.167 -22.5 -46.5 -29.5s-27.333 -11.667 -39 -14s-22.834 -3.5 -33.501 -3.5 c-15.333 0 -29.833 2.16699 -43.5 6.5s-26 12.166 -37 23.499s-19.667 26.666 -26 45.999s-9.5 44.333 -9.5 75v211c0 15.333 -0.5 27.333 -1.5 36s-3.5 15.334 -7.5 20.001s-10.333 7.83398 -19 9.50098s-20.334 3.16699 -35.001 4.5v20c23.333 2.66699 44.333 6.5 63 11.5 s38.667 11.833 60 20.5l13 -19v-287c0 -45.333 6.66699 -76.5 20 -93.5s31.666 -25.5 54.999 -25.5c21.333 0 43.166 6.33301 65.499 19s48.166 34.334 77.499 65.001v219c0 14.667 -0.833008 26.5 -2.5 35.5s-4.83398 15.833 -9.50098 20.5s-11.667 8 -21 10 s-21.333 3.33301 -36 4v20c23.333 2.66699 45.833 7.16699 67.5 13.5s41.5 12.5 59.5 18.5l15 -19v-326c0 -20 0.666992 -36.333 2 -49s4.33301 -20.667 9 -24c4 -2.66699 10.667 -3.33398 20 -2.00098s22.333 5.66602 39 12.999l5 -22v0z"/>
    <glyph glyph-name="v" unicode="v" horiz-adv-x="493" d="M483 433c-19.333 -4.66699 -32.3311 -8.99902 -38.998 -12.999s-11.667 -10.667 -15 -20l-138 -371c-2.66699 -7.33301 -6.83398 -13.5 -12.501 -18.5s-11.834 -9.33301 -18.501 -13s-13.167 -6.5 -19.5 -8.5s-11.5 -3.33301 -15.5 -4l-161 415 c-3.33301 9.33301 -9.16602 16.333 -17.499 21s-20.5 8.66699 -36.5 12v21h188v-21c-25.333 -3.33301 -41.833 -7 -49.5 -11s-9.5 -11.333 -5.5 -22l120 -313l113 313c3.33301 10 1.66602 17.167 -5.00098 21.5s-22 8.16602 -46 11.499v21h158v-21v0z"/>
    <glyph glyph-name="w" unicode="w" horiz-adv-x="706" d="M696 433c-20 -4.66699 -32.665 -9 -37.998 -13s-9 -9.66699 -11 -17l-108 -374c-2 -7.33301 -5.83301 -13.5 -11.5 -18.5s-11.834 -9.33301 -18.501 -13s-13.5 -6.5 -20.5 -8.5s-12.5 -3.33301 -16.5 -4l-124 355l4 114h31l127 -361l84 310 c2 7.33301 -1.33301 13.333 -10 18s-24.334 8.66699 -47.001 12v21h159v-21zM256.002 29c-2.66699 -7.33301 -6.66699 -13.6689 -12 -19.002s-11.333 -9.66602 -18 -12.999s-13.167 -6 -19.5 -8s-11.5 -3.33301 -15.5 -4l-128 418c-3.33301 12.667 -21 22.667 -53 30v21h188 v-21c-16 -1.33301 -28.333 -3.16602 -37 -5.49902s-15 -4.83301 -19 -7.5s-6.16699 -5.5 -6.5 -8.5s0.166992 -5.83301 1.5 -8.5l92 -310l120 361h27l10 -51z"/>
    <glyph glyph-name="x" unicode="x" horiz-adv-x="503" d="M486 433c-26.667 -2 -47.166 -6.83301 -61.499 -14.5s-25.833 -17.5 -34.5 -29.5l-120 -169l-26 38l92 132c11.333 16 13.166 26.667 5.49902 32s-21.5 9 -41.5 11v21h186v-21zM300.001 0v21.001c8 0.666992 15.667 1.66699 23 3s13 3.5 17 6.5s6 7.16699 6 12.5 s-3.33301 12.333 -10 21l-238 325c-4 6 -8.16699 11.5 -12.5 16.5s-9.5 9.33301 -15.5 13s-13.333 6.66699 -22 9s-19.667 4.16602 -33 5.49902v21h205v-21c-20 -2 -34.167 -5.83301 -42.5 -11.5s-6.83301 -16.167 4.5 -31.5l236 -323 c7.33301 -9.33301 16.833 -18.5 28.5 -27.5s28.167 -15.167 49.5 -18.5v-21h-196zM147.001 64.001c-6 -8.66699 -8.33008 -15.667 -6.99707 -21s4.66602 -9.5 9.99902 -12.5s12.166 -5.16699 20.499 -6.5s16.5 -2.33301 24.5 -3v-21h-185v21c26 4 44.667 10.167 56 18.5 s20.666 17.5 27.999 27.5l125 174l25 -39z"/>
    <glyph glyph-name="y" unicode="y" horiz-adv-x="493" d="M483 433c-19.333 -4.66699 -32.335 -8.99609 -39.002 -12.9961s-11.667 -10.667 -15 -20l-163 -440c-13.333 -36 -28.5 -66.833 -45.5 -92.5s-34.5 -46.834 -52.5 -63.501s-36.167 -28.834 -54.5 -36.501s-35.5 -11.5 -51.5 -11.5c-25.333 0 -45.833 2.83301 -61.5 8.5 s-23.5 11.5 -23.5 17.5c0 2 2 6 6 12s8.83301 12.5 14.5 19.5s11.834 13.667 18.501 20s12.667 11.166 18 14.499c15.333 -9.33301 30.833 -14.333 46.5 -15s29.5 1.33301 41.5 6c6 2 12.833 6.5 20.5 13.5s15.5 15.833 23.5 26.5s15.833 22.5 23.5 35.5 s14.5 26.5 20.5 40.5l14 34l-160 411c-3.33301 9.33301 -9.16602 16.333 -17.499 21s-20.5 8.66699 -36.5 12v21h188v-21c-25.333 -3.33301 -41.833 -7 -49.5 -11s-9.5 -11.333 -5.5 -22l120 -311l113 311c3.33301 10 0.833008 17.167 -7.5 21.5s-24.5 8.16602 -48.5 11.499 v21h163v-21z"/>
    <glyph glyph-name="z" unicode="z" horiz-adv-x="442" d="M405 121c0 -10 -0.166992 -21 -0.5 -33l-1 -34.5c-0.333008 -11 -1 -21.167 -2 -30.5l-2.5 -23h-349l-13 22l271 388h-169c-10.667 0 -21.167 -4.66699 -31.5 -14s-18.833 -29 -25.5 -59l-24 6l9 119c6.66699 -2 13 -3.5 19 -4.5s12.167 -1.83301 18.5 -2.5 s13.333 -1 21 -1h27.5h240l11 -21l-272 -389h206c8 0 15.5 6.16699 22.5 18.5s14.167 33.5 21.5 63.5l23 -5v0z"/>
    <glyph glyph-name="braceleft" unicode="{" horiz-adv-x="336" d="M317 758c-25.333 -15.333 -46.666 -35.167 -63.999 -59.5s-26 -53.5 -26 -87.5c0 -18.667 1 -34 3 -46s4.33301 -23.333 7 -34s5 -22 7 -34s3 -27.333 3 -46c0 -28 -7.66699 -54 -23 -78s-37 -42 -65 -54c32.667 -6 55.5 -20.333 68.5 -43s19.5 -52 19.5 -88 c0 -19.333 -1 -35.833 -3 -49.5s-4.33301 -26.5 -7 -38.5s-5 -24.167 -7 -36.5s-3 -26.5 -3 -42.5c0 -18 1.16699 -33.833 3.5 -47.5s6.66602 -26.167 12.999 -37.5s15 -21.833 26 -31.5s25.167 -19.167 42.5 -28.5l-11 -30c-27.333 10.667 -50.833 22.167 -70.5 34.5 s-35.667 26 -48 41s-21.5 31.833 -27.5 50.5s-9 39.667 -9 63c0 19.333 1 35.333 3 48s4.33301 24.667 7 36s5 23.666 7 36.999s3 30 3 50c0 26.667 -6.66699 46.667 -20 60s-32 20 -56 20h-10c-2 0 -3.83301 -0.166992 -5.5 -0.5s-3.66699 -0.666016 -6 -0.999023 l-10.5 -1.5l-8 26c38 10 66.833 25.167 86.5 45.5s29.5 42.5 29.5 66.5c0 20 -1 35.833 -3 47.5s-4.33301 22.667 -7 33s-5 21.5 -7 33.5s-3 28 -3 48c0 44 14.167 82.5 42.5 115.5s66.833 60.5 115.5 82.5l13 -23v0z"/>
    <glyph glyph-name="bar" unicode="|" horiz-adv-x="229" d="M156 -172c-5.33301 -5.33301 -13.167 -10.167 -23.5 -14.5l-27.5 -11.5l-17 11v979l25.5 14c7.66699 4 16.167 7 25.5 9l17 -10v-977v0z"/>
    <glyph glyph-name="braceright" unicode="}" horiz-adv-x="336" d="M287 318c-38.667 -10 -67.665 -24.832 -86.998 -44.499s-29 -42.167 -29 -67.5c0 -20 1 -35.833 3 -47.5s4.16699 -22.5 6.5 -32.5s4.5 -21 6.5 -33s3 -28 3 -48c0 -44 -14.167 -82.667 -42.5 -116s-66.833 -61 -115.5 -83l-13 24c25.333 16 46.666 36 63.999 60 s26 53 26 87c0 18.667 -1 34 -3 46s-4.16699 23.333 -6.5 34s-4.5 22 -6.5 34s-3 27.667 -3 47c0 27.333 7.66699 52.833 23 76.5s37 41.5 65 53.5c-33.333 6.66699 -56.333 21.334 -69 44.001s-19 52 -19 88c0 19.333 1 35.833 3 49.5s4.16699 26.5 6.5 38.5s4.5 24 6.5 36 s3 26 3 42c0 18.667 -1.16699 35 -3.5 49s-6.83301 26.5 -13.5 37.5s-15.5 21.167 -26.5 30.5s-24.833 18.666 -41.5 27.999l11 30c54.667 -21.333 94.167 -46.333 118.5 -75s36.5 -66.334 36.5 -113.001c0 -19.333 -1 -35.333 -3 -48s-4.16699 -24.667 -6.5 -36 s-4.5 -23.666 -6.5 -36.999s-3 -30 -3 -50c0 -53.333 25.333 -80 76 -80h9h5.5c1.66699 0 3.66699 0.166992 6 0.5s6.16602 1.16602 11.499 2.49902l8 -27v0z"/>
    <glyph glyph-name="asciitilde" unicode="~" horiz-adv-x="488" d="M464 378c-6.66699 -16 -15.1689 -32.5 -25.502 -49.5s-22 -32.667 -35 -47s-27 -26 -42 -35s-30.167 -13.5 -45.5 -13.5c-14 0 -28.667 4 -44 12s-30.833 17 -46.5 27s-31.167 19 -46.5 27s-30 12 -44 12c-30.667 0 -59 -26.333 -85 -79l-26 13 c6.66699 16 15.334 32.5 26.001 49.5s22.5 32.667 35.5 47s26.833 26 41.5 35s29.667 13.5 45 13.5c14.667 0 30 -4 46 -12s31.667 -17 47 -27s30.333 -19 45 -27s28.667 -12 42 -12c30.667 0 59.334 26 86.001 78l26 -12v0z"/>
    <glyph glyph-name="cent" unicode="" d="M276 -4c-6 -5.33301 -10.835 -8.66699 -14.502 -10s-9.5 -3.33301 -17.5 -6l-12 12v601c4.66699 2.66699 7.83398 4.66699 9.50098 6s3.33398 2.5 5.00098 3.5s3.5 1.83301 5.5 2.5s5.66699 1.66699 11 3l13 -11v-601zM421.998 170.999 c-21.333 -25.333 -39.9971 -45.166 -55.9971 -59.499s-30.833 -25 -44.5 -32s-27 -11.5 -40 -13.5s-27.167 -3 -42.5 -3c-23.333 0 -46.333 4.83301 -69 14.5s-42.834 23.834 -60.501 42.501s-31.834 42 -42.501 70s-16 60 -16 96c0 34.667 6.33301 66.667 19 96 s30.334 54.833 53.001 76.5s49 38.5 79 50.5s62.667 18 98 18c10.667 0 21.667 -0.833008 33 -2.5s22.166 -4.33398 32.499 -8.00098s19.833 -7.83398 28.5 -12.501s15.667 -10 21 -16c0.666992 -4 0.166992 -9.5 -1.5 -16.5s-4 -14.5 -7 -22.5s-6.33301 -15.667 -10 -23 s-6.83398 -13 -9.50098 -17l-17 5c-3.33301 6 -7.83301 12.5 -13.5 19.5s-13.167 13.5 -22.5 19.5s-20.5 11 -33.5 15s-27.833 6 -44.5 6c-17.333 0 -33.833 -3.33301 -49.5 -10s-29.5 -17 -41.5 -31s-21.667 -32 -29 -54s-11 -48 -11 -78c0 -28 4.16699 -52.833 12.5 -74.5 s19.333 -39.667 33 -54s29.5 -25.333 47.5 -33s36.667 -11.5 56 -11.5c9.33301 0 18 0.333008 26 1s16.667 3 26 7s20 10.333 32 19s27 20.667 45 36z"/>
    <glyph glyph-name="dieresis" unicode="" horiz-adv-x="391" d="M146 616c0 -18.667 -5.33301 -34.501 -16 -47.501s-24 -19.5 -40 -19.5c-27.333 0 -41 15.667 -41 47c0 18.667 5.5 34.334 16.5 47.001s24.167 19 39.5 19c27.333 0 41 -15.333 41 -46zM342 615.999c0 -18.667 -5.5 -34.501 -16.5 -47.501s-24.5 -19.5 -40.5 -19.5 c-27.333 0 -41 15.667 -41 47c0 18.667 5.5 34.334 16.5 47.001s24.167 19 39.5 19c28 0 42 -15.333 42 -46z"/>
    <glyph glyph-name="acute" unicode="" horiz-adv-x="340" d="M136 519h-41l151 152c15.333 15.333 29.666 23 42.999 23c22.667 0 34.334 -10.667 35.001 -32c0 -16 -10 -30.667 -30 -44z"/>
    <glyph glyph-name="periodcentered" unicode="" horiz-adv-x="146" d="M122 352c0 -18.667 -5.33105 -34.501 -15.998 -47.501s-24.334 -19.5 -41.001 -19.5c-27.333 0 -41 15.667 -41 47c0 18.667 5.66699 34.334 17 47.001s24.666 19 39.999 19c27.333 0 41 -15.333 41 -46z"/>
    <glyph glyph-name="cedilla" unicode="" horiz-adv-x="229" d="M199 -112c0 -24 -11.499 -45.5 -34.499 -64.5s-61.5 -32.5 -115.5 -40.5l-11 24c34 6 58.167 14.5 72.5 25.5s21.5 21.833 21.5 32.5c0 11.333 -4.33301 19.166 -13 23.499s-23 7.5 -43 9.5l5 14c2.66699 7.33301 6.16699 18 10.5 32s11.166 35 20.499 63l38 -1l-19 -57 c17.333 -3.33301 33 -9.66602 47 -18.999s21 -23.333 21 -42z"/>
    <glyph glyph-name="questiondown" unicode="" horiz-adv-x="433" d="M286 414c0 -22 -6.66699 -40.833 -20 -56.5s-29.333 -23.5 -48 -23.5c-32 0 -48 18.667 -48 56c0 22 6.33301 40.667 19 56s28.667 23 48 23c32.667 0 49 -18.333 49 -55zM394 -114c0 -23.333 -5.66992 -44.668 -17.0029 -64.001s-26.5 -36 -45.5 -50 s-40.833 -25 -65.5 -33s-50.667 -12 -78 -12c-48 0 -84.833 14.167 -110.5 42.5s-38.5 65.166 -38.5 110.499c0 24.667 3.83301 46.667 11.5 66s17.334 37.5 29.001 54.5s24.334 33.333 38.001 49s26.667 31.667 39 48s22.833 33.833 31.5 52.5s14 39.334 16 62.001l3 47 c5.33301 5.33301 10.5 9.33301 15.5 12s11.833 5.33398 20.5 8.00098l13 -10l3 -57c1.33301 -18.667 -1.16699 -37.167 -7.5 -55.5s-14.666 -36.333 -24.999 -54s-21.666 -35.167 -33.999 -52.5s-23.833 -34.333 -34.5 -51s-19.667 -33.167 -27 -49.5 s-11 -32.166 -11 -47.499c0 -40 9.16699 -71.5 27.5 -94.5s44.5 -34.5 78.5 -34.5c12 0 23.333 2.66699 34 8s20 12.5 28 21.5s14.333 19.333 19 31s7 23.834 7 36.501c0 5.33301 -0.666992 10.166 -2 14.499s-3 8.83301 -5 13.5c11.333 6 22.666 10.333 33.999 13 s24.333 4.66699 39 6l13 -15c0.666992 -2.66699 1 -5.33398 1 -8.00098v-8z"/>
    <glyph glyph-name="multiply" unicode="" horiz-adv-x="410" d="M364 137c-6.66699 -3.33301 -14.333 -6.33301 -23 -9s-16 -4.66699 -22 -6l-273 273v16c14.667 6.66699 29.667 11.667 45 15l273 -273v-16zM45.001 153l273 273c16 -3.33301 31.333 -8.33301 46 -15v-16l-273 -273c-6 1.33301 -13.333 3.33301 -22 6 s-16.667 5.66699 -24 9v16z"/>
    <glyph glyph-name="divide" unicode="" horiz-adv-x="410" d="M380 290c-1.33301 -6.66699 -3.5 -14.168 -6.5 -22.501s-5.83301 -15.166 -8.5 -20.499h-323l-12 12c3.33301 14 8.33301 28.333 15 43h323zM244 399.999c0 -14 -4.33301 -26.333 -13 -37s-19.334 -16 -32.001 -16c-22 0 -33 12.667 -33 38c0 14.667 4.33301 27 13 37 s19.334 15 32.001 15c22 0 33 -12.333 33 -37zM244 165.999c0 -14.667 -4.33301 -27.167 -13 -37.5s-19.334 -15.5 -32.001 -15.5c-22 0 -33 12.333 -33 37c0 15.333 4.33301 28 13 38s19.334 15 32.001 15c22 0 33 -12.333 33 -37z"/>
    <glyph glyph-name="circumflex" unicode="" horiz-adv-x="358" d="M333 533c-4 -6 -7.16895 -10.5 -9.50195 -13.5s-6.16602 -5.83301 -11.499 -8.5l-134 131l-132 -131c-5.33301 2.66699 -9.16602 5.5 -11.499 8.5l-10.5 13.5l129 185h52l128 -185v0z"/>
    <glyph glyph-name="caron" unicode="" horiz-adv-x="358" d="M206 523l-52.999 0.000976562l-129 174l11 14c2 2.66699 5.66699 5.66699 11 9l135 -122l131 122c6 -3.33301 10.167 -6.33301 12.5 -9s5.16602 -7.33398 8.49902 -14.001z"/>
    <glyph glyph-name="ring" unicode="" horiz-adv-x="250" d="M216 627c0 -16.667 -3.16895 -32.001 -9.50195 -46.001s-14.666 -26 -24.999 -36s-21.833 -17.833 -34.5 -23.5s-25 -8.5 -37 -8.5c-22 0 -40.167 7.33301 -54.5 22s-21.5 32.334 -21.5 53.001c0 16.667 3.16699 32 9.5 46s14.5 26.167 24.5 36.5s21.333 18.333 34 24 s25.334 8.5 38.001 8.5c21.333 0 39.333 -7.5 54 -22.5s22 -32.833 22 -53.5zM171.998 606.999c0 15.333 -3.66699 28.999 -11 40.999s-17.666 18 -30.999 18s-25.333 -5.33301 -36 -16s-16 -24.667 -16 -42c0 -15.333 3.66699 -28.833 11 -40.5s17.666 -17.5 30.999 -17.5 s25.333 4.83301 36 14.5s16 23.834 16 42.501z"/>
    <glyph glyph-name="bn_dari" unicode="" horiz-adv-x="440" d="M300 106v464l60 -50v-465z"/>
    <glyph glyph-name="bn_double_dari" unicode="" horiz-adv-x="556" d="M246 106v464l60 -57v-465zM416 106v464l60 -57v-465z"/>
    <glyph glyph-name="u0981" unicode="" horiz-adv-x="0" d="M-28 866c0 -32.667 -11.332 -62.333 -33.999 -89c-22 -26 -49.667 -39 -83 -39c-32 0 -61 14.833 -87 44.5s-49.333 71.5 -70 125.5l30 -2c34.667 -71.333 77 -107 127 -107c20 0 38.167 8.5 54.5 25.5s30.166 41.5 41.499 73.5c14 -1.33301 21 -12 21 -32z M-186.999 884.001c0 10 4 19 12 27s17.333 12 28 12s19.834 -4 27.501 -12s11.5 -17 11.5 -27c0 -10.667 -3.83301 -20 -11.5 -28s-16.834 -12 -27.501 -12s-20 4 -28 12s-12 17.333 -12 28z"/>
    <glyph glyph-name="u0982" unicode="" horiz-adv-x="348" d="M292 498c0 -34 -11.667 -64.666 -35 -91.999c-22.667 -25.333 -51 -38 -85 -38c-36 0 -67 13 -93 39s-39 57.333 -39 94c0 16 3 31.667 9 47s15.667 29.666 29 42.999c26 27.333 55.333 41 88 41c35.333 0 65 -13.667 89 -41c24.667 -26.667 37 -57.667 37 -93z M238 527.001c0 32 -13.332 48 -39.999 48c-26 0 -49.333 -11.333 -70 -34c-9.33301 -10.667 -16.5 -22.5 -21.5 -35.5s-7.5 -26.167 -7.5 -39.5c0 -29.333 11.333 -44 34 -44c27.333 0 51.666 10.667 72.999 32c21.333 20.667 32 45 32 73zM334.001 -1.99902 c-20.667 20.667 -43 41.333 -67 62s-48.333 40.167 -73 58.5l-73 52c-24 16.333 -46.333 30.5 -67 42.5v126c44 -34 93.333 -80.167 148 -138.5s98.667 -110.833 132 -157.5v-45z"/>
    <glyph glyph-name="u0983" unicode="" horiz-adv-x="378" d="M330 154c0 -34.667 -12.334 -66.3311 -37.001 -94.998c-12 -14.667 -25.5 -25.334 -40.5 -32.001s-30.833 -10 -47.5 -10c-36.667 0 -68 12.667 -94 38c-26 26 -39 56.667 -39 92c0 34.667 13.667 66.667 41 96c14.667 14 29.834 24.667 45.501 32s32.5 11 50.5 11 c34 0 62.667 -13.333 86 -40s35 -57.334 35 -92.001zM270.999 160.003c0 17.333 -4.66797 32.998 -14.001 46.998s-22.666 21 -39.999 21c-24.667 0 -44 -10.667 -58 -32c-14 -20 -21 -42.667 -21 -68c0 -42.667 14.333 -64 43 -64c12.667 0 24.5 2.66699 35.5 8 s20.5 12.333 28.5 21s14.333 18.834 19 30.501s7 23.834 7 36.501zM329.998 489.001c0 -34.667 -12.333 -66.332 -37 -94.999c-12 -14.667 -25.5 -25.334 -40.5 -32.001s-30.833 -10 -47.5 -10c-36.667 0 -68 12.667 -94 38c-26 26 -39 56.667 -39 92 c0 34.667 13.667 66.334 41 95.001c29.333 29.333 61.333 44 96 44c34 0 62.667 -13.333 86 -40s35 -57.334 35 -92.001zM270.998 495.003c0 17.333 -4.66797 32.998 -14.001 46.998s-22.666 21 -39.999 21c-24.667 0 -44 -10.667 -58 -32c-14 -20 -21 -42.667 -21 -68 c0 -42.667 14.333 -64 43 -64c12.667 0 24.5 2.66699 35.5 8s20.5 12.333 28.5 21s14.333 18.834 19 30.501s7 23.834 7 36.501z"/>
    <glyph glyph-name="u0985" unicode="" horiz-adv-x="684" d="M697 588l-103.999 -0.000976562v-590l-19 12v-1c-25.333 97.333 -71 167.666 -137 210.999c-14.667 -24 -34.834 -42.667 -60.501 -56s-55.5 -20 -89.5 -20c-18.667 0 -37.667 4 -57 12s-38.5 19.333 -57.5 34s-37.167 32.334 -54.5 53.001 s-33.666 43.334 -48.999 68.001c-18 30.667 -32.667 67 -44 109s-19.666 87 -24.999 135l34 -14c9.33301 -46 22 -87.667 38 -125s34.667 -69.5 56 -96.5s44.666 -48 69.999 -63s51.333 -22.5 78 -22.5c65.333 0 109 19.333 131 58c14.667 27.333 22 54.333 22 81 c0 9.33301 -1 19.333 -3 30c-4.66699 16.667 -11.5 31.667 -20.5 45s-17.167 23.333 -24.5 30c-12.667 10 -24.334 16 -35.001 18s-21.667 0.666992 -33 -4c12 -16 18 -31 18 -45c0 -12 -3.5 -23.667 -10.5 -35s-16.5 -21 -28.5 -29c-18.667 -14.667 -41 -20 -67 -16 c-24.667 4.66699 -44 17 -58 37c-6.66699 12.667 -10 26.334 -10 41.001c0 16 4 31.167 12 45.5s18 26.166 30 35.499c32 22 63.333 33 94 33c14.667 0 29.667 -2.33301 45 -7c21.333 -7.33301 41.833 -18.333 61.5 -33s36.5 -33.334 50.5 -56.001 c17.333 -31.333 26 -66.666 26 -105.999c0 -28 -4 -57 -12 -87l73 -66v384h-552l-56 56h712z"/>
    <glyph glyph-name="u0986" unicode="" horiz-adv-x="889" d="M697 588l-103.999 -0.000976562v-590l-19 12v-1c-25.333 97.333 -71 167.666 -137 210.999c-14.667 -24 -34.834 -42.667 -60.501 -56s-55.5 -20 -89.5 -20c-18.667 0 -37.667 4 -57 12s-38.5 19.333 -57.5 34s-37.167 32.334 -54.5 53.001 s-33.666 43.334 -48.999 68.001c-18 30.667 -32.667 67 -44 109s-19.666 87 -24.999 135l34 -14c9.33301 -46 22 -87.667 38 -125s34.667 -69.5 56 -96.5s44.666 -48 69.999 -63s51.333 -22.5 78 -22.5c65.333 0 109 19.333 131 58c14.667 27.333 22 54.333 22 81 c0 9.33301 -1 19.333 -3 30c-4.66699 16.667 -11.5 31.667 -20.5 45s-17.167 23.333 -24.5 30c-12.667 10 -24.334 16 -35.001 18s-21.667 0.666992 -33 -4c12 -16 18 -31 18 -45c0 -12 -3.5 -23.667 -10.5 -35s-16.5 -21 -28.5 -29c-18.667 -14.667 -41 -20 -67 -16 c-24.667 4.66699 -44 17 -58 37c-6.66699 12.667 -10 26.334 -10 41.001c0 16 4 31.167 12 45.5s18 26.166 30 35.499c32 22 63.333 33 94 33c14.667 0 29.667 -2.33301 45 -7c21.333 -7.33301 41.833 -18.333 61.5 -33s36.5 -33.334 50.5 -56.001 c17.333 -31.333 26 -66.666 26 -105.999c0 -28 -4 -57 -12 -87l73 -66v384h-552l-56 56h712zM794.001 587.999v-585.001l-54 56v415c0 17.333 -3.33301 33 -10 47s-15.834 25.833 -27.501 35.5s-25 17.334 -40 23.001s-30.5 8.5 -46.5 8.5l-56 56h64 c34 0 60.333 -7.5 79 -22.5s33.667 -39.833 45 -74.5c0 11.333 -0.333008 25.333 -1 42s-2 36.334 -4 59.001c-1.33301 22 -2.33301 41.167 -3 57.5s-1 30.166 -1 41.499l20 -17c6.66699 -40 18.334 -68.667 35.001 -86h50l55 -56h-105z"/>
    <glyph glyph-name="u0987" unicode="" horiz-adv-x="538" d="M544 588h-295.996c4.66699 -7.33301 9.66699 -14.5 15 -21.5s10.666 -13.5 15.999 -19.5c56.667 -20 94.667 -41.333 114 -64c30 -29.333 45 -67 45 -113s-18.333 -84 -55 -114c-27.333 -23.333 -69 -42.333 -125 -57c38 -22.667 78.5 -52.334 121.5 -89.001 s89.5 -80.334 139.5 -131.001l13 -58c-26.667 30 -56 58.167 -88 84.5s-68 51.166 -108 74.499c-38 21.333 -77.333 40 -118 56s-81.334 29 -122.001 39l-67 140c47.333 -26 99.666 -41.333 156.999 -46c43.333 -3.33301 81.666 3.66699 114.999 21c46 22.667 68 53 66 91 c0 12 -1.83301 23.667 -5.5 35s-9 21.333 -16 30s-15.167 15.667 -24.5 21s-20 8 -32 8c-5.33301 0 -10.166 -0.666992 -14.499 -2s-9.16602 -2.66602 -14.499 -3.99902c0 -26.667 -11.333 -51 -34 -73c-23.333 -22 -48 -33 -74 -33c-16.667 0 -32 5.16699 -46 15.5 s-21 23.833 -21 40.5c0 31.333 13.333 59.333 40 84c25.333 23.333 55.666 36.666 90.999 39.999c0 10.667 -12.667 25.667 -38 45h-180l-56 56h380c7.33301 0 15.333 0.833008 24 2.5s16.667 3.83398 24 6.50098c20.667 7.33301 31 18.333 31 33 c0 14 -11.667 24.333 -35 31c-7.33301 2.66699 -15.333 4.5 -24 5.5s-17.667 1.5 -27 1.5s-20.833 -0.333008 -34.5 -1s-29.834 -1.66699 -48.501 -3s-34.834 -2.33301 -48.501 -3s-25.167 -1 -34.5 -1c-42 0 -80.667 10.333 -116 31c-40.667 24 -61 55.333 -61 94 c0 8 4.66699 20.667 14 38c9.33301 16.667 18 24.334 26 23.001c2 0 4.33301 -0.166992 7 -0.5s5.33398 -0.5 8.00098 -0.5c-16 -11.333 -24 -27 -24 -47c0 -18.667 10 -34 30 -46c16 -10 34.333 -15 55 -15c8 0 24.167 0.833008 48.5 2.5s56.5 4.16699 96.5 7.5 c70 -1.33301 123 -15.166 159 -41.499s52.333 -65.5 49 -117.5h47z"/>
    <glyph glyph-name="u0988" unicode="" horiz-adv-x="585" d="M598 588l-429.998 0.00488281c2.66699 -6.66699 6 -13.334 10 -20.001l14 -23c44 -3.33301 75.5 -19.333 94.5 -48s28.5 -63.667 28.5 -105c30.667 32 59.334 59 86.001 81s51 38.667 73 50l93 -61c-40 -40 -71.5 -85.333 -94.5 -136s-34.5 -105.334 -34.5 -164.001 c0 -50 14.667 -106.333 44 -169c-7.33301 3.33301 -15 7.16602 -23 11.499l-22 11.5c-30.667 66.667 -46 136 -46 208c0 62 15.667 125.667 47 191c-13.333 -12 -30.5 -29.833 -51.5 -53.5s-44.167 -51.167 -69.5 -82.5c-29.333 -36.667 -53.833 -64.667 -73.5 -84 s-38.5 -29 -56.5 -29c-16.667 0 -31.5 3.66699 -44.5 11s-24.167 16.833 -33.5 28.5s-17 24.834 -23 39.501s-10.333 29 -13 43l27 24c4.66699 -17.333 12 -33.666 22 -48.999s23.667 -23 41 -23c22 0 45 15.667 69 47c15.333 20.667 26.5 39.167 33.5 55.5 s10.5 35.166 10.5 56.499c0 19.333 -6.33301 36.5 -19 51.5s-28 22.5 -46 22.5c-10 0 -20.333 -3 -31 -9c8.66699 -12.667 13 -25.334 13 -38.001c0 -14.667 -5.5 -26.834 -16.5 -36.501s-25.5 -14.5 -43.5 -14.5c-22.667 0 -41.167 7 -55.5 21s-21.5 32 -21.5 54 c0 12.667 2.66699 24 8 34s12.166 18.667 20.499 26s17.833 13.5 28.5 18.5s21 9.16699 31 12.5l-27 47h-123l-56 56h484c9.33301 0 16.833 4.33301 22.5 13s8.5 17 8.5 25c0 22.667 -15.667 34 -47 34c-41.333 0 -81 -1.83301 -119 -5.5s-76 -5.5 -114 -5.5 s-72.333 10.333 -103 31c-34.667 23.333 -52 52.666 -52 87.999c0 4.66699 0.833008 10.167 2.5 16.5s4.16699 12.666 7.5 18.999s7.16602 12.333 11.499 18s9.16602 10.167 14.499 13.5l16 -21c-9.33301 -12.667 -14 -25 -14 -37c0 -34 24.333 -51 73 -51 c9.33301 0 22.333 0.666992 39 2l52.5 4l53.5 4c17.333 1.33301 31 2 41 2c29.333 0 54 -3.16699 74 -9.5s37.667 -14.833 53 -25.5c16.667 -11.333 29.5 -25.666 38.5 -42.999s13.5 -37 13.5 -59c0 -2 -0.166992 -4.16699 -0.5 -6.5s-0.5 -4.5 -0.5 -6.5h50z"/>
    <glyph glyph-name="u0989" unicode="" horiz-adv-x="597" d="M606 588l-320.997 -0.000976562v-172c0 -11.333 3.16699 -22 9.5 -32s15.166 -15 26.499 -15c26 8.66699 50 27.667 72 57c22 32 36.667 48 44 48c26.667 0 51 -21 73 -63c20 -37.333 30 -71.333 30 -102c2.66699 -66 -14 -121.667 -50 -167 c-43.333 -44 -94.666 -67 -153.999 -69c-164 0 -263 159 -297 477l39 -22c2.66699 -40 9 -79 19 -117s24.333 -74.667 43 -110c49.333 -87.333 111 -131 185 -131c22.667 0 43.667 3.66699 63 11s37.666 18 54.999 32c35.333 28 53 64 53 108 c0 25.333 -10.333 49.333 -31 72c-8 -13.333 -17.667 -26.666 -29 -39.999s-24.333 -25.666 -39 -36.999c-13.333 -11.333 -26.666 -20 -39.999 -26s-25 -9 -35 -9c-12 0 -23.5 2.33301 -34.5 7s-20.667 11.334 -29 20.001s-15.166 19 -20.499 31s-8 25.333 -8 40v209h-238 l-55 56h474c24 -0.666992 36 9.33301 36 30c0 17.333 -10.667 30.666 -32 39.999c-16.667 6.66699 -34.334 10 -53.001 10c-9.33301 0 -20.5 -0.333008 -33.5 -1s-28.833 -1.66699 -47.5 -3c-17.333 -1.33301 -32.833 -2.33301 -46.5 -3s-24.834 -1 -33.501 -1 c-42 0 -80.667 10.667 -116 32c-40 24 -60 55.667 -60 95c0 32 10 53.667 30 65l10.5 -5c4.33301 -2 8.16602 -3.66699 11.499 -5c-14 -11.333 -21 -24.666 -21 -39.999c0 -20.667 13.333 -37.334 40 -50.001c9.33301 -4 19.833 -7.33301 31.5 -10s23.167 -4 34.5 -4 c9.33301 0 20.833 0.333008 34.5 1s30.167 1.66699 49.5 3l49.5 3.5c14.333 1 26.166 1.5 35.499 1.5c52 0 93 -13.833 123 -41.5s44 -66.834 42 -117.501h55z"/>
    <glyph glyph-name="u098A" unicode="" horiz-adv-x="666" d="M586 411c10 -19.333 16.833 -37.3311 20.5 -53.998s5.5 -32.667 5.5 -48c0 -38 -3.66699 -70.333 -11 -97s-20.333 -49.667 -39 -69c-42.667 -46.667 -94 -70 -154 -70c-55.333 0 -103.666 13.333 -144.999 40s-76.666 61.167 -105.999 103.5s-53.333 89.666 -72 141.999 s-32.334 104.166 -41.001 155.499l40 -17c4.66699 -24.667 11.167 -49.834 19.5 -75.501s18.333 -50.667 30 -75s25.167 -47.666 40.5 -69.999s32.333 -42.5 51 -60.5c-18.667 40 -33 88.5 -43 145.5s-16.667 119.5 -20 187.5l37 -23c4 -34.667 9.16699 -72.667 15.5 -114 s16.5 -80 30.5 -116s33.167 -66 57.5 -90s56.5 -36 96.5 -36c42 0 81.333 14.333 118 43c34 28 51 64 51 108c0 24.667 -9.66699 48.667 -29 72c-7.33301 -13.333 -17 -26.5 -29 -39.5s-25.333 -25.167 -40 -36.5c-30 -24 -55 -36 -75 -36c-24.667 0 -46.334 9 -65.001 27 s-28 41.667 -28 71v209h-305l-55 56h542c24 0 36 10 36 30c0 17.333 -11 30.666 -33 39.999c-16.667 6.66699 -33.667 10 -51 10c-8.66699 0 -20.167 -0.5 -34.5 -1.5s-29.833 -2.16699 -46.5 -3.5c-9.33301 -0.666992 -19.666 -1.16699 -30.999 -1.5l-33.5 -1 c-11 -0.333008 -20.833 -0.5 -29.5 -0.5h-20c-43.333 0 -81.666 10.667 -114.999 32c-40 24 -60 55.667 -60 95c0 34 9 55.667 27 65l12 -5l12 -5c-14 -11.333 -21 -24.666 -21 -39.999c0 -21.333 13.333 -38 40 -50c9.33301 -4 19.666 -7.33301 30.999 -10s23.333 -4 36 -4 c8.66699 0 20 0.333008 34 1s30.667 1.66699 50 3c9.33301 0.666992 19.833 1.33398 31.5 2.00098s23 1.16699 34 1.5s21 0.666016 30 0.999023s15.833 0.5 20.5 0.5c50.667 0 90.834 -13 120.501 -39s44.5 -66 44.5 -120h56l54 -56h-321v-172c0 -11.333 3.33301 -22 10 -32 s15.667 -15 27 -15c13.333 1.33301 25.666 7.33301 36.999 18s22.666 23.667 33.999 39c22 32 36.667 48 44 48c29.333 0 55 -21 77 -63z"/>
    <glyph glyph-name="u098B" unicode="" horiz-adv-x="690" d="M586 588l-0.00390625 -509.004c-2.66699 3.33301 -5.5 6.5 -8.5 9.5s-5.5 6.16699 -7.5 9.5c-2.66699 22 -7.5 44 -14.5 66s-16 43 -27 63s-24.167 38.333 -39.5 55s-32.666 30.334 -51.999 41.001v-324c-7.33301 2.66699 -14.333 9.66699 -21 21 c-15.333 42.667 -30.666 80 -45.999 112s-30.666 57.333 -45.999 76c-42.667 52 -103.334 85 -182.001 99l-29 42.5l-30 43.5c28.667 21.333 65 45 109 71s95.333 54 154 84c-22 30.667 -47.667 47 -77 49c-7.33301 -12.667 -17.166 -23.667 -29.499 -33 s-25.5 -17.166 -39.5 -23.499s-28.667 -11.166 -44 -14.499s-29.666 -5 -42.999 -5c-12 0 -23.667 2 -35 6s-21.5 9.5 -30.5 16.5s-16.167 15.5 -21.5 25.5s-8 21 -8 33c0 42 20.667 63 62 63c31.333 0 47 -19 47 -57c25.333 2.66699 48.666 11.334 69.999 26.001 s39 32.667 53 54c25.333 -14.667 49.5 -32.667 72.5 -54s42.5 -45.333 58.5 -72v195l56 -55v-310c21.333 -13.333 39.666 -27.333 54.999 -42s28.333 -30.667 39 -48v450l38 -38c0.666992 -12 2.33398 -23.833 5.00098 -35.5s6.33398 -23.167 11.001 -34.5h59l56 -56h-114z M381.996 474.996c-32.667 -16.667 -63.333 -33.832 -92 -51.499s-55.667 -35.834 -81 -54.501c65.333 -35.333 123 -87.333 173 -156v262z"/>
    <glyph glyph-name="u098C" unicode="" horiz-adv-x="606" d="M434 431l38.4971 -33.501c13.667 -12.333 26.5 -26.166 38.5 -41.499s22.333 -32.333 31 -51s14 -39.334 16 -62.001c2.66699 -26 -0.333008 -49.5 -9 -70.5s-21.334 -39.667 -38.001 -56s-36.167 -30.666 -58.5 -42.999s-45.5 -22.666 -69.5 -30.999 s-48.167 -14.5 -72.5 -18.5s-46.5 -6 -66.5 -6c5.33301 10 12.666 21.667 21.999 35l22.5 37.5c7.66699 13 14.834 26.333 21.501 40s12 27.167 16 40.5s6 26.666 6 39.999c0 22.667 -9 43 -27 61c-7.33301 6.66699 -17.5 12.667 -30.5 18s-27.167 8 -42.5 8 s-30.5 -3.5 -45.5 -10.5s-27.167 -19.167 -36.5 -36.5c-8 -14 -8.16699 -23.667 -0.5 -29s18.167 -9.66602 31.5 -12.999c6 -1.33301 12 -3 18 -5s11.5 -4.5 16.5 -7.5s9.16699 -6.83301 12.5 -11.5s5 -11 5 -19c0 -10.667 -4.33301 -25.667 -13 -45 c-8 -10.667 -17.167 -18.667 -27.5 -24s-20.833 -8 -31.5 -8c-22 0 -40 8 -54 24c-7.33301 6.66699 -13.166 14.834 -17.499 24.501s-7.66602 19.5 -9.99902 29.5s-3.66602 19.333 -3.99902 28s-0.166016 15.667 0.500977 21c0 12 3.16699 25.667 9.5 41s15.333 30 27 44 s25.334 26.167 41.001 36.5s32.834 16.833 51.501 19.5c24 0.666992 46.667 -2 68 -8s40.166 -15.333 56.499 -28s29.166 -28.167 38.499 -46.5s14 -38.833 14 -61.5c0 -16.667 -2.33301 -34.167 -7 -52.5s-12.334 -37.833 -23.001 -58.5c8 2.66699 17 7 27 13 s20.167 12.833 30.5 20.5s20.333 15.667 30 24s18.167 16.166 25.5 23.499c10.667 10.667 19 21.667 25 33s9 23.333 9 36c0 18.667 -8.16699 39.167 -24.5 61.5s-38.5 42.833 -66.5 61.5l-89 65l-57.5 40.5c-19 13.667 -36 28 -51 43s-27.167 30.333 -36.5 46 s-14 32.167 -14 49.5c0 25.333 17.667 46.666 53 63.999c4.66699 2 9.33398 3.33301 14.001 4s9.66699 1 15 1c12 0 23.5 -2.16699 34.5 -6.5s16.5 -11.833 16.5 -22.5c0 -12 -8 -26 -24 -42c-8 -7.33301 -10.5 -15.5 -7.5 -24.5s9.5 -19.167 19.5 -30.5 s22.667 -23.5 38 -36.5l50 -41.5l47 -38z"/>
    <glyph glyph-name="u098F" unicode="" horiz-adv-x="670" d="M566 -1c-8.66699 4.66699 -15.668 16.667 -21.001 36c-6 16.667 -11.667 30.834 -17 42.501s-10.666 21.167 -15.999 28.5c-20 25.333 -47.667 38 -83 38c-18.667 0 -47.334 -3 -86.001 -9c-19.333 -2.66699 -36.166 -4.5 -50.499 -5.5s-26.5 -1.5 -36.5 -1.5 c-136.667 0 -205 70.333 -205 211c0 30.667 4.33301 58.167 13 82.5s20.667 45.833 36 64.5l21 -22c-9.33301 -15.333 -16.833 -33.333 -22.5 -54s-8.5 -43.334 -8.5 -68.001s4 -45.834 12 -63.501s19.333 -31.167 34 -40.5c11.333 -6.66699 26 -12 44 -16s39 -6 63 -6h23.5 c10.333 0 20.5 0.333008 30.5 1l53 2c58.667 0 114.334 -22.333 167.001 -67v424c0 11.333 -13.333 17 -40 17c-17.333 0 -33.833 -5 -49.5 -15s-31.834 -24.667 -48.501 -44c-14 -17.333 -25.667 -34.666 -35 -51.999s-16 -35.666 -20 -54.999c14.667 2 27.667 3 39 3 c27.333 0 41 -21.333 41 -64c0 -20.667 -7.33301 -36.834 -22 -48.501s-32.667 -17.5 -54 -17.5c-28 0 -51.167 8.66699 -69.5 26s-27.5 40.333 -27.5 69c0 60 25.333 117.333 76 172c25.333 25.333 52 45.333 80 60s56.333 22 85 22c18 0 39.667 -10.667 65 -32 c24 -20 36 -39 36 -57v-563z"/>
    <glyph glyph-name="u0990" unicode="" horiz-adv-x="675" d="M663 581c0 -58 -34.002 -105.336 -102.002 -142.003v-441c-15.333 14.667 -26.666 35.334 -33.999 62.001c-3.33301 13.333 -7 25 -11 35s-7.66699 16.667 -11 20c-15.333 16 -43 24 -83 24c-9.33301 0 -20.666 -0.666992 -33.999 -2s-29 -3 -47 -5 c-35.333 -4 -62 -6 -80 -6c-140 0 -210 67.333 -210 202c0 54 16 104.667 48 152c3.33301 -4 6.33301 -8.33301 9 -13s5.66699 -8.66699 9 -12c-9.33301 -14.667 -16.333 -30.834 -21 -48.501s-7 -38.167 -7 -61.5c0 -52.667 17 -89 51 -109 c12 -6.66699 27.5 -11.834 46.5 -15.501s41.5 -5.5 67.5 -5.5h44c9.33301 0.666992 17.333 1 24 1h17c83.333 0 139 -22.667 167 -68v421c0 9.33301 -10.333 14 -31 14c-32.667 0 -65.334 -19.333 -98.001 -58c-13.333 -15.333 -25 -31.666 -35 -48.999 s-18.667 -35.666 -26 -54.999c5.33301 0.666992 9.66602 1.16699 12.999 1.5s6.66602 0.833008 9.99902 1.5c2.66699 0.666992 5.66699 1 9 1c14.667 0 26.834 -6.16699 36.501 -18.5s14.5 -26.833 14.5 -43.5c0 -46 -26.667 -69 -80 -69c-28.667 0 -52.334 12 -71.001 36 c-7.33301 10.667 -13.166 22.667 -17.499 36s-6.5 27 -6.5 41c0 53.333 26.333 106 79 158c55.333 52 109.666 78 162.999 78c56.667 0 86.667 -40 90 -120c44.667 4.66699 67 23.667 67 57c0 46 -33 79.667 -99 101l-90.5 25.5l-90.5 24.5 c-31.333 12 -55.166 28 -71.499 48s-24.5 42.667 -24.5 68c0 28.667 22 60.667 66 96c2 -2.66699 6.5 -7.33398 13.5 -14.001l14.5 -14c-19.333 -12 -34.333 -23.167 -45 -33.5s-16 -20.166 -16 -29.499c0 -14 8.66699 -26.333 26 -37s42.333 -20 75 -28 c46.667 -11.333 85.834 -21.666 117.501 -30.999s53.834 -17.333 66.501 -24c65.333 -33.333 98 -83.666 98 -150.999z"/>
    <glyph glyph-name="u0993" unicode="" horiz-adv-x="623" d="M572 232c0 -52 -15.333 -92.3311 -46 -120.998s-72 -43 -124 -43c-156 0 -279.333 166 -370 498l44 -16c16 -58.667 34.333 -109.334 55 -152.001s38.667 -75.667 54 -99c30.667 -46.667 64 -82.167 100 -106.5s74.333 -36.5 115 -36.5c16.667 0 32.834 2.5 48.501 7.5 s29.5 12 41.5 21s21.5 20.167 28.5 33.5s10.5 28 10.5 44c0 20.667 -12 39.667 -36 57c-15.333 -16 -33 -24 -53 -24c-19.333 0 -35.833 6.5 -49.5 19.5s-20.5 29.167 -20.5 48.5s6.33301 36.5 19 51.5s28.667 22.5 48 22.5c16 0 31.667 -4.33301 47 -13 c28.667 12.667 43 36.334 43 71.001c0 45.333 -24 68 -72 68c-16.667 0 -32.834 -1.83301 -48.501 -5.5s-31.167 -9.16699 -46.5 -16.5c-32.667 -16.667 -57 -38.667 -73 -66c24 -16 36 -33.667 36 -53c0 -43.333 -19.333 -65 -58 -65c-52.667 0 -79 28 -79 84 c0 25.333 7.16699 49.166 21.5 71.499s34.833 42.166 61.5 59.499c48.667 31.333 100.667 47 156 47c18.667 0 36.5 -2.83301 53.5 -8.5s32 -13.834 45 -24.501s23.167 -23.5 30.5 -38.5s11 -31.833 11 -50.5c0 -64 -15 -113 -45 -147 c34.667 -43.333 52 -82.666 52 -117.999z"/>
    <glyph glyph-name="u0994" unicode="" horiz-adv-x="696" d="M423 68c-156.667 0 -281.001 165.994 -373.001 497.994l38 -19c22 -56.667 43.333 -106.334 64 -149.001s38.667 -75.667 54 -99c30.667 -46.667 64 -82.167 100 -106.5s74 -36.5 114 -36.5c88 4.66699 132.333 39.334 133 104.001c0 20.667 -11.333 41.334 -34 62.001 c-16.667 -18.667 -35.334 -28 -56.001 -28c-46 0 -69 22.333 -69 67c0 48 23.667 72 71 72c12.667 0 27.334 -3.66699 44.001 -11c30 15.333 45 40.333 45 75c0 40.667 -23 61 -69 61c-83.333 0 -141.666 -29.333 -174.999 -88c24 -15.333 36 -36.666 36 -63.999 c0 -35.333 -19.667 -53 -59 -53c-53.333 0 -80 29.333 -80 88c0 26 6.83301 50.167 20.5 72.5s33.834 41.833 60.501 58.5c46 28 97.667 42 155 42c37.333 0 70 -11.667 98 -35c28.667 -25.333 43 -55.666 43 -90.999c0 -14.667 -4 -32 -12 -52 c-3.33301 -9.33301 -7 -17.166 -11 -23.499s-9 -11.166 -15 -14.499v-2c25.333 4 47.333 25 66 63c7.33301 15.333 13 30.833 17 46.5s6 30.5 6 44.5c0 43.333 -34 75.333 -102 96l-187 50c-32 12.667 -56.5 28.834 -73.5 48.501s-25.5 42.5 -25.5 68.5 c0 45.333 24.667 81 74 107l31 -35c-32 -10.667 -48 -27 -48 -49c0 -16.667 8.33301 -31.5 25 -44.5s41 -24.5 73 -34.5l120.5 -42.5c30.333 -11 50.166 -18.833 59.499 -23.5c30 -18 53.333 -40.167 70 -66.5s25 -56.5 25 -90.5c0 -52.667 -39 -117.334 -117 -194.001 c26.667 -41.333 40 -81.666 40 -120.999c0 -47.333 -18.333 -85 -55 -113c-33.333 -25.333 -74 -38 -122 -38z"/>
    <glyph glyph-name="u0995" unicode="" horiz-adv-x="682" d="M401 588l-0.000976562 -40.998c65.333 0 118 -26.667 158 -80c38 -48 57 -100.667 57 -158c0 -14 -2.33301 -27.333 -7 -40s-11 -23.834 -19 -33.501s-17.667 -17.334 -29 -23.001s-23.666 -8.5 -36.999 -8.5c-9.33301 0 -18.333 1.83301 -27 5.5s-16.5 8.5 -23.5 14.5 s-12.667 13.167 -17 21.5s-6.5 17.5 -6.5 27.5c0 18 6.33301 33 19 45s28.334 18 47.001 18c11.333 0 21.5 -2.66699 30.5 -8s17.167 -12.666 24.5 -21.999l5 13c0 38.667 -15.333 73.334 -46 104.001c-30 32.667 -73.333 48.667 -130 48v-467 c-4 0.666992 -8 2.16699 -12 4.5s-6.66699 5.16602 -8 8.49902c-13.333 32.667 -29.166 63.167 -47.499 91.5s-38.5 53.5 -60.5 75.5c-50.667 50.667 -107.334 79.667 -170.001 87l-79 98c95.333 75.333 203.666 132.666 324.999 171.999v47h-364l-57 56h708l58 -56h-292z M344.999 464.002c-34 -12.667 -67.999 -28.501 -101.999 -47.501s-70 -41.833 -108 -68.5c93.333 -39.333 162.666 -101.666 207.999 -186.999h2v303z"/>
    <glyph glyph-name="u0996" unicode="" horiz-adv-x="551" d="M564 588l-86.998 0.00195312v-582c-7.33301 6.66699 -14 14.5 -20 23.5s-10.667 17.833 -14 26.5l-14.5 36c-4.33301 10.667 -7.5 17.667 -9.5 21c-13.333 23.333 -29.333 44 -48 62s-40.334 34.333 -65.001 49h1c-44.667 26.667 -94 42.667 -148 48l-95 116 c7.33301 -1.33301 14.833 -2.5 22.5 -3.5s15.5 -1.5 23.5 -1.5c18.667 0 38.5 2.5 59.5 7.5s42.167 12.167 63.5 21.5c26 11.333 46.167 23.833 60.5 37.5s21.5 28.167 21.5 43.5c0 24 -9.66699 44.333 -29 61c-61.333 -61.333 -122.666 -92 -183.999 -92 c-22.667 0 -42.334 7.33301 -59.001 22s-25 33 -25 55c0 16 5.83301 30.333 17.5 43s25.834 19 42.501 19c34 0 52 -17.333 54 -52c11.333 2 22.833 6.16699 34.5 12.5s23.5 14.166 35.5 23.499c1.33301 0.666992 7.5 6.5 18.5 17.5l35.5 34.5l52 -45 c13.333 -12 21.666 -19.667 24.999 -23c26.667 -28.667 40 -58.334 40 -89.001c0 -32.667 -13 -64 -39 -94c-26 -28.667 -56 -47.667 -90 -57c81.333 -40.667 140.333 -93.334 177 -158.001h2v577l31 -20c0 -11.333 0.666992 -22.666 2 -33.999s2.66602 -19 3.99902 -23 c7.33301 -16 23 -25 47 -27z"/>
    <glyph glyph-name="u0997" unicode="" horiz-adv-x="553" d="M572 588l-101.998 -0.00390625v-600l-63 77c0.666992 100 1.66699 175 3 225c0.666992 29.333 1 54.333 1 75c0 22 -4.33301 44.5 -13 67.5s-20.667 45.167 -36 66.5c-36 47.333 -75.333 71 -118 71c-64.667 0 -109.334 -29.667 -134.001 -89c28 12 52.333 18 73 18 c16 0 30.833 -2.16699 44.5 -6.5s25.5 -10.166 35.5 -17.499c10.667 -9.33301 19 -20.166 25 -32.499s9 -26.5 9 -42.5c0 -21.333 -10.167 -48.166 -30.5 -80.499s-48.5 -68.166 -84.5 -107.499l-65 74c8.66699 6 19 14.833 31 26.5s24.667 25.167 38 40.5 c16 17.333 28.5 32.333 37.5 45s13.5 22 13.5 28c0 18 -11 27 -33 27c-8 0 -26 -8.33301 -54 -25c-13.333 -7.33301 -25 -13.166 -35 -17.499s-18 -6.5 -24 -6.5c-14.667 0 -29.334 9.33301 -44.001 28c-12.667 16.667 -19 34 -19 52c0 46 21.333 84 64 114 c19.333 13.333 39.833 23.166 61.5 29.499s44.5 9.5 68.5 9.5c59.333 0 105.666 -19.333 138.999 -58c22.667 -26.667 47 -76.334 73 -149.001l-9 162l-3.5 88c-1 26 -1.5 49.667 -1.5 71l32 -32c-1.33301 -5.33301 -2 -10.666 -2 -15.999 c-1.33301 -40.667 15.334 -60.667 50.001 -60c4 0 9.33301 0.333008 16 1z"/>
    <glyph glyph-name="u0998" unicode="" horiz-adv-x="538" d="M548 588h-91v-587l-27 25v-1c-29.333 73.333 -67 127.166 -113 161.499s-99.667 49.833 -161 46.5l-74 78c24.667 26.667 63.667 64.667 117 114c-13.333 -5.33301 -28 -8 -44 -8c-29.333 0 -56 10 -80 30c-12 10.667 -21 22.5 -27 35.5s-9 26.5 -9 40.5 c0 20.667 6.33301 42.334 19 65.001h-61l-55 56h551zM400 152l-0.000976562 436h-205c-8 0 -15.833 -2.33301 -23.5 -7s-14.5 -10.5 -20.5 -17.5s-10.667 -14.833 -14 -23.5s-5 -17.334 -5 -26.001c0 -17.333 6.33301 -31.666 19 -42.999s27.667 -17 45 -17 c38 0 68 15 90 45l59 -59c-22 -13.333 -45.167 -31.333 -69.5 -54s-48.166 -48.667 -71.499 -78c88 -34.667 153.333 -86.667 196 -156v0z"/>
    <glyph glyph-name="u0999" unicode="" horiz-adv-x="538" d="M333 20c-52 0 -98 14.666 -138 43.999s-74 71 -102 125c-16 36 -31 80.5 -45 133.5s-25.333 111.833 -34 176.5l28 -22c28 -122.667 65.333 -214.334 112 -275.001s102.334 -91 167.001 -91c37.333 0 70.333 9.66699 99 29c30 22 45 51.667 45 89 c0 22 -11.667 45.667 -35 71c-12 -18 -34 -38.333 -66 -61c-16 -12 -30.333 -20.833 -43 -26.5s-23 -8.5 -31 -8.5c-14.667 0 -31.334 6.66699 -50.001 20c-37.333 30 -56 70.333 -56 121l4 96c-74.667 56.667 -127.334 107.334 -158.001 152.001l84 23l32 -62 c12.667 -22.667 27.334 -41.667 44.001 -57c30 76.667 77.667 115 143 115c70 0 105 -32 105 -96c0 -34 -14 -60 -42 -78c-24 -15.333 -54 -23 -90 -23c-30.667 0 -53.334 5 -68.001 15v-106c0 -27.333 12.333 -41 37 -41c18.667 0 41.334 13.333 68.001 40 c10 10.667 19.167 21.834 27.5 33.501s15.166 23.167 20.499 34.5c36 -14 65 -39 87 -75s33 -73.667 33 -113c0 -27.333 -4.16699 -52.333 -12.5 -75s-20.166 -42 -35.499 -58s-34 -28.333 -56 -37s-46.667 -13 -74 -13zM367 555.999 c-12.667 0 -25.332 -2.16504 -37.999 -6.49805s-24.334 -10.333 -35.001 -18s-20 -16.834 -28 -27.501s-14 -22 -18 -34c4.66699 -6 13.667 -9 27 -9c11.333 0 23.5 1.66699 36.5 5s25.167 7.66602 36.5 12.999c31.333 14 47 31.667 47 53c0 16 -9.33301 24 -28 24z"/>
    <glyph glyph-name="u099A" unicode="" horiz-adv-x="468" d="M481 588h-345c-4 -55.333 43.333 -98 142 -128c96.667 -30.667 143.667 -68.667 141 -114c0 -55.333 -26 -116.333 -78 -183c-54 -70.667 -108.667 -106 -164 -106c-20 0 -41 12 -63 36c-20.667 25.333 -31 49 -31 71v424h-86l-55 56h482zM329 350 c-88.667 28 -152.333 75.334 -191 142.001v-327c0 -22 8.33301 -33 25 -33c31.333 0 67.333 24.333 108 73c41.333 48.667 62 88.667 62 120c0 15.333 -1.33301 23.666 -4 24.999z"/>
    <glyph glyph-name="u099B" unicode="" horiz-adv-x="526" d="M561 -84c-58.667 60.667 -123.667 107.83 -195 141.497s-148.666 54.834 -231.999 63.501l-55 104c15.333 -5.33301 29.666 -9.16602 42.999 -11.499s26.333 -3.5 39 -3.5c32 0 61.833 3.33301 89.5 10s53.834 16 78.501 28c63.333 31.333 95 76.333 95 135 c-3.33301 44 -34.666 63 -93.999 57c6 -44 -14.667 -85 -62 -123c-19.333 -14 -38.833 -25.333 -58.5 -34s-37.834 -13 -54.501 -13c-10.667 0 -21.167 1.83301 -31.5 5.5s-19.5 8.83398 -27.5 15.501s-14.5 14.5 -19.5 23.5s-7.5 18.5 -7.5 28.5v245h-75l-55 56h536l54 -56 h-408c26.667 -58.667 71.667 -88 135 -88c12.667 0 25.167 1.33301 37.5 4s24.833 4 37.5 4c50 -2 88 -19.667 114 -53c23.333 -32 35 -69 35 -111c0 -44 -20.333 -83 -61 -117c-12.667 -11.333 -28.667 -23.166 -48 -35.499s-43 -25.5 -71 -39.5 c32.667 -17.333 60.667 -32.833 84 -46.5s41.666 -25.834 54.999 -36.501c15.333 -12 32.833 -27.5 52.5 -46.5s40.5 -41.167 62.5 -66.5zM254 438.996c-54 12 -97.333 40.333 -130 85v-170c0 -22 6.66699 -33 20 -33c12 0 24.5 3.83301 37.5 11.5s25.167 17.167 36.5 28.5 c11.333 12.667 20.5 25.667 27.5 39s9.83301 26.333 8.5 39z"/>
    <glyph glyph-name="u099C" unicode="" horiz-adv-x="686" d="M700 588l-319.998 -0.000976562c-9.33301 -0.666992 -18.833 -4.83398 -28.5 -12.501s-15.167 -15.5 -16.5 -23.5c0 -9.33301 3.83301 -17.333 11.5 -24s16.834 -12.5 27.501 -17.5s21.5 -8.83301 32.5 -11.5s19.5 -4 25.5 -4c30.667 -2.66699 58 -1.5 82 3.5 s44 11.833 60 20.5l85 -89c-30.667 -30 -54 -67 -70 -111s-24 -94.667 -24 -152c0 -43.333 14.333 -96.666 43 -159.999l-55 15c-13.333 38 -24 75.667 -32 113s-12.333 77 -13 119c0 54.667 12 111.667 36 171c-59.333 0 -107.333 7.33301 -144 22 c-38.667 15.333 -75.334 45.333 -110.001 90l-5 2c-9.33301 0 -19 -4.66699 -29 -14s-20.333 -22.666 -31 -39.999c-22 -35.333 -33 -62.666 -33 -81.999c0 -27.333 14.667 -41 44 -41c6.66699 0 15.334 1.66699 26.001 5s22.667 8.33301 36 15l62 32 c24 -10.667 45.333 -32.334 64 -65.001c9.33301 -17.333 16.666 -34 21.999 -50s8 -30.667 8 -44c0 -41.333 -15.667 -78.333 -47 -111c-30.667 -30.667 -67.334 -46 -110.001 -46c-96.667 0 -166.334 52.333 -209.001 157c-15.333 38 -26.833 80.167 -34.5 126.5 s-11.5 98.5 -11.5 156.5l29 -18c-2 -16 -2 -35.667 0 -59c6.66699 -66 24 -121 52 -165c20 -33.333 42.833 -59 68.5 -77s54.167 -27 85.5 -27c28.667 0 56.667 6.33301 84 19c36 16 54 36.667 54 62c0 10 -2.83301 20.5 -8.5 31.5s-13.834 16.5 -24.501 16.5 c-4 0 -19 -4.66699 -45 -14c-23.333 -9.33301 -43.333 -14 -60 -14c-37.333 0 -68.333 15 -93 45c-25.333 29.333 -38 63.333 -38 102c0 22.667 8.66699 49 26 79c18.667 30.667 38.334 53.667 59.001 69h-246l-56 56h716z"/>
    <glyph glyph-name="u099D" unicode="" horiz-adv-x="649" d="M663 588l-98.002 -0.00390625v-505l-25 25v-1c-7.33301 20.667 -14.833 39.834 -22.5 57.501s-16.5 33.834 -26.5 48.501s-21.667 27.834 -35 39.501s-29 21.834 -47 30.501v-268l-24 24c-63.333 152 -156.333 233 -279 243l-75 97c48 34.667 99.5 67.5 154.5 98.5 s111.833 57.167 170.5 78.5v32h-361l-54 56h468v-296c33.333 -21.333 66 -55.333 98 -102v503l25 -21c-1.33301 -13.333 -0.666016 -26 2.00098 -38s8.33398 -23.333 17.001 -34c17.333 -12 36 -16 56 -12zM355.998 163.996l-0.000976562 305 c-34 -11.333 -68 -26.5 -102 -45.5s-68.667 -41.167 -104 -66.5c90.667 -42 159.334 -106.333 206.001 -193z"/>
    <glyph glyph-name="u099E" unicode="" horiz-adv-x="930" d="M572 -2c-9.33301 0 -18.3301 12.335 -26.9971 37.002c-10.667 32.667 -21.334 56.334 -32.001 71.001c-20 25.333 -47.667 38 -83 38c-18.667 0 -47.334 -3 -86.001 -9c-19.333 -2.66699 -36.166 -4.5 -50.499 -5.5s-26.5 -1.5 -36.5 -1.5 c-136.667 0 -205 70.333 -205 211c3.33301 62.667 19 111.667 47 147l22 -22c-9.33301 -15.333 -16.666 -33.333 -21.999 -54s-8 -43.334 -8 -68.001c0 -50 15.333 -84.667 46 -104c11.333 -6.66699 26 -12 44 -16s38.667 -6 62 -6h24c10.667 0 21 0.333008 31 1l52 2 c59.333 0 115 -22.333 167 -67v424c0 11.333 -13.333 17 -40 17c-17.333 0 -33.833 -5 -49.5 -15s-31.834 -24.667 -48.501 -44c-14 -17.333 -25.667 -34.666 -35 -51.999s-15.666 -35.666 -18.999 -54.999c14.667 2 27.667 3 39 3c27.333 0 41 -21.333 41 -64 c0 -20.667 -7.5 -36.834 -22.5 -48.501s-33.167 -17.5 -54.5 -17.5c-28 0 -51.167 8.66699 -69.5 26s-27.5 40.333 -27.5 69c0 30 6.5 59.333 19.5 88s31.833 56.667 56.5 84c25.333 25.333 52 45.333 80 60s56.667 22 86 22c18 0 39.333 -10.667 64 -32 c24.667 -20.667 37 -39.667 37 -57v-137h2c9.33301 34 30.666 68.333 63.999 103c36.667 36.667 71.334 55 104.001 55s61 -13 85 -39c24.667 -26 37 -55 37 -87c0 -38.667 -16.333 -75.334 -49 -110.001c37.333 -28.667 56 -68.334 56 -119.001 c0 -13.333 -1.33301 -27 -4 -41s-7.33398 -27 -14.001 -39s-15.834 -22 -27.501 -30s-26.834 -13 -45.501 -15c-17.333 0 -35.833 4.16699 -55.5 12.5s-39.167 20.166 -58.5 35.499c-36.667 30.667 -68 62 -94 94v-246zM830.003 244.002c0 12 -11.667 29.667 -35 53 c-28.667 -16.667 -49 -25 -61 -25c-18.667 0 -35.167 6 -49.5 18s-21.5 27.333 -21.5 46c0 16.667 7 30.667 21 42s29.667 17 47 17l61 -15c18 28.667 27 49.667 27 63c0 17.333 -6.83301 31.5 -20.5 42.5s-29.167 16.5 -46.5 16.5c-39.333 0 -78 -19 -116 -57 c-39.333 -38 -59 -76 -59 -114c0 -40 17 -75 51 -105s71.333 -45 112 -45c23.333 0 43 4.33301 59 13c9.33301 6 16.833 13 22.5 21s8.5 17.667 8.5 29z"/>
    <glyph glyph-name="u099F" unicode="" horiz-adv-x="493" d="M132 588l0.000976562 -391c12.667 -25.333 30.667 -38 54 -38c33.333 0 67.666 20.333 102.999 61c32 38 50 76.333 54 115l-19 -2c-18 0 -34.5 6.33301 -49.5 19s-22.5 28.667 -22.5 48c0 20.667 6.5 38.334 19.5 53.001s30.167 22 51.5 22c32 0 58.333 -15.667 79 -47 c7.33301 -12 13.166 -26.167 17.499 -42.5s6.5 -32.833 6.5 -49.5c0 -55.333 -23 -110 -69 -164c-46.667 -57.333 -97.334 -86 -152.001 -86c-35.333 0 -63.666 11 -84.999 33s-35.333 53 -42 93v376h-90l-51 56h425c0 5.33301 0.166992 11.166 0.5 17.499 s0.5 12.166 0.5 17.499c0.666992 33.333 -22.666 50 -69.999 50c-10.667 0 -28 -2 -52 -6c-11.333 -1.33301 -21 -2.33301 -29 -3s-15 -1 -21 -1c-42.667 0 -82 10.333 -118 31c-39.333 22 -59 53.333 -59 94c0 42.667 13.667 65 41 67c0 -2.66699 0.333008 -5.66699 1 -9 s1 -6.66602 1 -9.99902c-9.33301 -8 -14 -18 -14 -30c0 -23.333 9.66699 -40.333 29 -51c18 -10 38.667 -15 62 -15c8 0 17.833 0.5 29.5 1.5l40.5 3.5c30 4 53 6 69 6c50 0 87.667 -14.667 113 -44c20 -26 30 -65.667 30 -119h31l56 -56h-371z"/>
    <glyph glyph-name="u09A0" unicode="" horiz-adv-x="459" d="M468 588l-187 0.00195312c34 -36 62.667 -82.667 86 -140c12.667 -28.667 21.834 -55.834 27.501 -81.501s8.5 -50.167 8.5 -73.5c0 -61.333 -16.667 -115.666 -50 -162.999c-38.667 -54 -86.667 -81 -144 -81c-54 0 -97 17.333 -129 52 c-33.333 34.667 -50 78.667 -50 132c0 18.667 2.66699 37 8 55c22.667 6.66699 44.834 17.167 66.501 31.5s41.167 31.166 58.5 50.499c19.333 21.333 34.166 43.333 44.499 66s15.5 45.334 15.5 68.001c0 11.333 -1.16699 23.833 -3.5 37.5s-5.5 29.167 -9.5 46.5h-217 l-58 56h248l-65 114c-11.333 23.333 -20 44.666 -26 63.999s-9 36.666 -9 51.999c0 46 20 86 60 120l65 -56c-27.333 -11.333 -47.166 -24.166 -59.499 -38.499s-18.5 -30.166 -18.5 -47.499c0 -30.667 14 -68.334 42 -113.001 c11.333 -18.667 23.166 -35.834 35.499 -51.501s25.166 -30.167 38.499 -43.5h163zM279 514.002c1.33301 -8 2.33398 -15.999 3.00098 -23.999s1 -16 1 -24c0 -26.667 -4.16699 -52.667 -12.5 -78s-19.833 -48 -34.5 -68c-16.667 -20.667 -46.667 -46.334 -90 -77.001 c-31.333 -23.333 -47 -42.333 -47 -57c0 -58.667 28.667 -88 86 -88c49.333 0 90.666 24 123.999 72c28.667 42.667 43 90 43 142c0 78.667 -23.667 146.667 -71 204z"/>
    <glyph glyph-name="u09A1" unicode="" horiz-adv-x="600" d="M287 588l-0.00390625 -226.997c18.667 -2.66699 34.834 0.166016 48.501 8.49902s26.167 19.333 37.5 33s22.166 28 32.499 43s21.5 27.833 33.5 38.5c16.667 -9.33301 31.334 -21 44.001 -35s23.167 -29.5 31.5 -46.5s14.833 -35 19.5 -54s7 -37.833 7 -56.5 c0 -64 -17.667 -116.333 -53 -157c-36.667 -42.667 -87 -64 -151 -64c-166.667 0 -265 159.667 -295 479l37 -18c4 -42.667 11.333 -84.334 22 -125.001s24.334 -76.667 41.001 -108c44.667 -86 107.334 -129 188.001 -129c29.333 -0.666992 57.166 6.16602 83.499 20.499 s47.333 32.5 63 54.5s23.834 46.333 24.501 73s-10.333 51.667 -33 75c-5.33301 -16 -13.5 -30.667 -24.5 -44s-23.667 -25 -38 -35s-29.666 -18.333 -45.999 -25s-32.5 -11 -48.5 -13c-52 0 -78 40 -78 120v192h-236l-56 56h610l54 -56h-318z"/>
    <glyph glyph-name="u09A2" unicode="" horiz-adv-x="477" d="M132 588l0.00390625 -391.001c12.667 -25.333 30.667 -38 54 -38c33.333 0 67.666 20.333 102.999 61c32 38 50 76.333 54 115l-19 -2c-8.66699 0.666992 -17.334 2.66699 -26.001 6s-16.334 8 -23.001 14s-12.167 13 -16.5 21s-6.5 16.667 -6.5 26 c0 20.667 6.5 38.334 19.5 53.001s30.167 22 51.5 22c32 0 58.333 -15.667 79 -47c7.33301 -12 13.166 -26.167 17.499 -42.5s6.5 -32.833 6.5 -49.5c0 -55.333 -23 -110 -69 -164c-46.667 -57.333 -97.334 -86 -152.001 -86c-35.333 0 -63.666 11 -84.999 33 s-35.333 53 -42 93v376h-83l-54 56h499l57 -56h-365z"/>
    <glyph glyph-name="u09A3" unicode="" horiz-adv-x="510" d="M426 588l0.00195312 -584.002l-62 63v318c0 46.667 -13.667 87.667 -41 123c-30 38.667 -67.333 58 -112 58c-30 0 -55.667 -11.667 -77 -35c-20.667 -21.333 -31 -48 -31 -80c0 -10.667 1.16699 -21.167 3.5 -31.5s5.16602 -19.5 8.49902 -27.5 c10 -24.667 25 -37 45 -37c3.33301 0 5.5 0.333008 6.5 1s0.5 2.66699 -1.5 6v-1c-1.33301 4.66699 -2.5 9.33398 -3.5 14.001s-1.5 10 -1.5 16c2 29.333 20 44.666 54 45.999c18 0 33.5 -7 46.5 -21s19.5 -29.667 19.5 -47c0 -12 -2.83301 -23 -8.5 -33 s-13 -18.5 -22 -25.5s-19.5 -12.333 -31.5 -16s-24 -5.5 -36 -5.5c-44 0 -81 16 -111 48c-30 32.667 -45 70.667 -45 114c0 27.333 4.5 52.5 13.5 75.5s21.167 43.833 36.5 62.5c34 38 77.667 57 131 57c39.333 0 74.666 -16 105.999 -48c26.667 -28 45.667 -63 57 -105h2 v260l30 -26c0 -29.333 5.5 -50.666 16.5 -63.999s27.833 -19.666 50.5 -18.999l56 -56h-99z"/>
    <glyph glyph-name="u09A4" unicode="" horiz-adv-x="649" d="M663 588h-667l-59 56h667zM593 293c0 -27.333 -5.83496 -53.002 -17.502 -77.002s-27.5 -45.667 -47.5 -65c-44 -38 -93.667 -57 -149 -57c-150 0 -267 152.333 -351 457l32 -12c23.333 -55.333 44.833 -102.833 64.5 -142.5s35.834 -68.5 48.501 -86.5 c58 -84.667 127.667 -127 209 -127c39.333 0 78 15.333 116 46c32 31.333 48 66.333 48 105c0 31.333 -8.66699 59 -26 83c-20.667 28.667 -45 43 -73 43c-9.33301 0 -23 -2.33301 -41 -7c15.333 -19.333 23 -41.333 23 -66c0 -54 -29.667 -81 -89 -81 c-29.333 0 -52.666 10.667 -69.999 32s-26 47.333 -26 78c0 35.333 14.333 64.333 43 87c25.333 20.667 56 31 92 31c30.667 0 59 -6.5 85 -19.5s49.333 -31.167 70 -54.5c19.333 -23.333 34 -49.166 44 -77.499s15 -58.166 15 -89.499z"/>
    <glyph glyph-name="u09A5" unicode="" horiz-adv-x="554" d="M566 588l-97.9922 0.00292969v-588c-34 46 -62.333 82.667 -85 110s-39.334 46 -50.001 56c-26.667 23.333 -58 41 -94 53s-72 18.333 -108 19l-90 118c15.333 -2.66699 29.666 -3.66699 42.999 -3s32.333 5 57 13s49.667 19.667 75 35 c28.667 17.333 50.167 35.166 64.5 53.499s21.5 38.166 21.5 59.499c0 20 -7.16699 37 -21.5 51s-31.5 21 -51.5 21c-14.667 0 -33.334 -6 -56.001 -18c-22.667 -12.667 -37.334 -25 -44.001 -37c20.667 -22.667 31 -41.667 31 -57c0 -8 -2 -15.667 -6 -23 s-9.33301 -13.666 -16 -18.999s-14.334 -9.5 -23.001 -12.5s-17.334 -4.5 -26.001 -4.5c-22 0 -39.833 7.5 -53.5 22.5s-20.5 33.5 -20.5 55.5c0 44.667 22 81.667 66 111c40 26.667 82.667 40 128 40c41.333 0 76 -15.667 104 -47c29.333 -30.667 44 -66.667 44 -108 c0 -70 -46.333 -133.333 -139 -190c26.667 -15.333 49.167 -28.833 67.5 -40.5s32.5 -21.5 42.5 -29.5c19.333 -16 36.166 -31.667 50.499 -47s25.5 -31 33.5 -47h2v613l28 -34l6 -36c1.33301 -6.66699 3.66602 -12.834 6.99902 -18.501s8 -10.834 14 -15.501h40z"/>
    <glyph glyph-name="u09A6" unicode="" horiz-adv-x="532" d="M121 588l-0.00195312 -261.003c20 22 41.5 42.5 64.5 61.5s46.5 36.333 70.5 52s47.333 29.334 70 41.001s43.334 21.167 62.001 28.5l92 -70c-25.333 -49.333 -44.666 -96.666 -57.999 -141.999s-20 -89 -20 -131s7.33301 -99.333 22 -172l-39 19 c-11.333 52.667 -19.833 99.334 -25.5 140.001s-8.5 74 -8.5 100c0 48.667 6.33301 98 19 148c-50 -20 -95.5 -49.5 -136.5 -88.5s-73.5 -84.167 -97.5 -135.5l-76 79v331h-59l-57 56h552l56 -56h-431z"/>
    <glyph glyph-name="u09A7" unicode="" horiz-adv-x="519" d="M434 588l-0.000976562 -601.999l-32 45v-1l-22 39c-7.33301 13.333 -15.666 26.666 -24.999 39.999c-30 44 -60 77 -90 99c-19.333 13.333 -41.666 24 -66.999 32s-53.333 13.667 -84 17l-67 91l148 110c-35.333 0 -64.333 8.33301 -87 25 c-11.333 9.33301 -20.333 20.333 -27 33s-10 27 -10 43c0 26.667 9.16699 48.667 27.5 66s40.833 26 67.5 26c45.333 0 68.666 -15.333 69.999 -46c0.666992 -15.333 -3.33301 -27.333 -12 -36s-20 -13 -34 -13c-6.66699 0 -13.5 1.33301 -20.5 4 s-14.5 7.33398 -22.5 14.001c-6.66699 -8.66699 -10 -19.334 -10 -32.001c0 -18 8 -32.667 24 -44s36.667 -17 62 -17c7.33301 0 59 28.667 155 86v77h104l56 -56h-104zM377.999 464.001c-34 -12.667 -68.5 -30 -103.5 -52s-70.5 -49 -106.5 -81 c91.333 -44 161.333 -106 210 -186v319z"/>
    <glyph glyph-name="u09A8" unicode="" horiz-adv-x="529" d="M443 588l-0.00195312 -601.998l-44 28l4 59c0.666992 63.333 -14 129.333 -44 198c-44.667 78 -96.667 117 -156 117c-7.33301 -0.666992 -12.666 -2.33398 -15.999 -5.00098c24.667 -32.667 37 -56.334 37 -71.001c0 -24 -7 -44.167 -21 -60.5s-32.667 -24.5 -56 -24.5 c-72 0 -108 35 -108 105c0 38 13.333 69.333 40 94c28.667 25.333 61.334 38 98.001 38c78.667 0 148 -62 208 -186h2v310h-394l-55 56h545l58 -56h-98z"/>
    <glyph glyph-name="u09AA" unicode="" horiz-adv-x="612" d="M531 588l-0.000976562 -583.998l-60 58l8 299c0 8.66699 -2 18.167 -6 28.5s-9.66699 21.5 -17 33.5c-7.33301 11.333 -14.666 21 -21.999 29s-14.333 14.667 -21 20l-197 -198l-80 29c38.667 36.667 58 65.667 58 87c0 38.667 -11.333 58 -34 58 c-5.33301 0 -11 -1 -17 -3l-23 -8c-16.667 -7.33301 -30 -11 -40 -11c-11.333 0 -21.5 4.66699 -30.5 14s-13.5 19.666 -13.5 30.999c0 20 7.16699 40 21.5 60s34.5 38.667 60.5 56c24 15.333 48 27 72 35s46.667 12 68 12c82 0 158.333 -60.333 229 -181l2 1 c-2 48.667 -4.33301 97.667 -7 147s-5 98.666 -7 147.999l25 -21c3.33301 -30 6.33301 -49.333 9 -58c8 -18.667 22.333 -28 43 -28c5.33301 0 11.333 0.666992 18 2l56 -56h-95zM364.999 531.002c-26 28.667 -55.334 43 -88.001 43c-62 0 -105.667 -25.333 -131 -76 c30 0 51.833 -10 65.5 -30s18.834 -45 15.501 -75z"/>
    <glyph glyph-name="u09AB" unicode="" horiz-adv-x="669" d="M157 588c30.667 -22.667 59.3291 -47.666 85.9961 -74.999s50 -55 70 -83l-142 -118c88.667 -29.333 156.667 -84.333 204 -165v394c2.66699 0.666992 6.83398 1.16699 12.501 1.5s11.5 0.833008 17.5 1.5s11.5 1.16699 16.5 1.5s8.5 0.5 10.5 0.5 c51.333 0.666992 96.666 -15 135.999 -47c42.667 -34.667 64 -82.334 64 -143.001c0 -67.333 -32.667 -101 -98 -101c-16.667 0 -31.5 6.5 -44.5 19.5s-19.5 28.167 -19.5 45.5c0 16.667 6 30.5 18 41.5s26 16.5 42 16.5c22.667 0 41.334 -8.33301 56.001 -25l6 17 c0 60.667 -46.333 91 -139 91l-23 -2v-456l-34 38v-1c-5.33301 34.667 -37 82 -95 142c-22.667 18 -49.334 31.667 -80.001 41s-64 14.666 -100 15.999l-65 95c18.667 20 41.834 42.333 69.501 67l92.5 79c-13.333 10.667 -27.166 20 -41.499 28s-30.166 14.667 -47.499 20 c-21.333 7.33301 -40.166 13.333 -56.499 18s-27.5 8.66699 -33.5 12c-30.667 14.667 -64.667 43.334 -102 86.001h687l55 -56h-522z"/>
    <glyph glyph-name="u09AC" unicode="" horiz-adv-x="512" d="M425 588l-0.00195312 -588l-31 37c-2 6 -4.5 12.167 -7.5 18.5s-8.66699 17.5 -17 33.5s-20.166 33.5 -35.499 52.5s-29.666 34.833 -42.999 47.5c-48 44 -111.667 70 -191 78l-73 104c112 78 226.667 136.667 344 176v41h-383l-55 56h553l54 -56h-115zM370.998 456 c-36 -13.333 -72.5 -29.333 -109.5 -48s-75.833 -41.667 -116.5 -69c100.667 -42 176 -106 226 -192v309z"/>
    <glyph glyph-name="u09AD" unicode="" horiz-adv-x="615" d="M-3 588l-57 56h625l58 -56h-626zM577 335c0 -34 -4.66504 -65.168 -13.998 -93.501s-23.666 -54.166 -42.999 -77.499c-41.333 -50 -95 -75 -161 -75c-92 0 -169.667 53.667 -233 161c-15.333 25.333 -32.333 61.833 -51 109.5s-39 104.834 -61 171.501l34 -11 c13.333 -44 29.833 -85.5 49.5 -124.5s39.5 -72.5 59.5 -100.5c29.333 -36 62 -63.833 98 -83.5s74.333 -29.5 115 -29.5c41.333 0 77 14.667 107 44c30.667 29.333 46 65 46 107c0 55.333 -8.66699 83 -26 83c-50.667 -61.333 -111 -92 -181 -92 c-34.667 0 -64.334 10.667 -89.001 32c-27.333 21.333 -41 49.666 -41 84.999c0 59.333 30.667 89 92 89c19.333 0 36.166 -6.5 50.499 -19.5s21.5 -29.167 21.5 -48.5c0 -16.667 -8.33301 -36.334 -25 -59.001c25.333 -0.666992 52.333 13.666 81 42.999 c11.333 12.667 21.166 25.667 29.499 39l25.5 41c13.333 -1.33301 27 -8.16602 41 -20.499s28 -30.166 42 -53.499c22 -44.667 33 -83.667 33 -117z"/>
    <glyph glyph-name="u09AE" unicode="" horiz-adv-x="540" d="M552 588l-101.001 -0.00195312v-588l-22 22c-30 113.333 -82 182 -156 206c-16.667 -21.333 -33.667 -35.666 -51 -42.999s-33.333 -11 -48 -11c-26.667 0 -49.167 8.83301 -67.5 26.5s-27.5 40.167 -27.5 67.5c0 31.333 11.667 56.333 35 75c20 16 47 24 81 24 c18 0 32.667 -3.66699 44 -11c0 47.333 -10.333 81.333 -31 102c-13.333 12.667 -39 24.334 -77 35.001c-20 6 -37.167 12.167 -51.5 18.5s-26.166 12.5 -35.499 18.5c-14 9.33301 -31.333 28 -52 56l-59 58h563zM397.999 183.998l0.00195312 404.001h-272 c58 -47.333 98 -86.333 120 -117c35.333 -45.333 53 -94 53 -146v-13c0 -4 -0.333008 -8.66699 -1 -14c21.333 -18 40.166 -36.333 56.499 -55s30.166 -38.334 41.499 -59.001h2z"/>
    <glyph glyph-name="u09AF" unicode="" horiz-adv-x="505" d="M428 588l0.00292969 -589.996l-37 43v-1c-8 22 -19.5 46.667 -34.5 74s-34.167 51 -57.5 71c-42 32.667 -102.333 51 -181 55l-78 96c25.333 24.667 53 49.167 83 73.5s60 46.166 90 65.499c-16.667 12.667 -45.334 27.667 -86.001 45 c-18.667 7.33301 -36.334 15.166 -53.001 23.499s-32.334 17.166 -47.001 26.499c-9.33301 7.33301 -21 17.166 -35 29.499l-49 44.5h517l57 -56h-89zM373.003 588.004h-222.999v-1c38 -20 87 -64.333 147 -133l-64.5 -63.5l-73.5 -76.5 c91.333 -30.667 162.666 -86 213.999 -166v440z"/>
    <glyph glyph-name="u09B0" unicode="" horiz-adv-x="518" d="M425 588l-0.000976562 -588l-31 37v-1c-10.667 26.667 -19.5 46.167 -26.5 58.5s-18.167 28 -33.5 47s-29.666 34.833 -42.999 47.5c-48 44 -111.667 70 -191 78h1l-74 104c112 78 226.667 136.667 344 176v41h-383l-55 56h551l56 -56h-115zM370.999 456 c-36 -13.333 -72.5 -29.333 -109.5 -48s-75.833 -41.667 -116.5 -69c100.667 -42 176 -106 226 -192v309zM133.999 108c0 16.667 5.66699 30.5 17 41.5s25 16.5 41 16.5s29.667 -5.5 41 -16.5s17 -24.833 17 -41.5c0 -15.333 -5.66699 -28.833 -17 -40.5 s-25 -17.5 -41 -17.5s-29.667 5.83301 -41 17.5s-17 25.167 -17 40.5z"/>
    <glyph glyph-name="u09B2" unicode="" horiz-adv-x="588" d="M504 588l0.000976562 -591l-58 54v320c0 20 -7.16699 37.5 -21.5 52.5s-31.5 22.5 -51.5 22.5c-32 0 -48 -19.333 -48 -58c0 -8.66699 1.66699 -20.334 5 -35.001l-23 -9c-5.33301 30 -20.333 54.667 -45 74c-24 19.333 -52 29 -84 29c-14 0 -27.333 -2.83301 -40 -8.5 s-23.834 -13.167 -33.501 -22.5s-17.334 -20.5 -23.001 -33.5s-8.5 -26.5 -8.5 -40.5c0 -45.333 27 -72 81 -80c-12 18 -18 33.667 -18 47c0 16 6.5 30.167 19.5 42.5s27.5 18.5 43.5 18.5c51.333 -3.33301 77 -31 77 -83c-0.666992 -22 -8.66699 -40 -24 -54 s-37.666 -22 -66.999 -24c-24 0 -46 3.83301 -66 11.5s-37.167 18.5 -51.5 32.5s-25.5 30.833 -33.5 50.5s-12 41.5 -12 65.5c0 38.667 10.667 74.334 32 107.001c24 36 54.667 54 92 54c48 0 91 -24.667 129 -74c0 17.333 7.66699 33.333 23 48 c15.333 15.333 30.666 23 45.999 23c46.667 0 81.334 -31 104.001 -93v154h-458l-58 56h619l57 -56h-104z"/>
    <glyph glyph-name="u09B6" unicode="" horiz-adv-x="601" d="M518 588l0.00195312 -589l-58 57l4 359c0 23.333 -12.667 52.333 -38 87c-25.333 33.333 -49.333 50 -72 50c-14.667 0 -28.834 -4.5 -42.501 -13.5s-20.5 -20.167 -20.5 -33.5c58.667 -42 88 -76.667 88 -104c0 -24 -6.5 -43.5 -19.5 -58.5s-31.5 -25.167 -55.5 -30.5 c-18.667 0.666992 -35.834 6.83398 -51.501 18.501s-27.167 28.5 -34.5 50.5c-17.333 -46.667 -48 -70 -92 -70c-20 0 -36.5 8.16699 -49.5 24.5s-19.5 34.833 -19.5 55.5c0 13.333 2.5 26.5 7.5 39.5s12 25.167 21 36.5s19.5 21.333 31.5 30s24.667 15.334 38 20.001 c-26.667 47.333 -58 71.166 -94 71.499s-57.333 0.166016 -64 -0.500977l-56 56h120c29.333 0 57 -11 83 -33s42 -48.667 48 -80c34 76 81 114 141 114c20.667 0 47.667 -19.667 81 -59c30.667 -36.667 49.667 -66.667 57 -90h3l-10 248l34 -32c6 -42 25.333 -64.667 58 -68 l56 -56h-94z"/>
    <glyph glyph-name="u09B7" unicode="" horiz-adv-x="515" d="M433 588l-0.00292969 -584c-13.333 14.667 -25.5 28.834 -36.5 42.501s-21.167 27.834 -30.5 42.501c-20.667 31.333 -38.667 56.833 -54 76.5s-28.666 33.167 -39.999 40.5c-16 11.333 -36.667 20.166 -62 26.499s-54 10.166 -86 11.499l-38.5 49.5l-38.5 49.5l165 140 c-22 20.667 -51 34 -87 40c-9.33301 1.33301 -20.166 3.5 -32.499 6.5s-25.166 7.16699 -38.499 12.5c-11.333 4.66699 -25.833 15.5 -43.5 32.5s-39.167 40.167 -64.5 69.5h517l57 -56h-87zM377.997 588h-230c90 -64 166.667 -126.667 230 -188v188zM376.997 343 l-52.001 46.999c-15.333 13.333 -29.666 24.666 -42.999 33.999c-14 -9.33301 -30.5 -22.666 -49.5 -39.999s-40.5 -39.666 -64.5 -66.999c79.333 -29.333 149 -86.333 209 -171v197z"/>
    <glyph glyph-name="u09B8" unicode="" horiz-adv-x="591" d="M500 588l-0.000976562 -589.997l-27.5 31.5l-26.5 31.5c0.666992 20 1.33398 36.833 2.00098 50.5s1.16699 25 1.5 34s0.5 16.5 0.5 22.5v17c0 44.667 -4.33301 83.667 -13 117s-20.167 58 -34.5 74s-31.166 22.167 -50.499 18.5s-39.333 -20.167 -60 -49.5 c-18.667 -31.333 -34.834 -56.166 -48.501 -74.499s-25.5 -32.166 -35.5 -41.499s-18.5 -15.166 -25.5 -17.499s-13.5 -3.5 -19.5 -3.5c-17.333 0 -32.833 4.16699 -46.5 12.5s-25.834 18.666 -36.501 30.999s-20 25.666 -28 39.999l-22 40.5l37 34 c2 -6.66699 4.5 -14.334 7.5 -23.001s6.83301 -16.834 11.5 -24.501s10.167 -14.167 16.5 -19.5s13.5 -8 21.5 -8c3.33301 0 7.33301 1.33301 12 4s10.834 8.16699 18.501 16.5s17.667 20 30 35l46.5 59.5c-3.33301 26.667 -7.83301 47.5 -13.5 62.5s-13.667 26.667 -24 35 s-23.333 14.666 -39 18.999s-35.167 9.16602 -58.5 14.499c-13.333 3.33301 -26.833 8.5 -40.5 15.5s-27.834 16.167 -42.501 27.5c-5.33301 4 -13.666 11.333 -24.999 22l-43 42h604l54 -56h-103zM445.999 588.003l-264.002 0.00292969 c30 -26.667 50.833 -51.334 62.5 -74.001s17.834 -48.334 18.501 -77.001c18.667 20.667 35.834 34.167 51.501 40.5s30.5 6.83301 44.5 1.5s28 -15.333 42 -30s29 -32.334 45 -53.001v192z"/>
    <glyph glyph-name="u09B9" unicode="" horiz-adv-x="504" d="M544 588l-295.998 0.00292969l16 -21.5l15 -19.5c57.333 -20 95.333 -41.333 114 -64c30 -29.333 45 -68 45 -116c0 -44 -18.333 -81 -55 -111c-26.667 -22.667 -68.334 -41.667 -125.001 -57c38 -22.667 78.5 -52.334 121.5 -89.001s89.5 -80.334 139.5 -131.001v1 l13 -59c-26.667 30 -56 58.167 -88 84.5s-68 51.166 -108 74.499c-38 21.333 -77.333 40 -118 56s-81.334 29 -122.001 39l-67 140c46 -25.333 98.333 -40.666 157 -45.999c43.333 -3.33301 81.666 3.66699 114.999 21c46 22.667 68 53 66 91c0 12 -1.83301 23.667 -5.5 35 s-9 21.333 -16 30s-15.167 15.667 -24.5 21s-17.666 8.16602 -24.999 8.49902s-13.833 0 -19.5 -1s-11.167 -2.83301 -16.5 -5.5c0 -26.667 -11.333 -51 -34 -73c-23.333 -22 -48 -33 -74 -33c-16.667 0 -32 5.16699 -46 15.5s-21 23.833 -21 40.5 c0 31.333 13.333 59.333 40 84c26 24 56.333 37.333 91 40c0 10.667 -12.667 25.667 -38 45h-200l-56 56h566z"/>
    <glyph glyph-name="u09BC" unicode="" horiz-adv-x="0" d="M54 -56c15.333 0 28.5 -5.33301 39.5 -16s16.5 -23.667 16.5 -39s-5.5 -28.333 -16.5 -39s-24.167 -16 -39.5 -16s-28.333 5.33301 -39 16s-16 23.667 -16 39s5.33301 28.333 16 39s23.667 16 39 16z"/>
    <glyph glyph-name="u09BD" unicode="" horiz-adv-x="523" d="M281 547c44 -8.66699 81.3359 -29.999 112.003 -63.999c30 -29.333 45 -68 45 -116c0 -44 -16 -79.333 -48 -106s-76 -47.334 -132 -62.001c38 -22.667 78.5 -52.334 121.5 -89.001s89.5 -80.334 139.5 -131.001l13 -58c-26.667 30 -56 58.167 -88 84.5 s-68 51.166 -108 74.499c-38 21.333 -77.333 40 -118 56s-81.334 29 -122.001 39l-67 140c47.333 -26 99.666 -41.333 156.999 -46c43.333 -3.33301 81.666 3.66699 114.999 21c46 22.667 68 53 66 91c0 12 -1.83301 23.667 -5.5 35s-9 21.333 -16 30 s-15.167 15.667 -24.5 21s-19.5 7.83301 -30.5 7.5s-21.167 -2.16602 -30.5 -5.49902c0 -26.667 -11.333 -51 -34 -73c-23.333 -22 -48 -33 -74 -33c-16.667 0 -32 5.16699 -46 15.5s-21 23.833 -21 40.5c0 32.667 13 60 39 82c12.667 10.667 26.834 19.834 42.501 27.501 s31.5 13.167 47.5 16.5c8.66699 1.33301 19.667 2.33301 33 3s24.666 0.333984 33.999 -0.999023z"/>
    <glyph glyph-name="u09BE" unicode="" horiz-adv-x="207" d="M122 588v-585.001l-54 56v415c0 17.333 -3.33301 33 -10 47s-15.834 25.833 -27.501 35.5s-25 17.334 -40 23.001s-30.5 8.5 -46.5 8.5l-56 56h64c34 0 60.333 -7.5 79 -22.5s33.667 -39.833 45 -74.5c0 11.333 -0.333008 25.333 -1 42s-2 36.334 -4 59.001 c-1.33301 22 -2.33301 41.167 -3 57.5s-1 30.166 -1 41.499l20 -17c6.66699 -40 18.334 -68.667 35.001 -86h50l55 -56h-105z"/>
    <glyph glyph-name="u09BF" unicode="" horiz-adv-x="207" d="M586 712c-18 16 -37.999 31.832 -59.999 47.499s-47 31.167 -75 46.5c-25.333 14.667 -51.5 25.334 -78.5 32.001s-54.833 10 -83.5 10c-42 0 -85 -14.667 -129 -44c-48.667 -32 -74.334 -67.667 -77.001 -107l22 -53h61l57 -56h-98v-585l-57 56v529h-85l-55 56h149 l-39 37c-14.667 14.667 -22 29.667 -22 45c0 45.333 25.333 88 76 128c49.333 37.333 97 56 143 56c118.667 0 232 -56 340 -168z"/>
    <glyph glyph-name="u09C0" unicode="" horiz-adv-x="208" d="M126 588l-0.00195312 -584.998l-55 56v529h-82l-61 56h143c-27.333 158 -134.333 237 -321 237c-15.333 0 -30.666 -0.833008 -45.999 -2.5s-30.666 -4.5 -45.999 -8.5c-45.333 -10 -68 -25.333 -68 -46c0 -16.667 28.667 -26.667 86 -30 c76.667 -4 127.667 -9.66699 153 -17c30 -9.33301 52.333 -22.333 67 -39s22 -38.667 22 -66c0 -2.66699 -1.33301 -14 -4 -34h-56c16 11.333 24 24.666 24 39.999c0 21.333 -28.333 35 -85 41l-103.5 13c-25.667 3.33301 -42.167 5.66602 -49.5 6.99902 c-25.333 8 -45.333 19.333 -60 34s-22 32.334 -22 53.001c0 18 7 34.167 21 48.5s33.667 27.166 59 38.499c20 7.33301 41.333 13.5 64 18.5s44.667 7.5 66 7.5c182 0 300 -98.333 354 -295h54l55 -56h-109z"/>
    <glyph glyph-name="u09C1" unicode="" horiz-adv-x="0" d="M100 -268c-10 13.333 -20.998 26.834 -32.998 40.501s-24.5 26.667 -37.5 39s-26 23.666 -39 33.999s-25.167 18.833 -36.5 25.5c-29.333 -41.333 -67.333 -63.666 -114 -66.999c-28.667 0 -54 7.66699 -76 23c-21.333 16 -32 37 -32 63c0 13.333 2.83301 25.5 8.5 36.5 s13.167 20.5 22.5 28.5s20.166 14.167 32.499 18.5s25.166 6.5 38.499 6.5c21.333 0 48.666 -10 81.999 -30c4.66699 10 6.5 25.167 5.5 45.5s-3.83301 42.833 -8.5 67.5l47 -31c7.33301 -16 11.5 -34.667 12.5 -56s0.833008 -40 -0.5 -56 c14.667 -12.667 29.834 -26.834 45.501 -42.501s30.167 -31.167 43.5 -46.5c11.333 -13.333 19.5 -23.833 24.5 -31.5s9.83301 -15.5 14.5 -23.5v-44zM-153.998 -72.999c-37.333 -0.666992 -56.666 -12.001 -57.999 -34.001c0 -17.333 9.33301 -27.666 28 -30.999 c16 -2 32.667 1 50 9c15.333 10 25.666 20.333 30.999 31c-6.66699 7.33301 -14.167 12.833 -22.5 16.5s-17.833 6.5 -28.5 8.5z"/>
    <glyph glyph-name="u09C2" unicode="" horiz-adv-x="0" d="M160 -290l-159.999 136.003c-36 -24 -73 -35.667 -111 -35c-28 0 -52.333 10.333 -73 31c-21.333 20.667 -32 44.667 -32 72c0 15.333 2.83301 29.166 8.5 41.499s14.5 23.166 26.5 32.499c21.333 17.333 47.333 26 78 26c12 0 23.333 -1.33301 34 -4l3 68 c7.33301 -7.33301 14.166 -15.5 20.499 -24.5s11.833 -17.167 16.5 -24.5c1.33301 -7.33301 -0.666992 -30 -6 -68c-11.333 4 -22 6 -32 6c-13.333 0 -23.5 -0.166992 -30.5 -0.5s-15.833 -2.5 -26.5 -6.5c-23.333 -13.333 -34 -30.666 -32 -51.999 c0.666992 -7.33301 4.33398 -14.333 11.001 -21s18 -10.334 34 -11.001c12 -2 27.167 -0.833008 45.5 3.5s38.166 15.166 59.499 32.499l167 -144z"/>
    <glyph glyph-name="u09C3" unicode="" horiz-adv-x="0" d="M69 -312l-335 201l168 123l19 55l51 -91l-125 -99l203 -131z"/>
    <glyph glyph-name="u09C4" unicode="" horiz-adv-x="0" d="M54 -402c-16 18 -113.998 70.667 -293.998 158l106 62l-53.5 26.5l-60.5 28.5l167 99l19 45c7.33301 -12 15.166 -24 23.499 -36s16.166 -24 23.499 -36l-127 -71l157 -91c7.33301 -9.33301 13.833 -19.5 19.5 -30.5s9.16699 -22.167 10.5 -33.5 c-14 12.667 -54.667 36 -122 70l-58 -32l157 -92c7.33301 -9.33301 14 -20 20 -32s10 -23.667 12 -35z"/>
    <glyph glyph-name="u09C7" unicode="" horiz-adv-x="326" d="M353 588c-42 -10 -78.335 -25.6689 -109.002 -47.002s-56.667 -48 -78 -80c-19.333 -30 -34 -63.333 -44 -100s-15 -77.667 -15 -123c0.666992 -40 11.334 -76 32.001 -108c36 -50 71 -70 105 -60c-12.667 8 -21.834 17.333 -27.501 28s-8.5 21.667 -8.5 33 c0 17.333 7.16699 32 21.5 44s30.166 18 47.499 18c18.667 0 34.667 -7.5 48 -22.5s20 -34.167 20 -57.5c0 -13.333 -2.66699 -25.666 -8 -36.999s-12.666 -21.166 -21.999 -29.499s-20.166 -14.833 -32.499 -19.5s-25.166 -7 -38.499 -7c-65.333 0 -115.333 32.667 -150 98 c-29.333 53.333 -44 115 -44 185c0 97.333 39.667 192.333 119 285h-186l-56 56h371z"/>
    <glyph glyph-name="u09C8" unicode="" horiz-adv-x="324" d="M356 588c-42 -10 -78.6689 -25.665 -110.002 -46.998s-57.666 -48 -78.999 -80c-40 -60 -60 -134.333 -60 -223c0 -38.667 10.667 -74.667 32 -108c24 -43.333 53.667 -65 89 -65h4c5.33301 0 9.33301 1.66699 12 5c-12.667 8 -21.834 17.333 -27.501 28 s-8.5 21.667 -8.5 33c0 17.333 7.16699 32 21.5 44s30.166 18 47.499 18c18.667 0 34.667 -7.5 48 -22.5s20 -34.167 20 -57.5c0 -13.333 -2.66699 -25.666 -8 -36.999s-12.666 -21.166 -21.999 -29.499s-20.166 -14.833 -32.499 -19.5s-25.166 -7 -38.499 -7 c-65.333 0 -115.333 32.667 -150 98c-29.333 53.333 -44 115 -44 185c0 97.333 39.667 192.333 119 285h-186l-56 56h275l16 23c0 13.333 -4.66699 24.666 -14 33.999s-22.333 16.666 -39 21.999c-17.333 5.33301 -34.833 10.166 -52.5 14.499 s-34.834 9.16602 -51.501 14.499c-17.333 8.66699 -30.833 20.667 -40.5 36s-14.5 34 -14.5 56c0 8 2 16.333 6 25s9.66699 18 17 28l19 -19l-13 -23c0 -31.333 21.333 -49 64 -53c62.667 -5.33301 101.334 -12 116.001 -20c19.333 -11.333 34.333 -28.5 45 -51.5 s16 -51.833 16 -86.5h56l55 -56h-31z"/>
    <glyph glyph-name="u09CB" unicode="" horiz-adv-x="648" d="M561 588l-0.000976562 -605.004l-27 29l-27 29v433c0 37.333 -18.667 66.333 -56 87c-30 18 -64.333 27 -103 27c-31.333 0 -66.333 -15 -105 -45c-35.333 -27.333 -62 -55 -80 -83c-37.333 -60.667 -56 -134.667 -56 -222c0 -18.667 2.83301 -37.667 8.5 -57 s13.5 -38 23.5 -56c24.667 -44.667 54.334 -67 89.001 -67c0.666992 0.666992 2 1.33398 4 2.00098c1.33301 0.666992 3 1.16699 5 1.5s4.33301 1.16602 7 2.49902c-24 20 -36 41 -36 63c0 16.667 7.16699 31 21.5 43s30.166 18 47.499 18 c18.667 0 34.667 -7.83301 48 -23.5s20 -32.834 20 -51.501c0 -13.333 -2.66699 -25.666 -8 -36.999s-12.666 -21.166 -21.999 -29.499s-20.166 -14.833 -32.499 -19.5s-25.166 -7 -38.499 -7c-65.333 0 -115.333 32.667 -150 98c-29.333 53.333 -44 115 -44 185 c0 97.333 39.667 192.333 119 285h-176l-56 56h436c47.333 0 82.666 -14 105.999 -42c8.66699 -9.33301 16.667 -22.666 24 -39.999s15.666 -39 24.999 -65c-15.333 64.667 -23 147.334 -23 248.001l21 -16c5.33301 -39.333 17 -67.666 35 -84.999h40l54 -56h-94z"/>
    <glyph glyph-name="u09CC" unicode="" horiz-adv-x="633" d="M529 588l-0.00292969 -603l-62 61v542h-121c-30 0 -64.333 -15 -103 -45c-35.333 -27.333 -62 -55 -80 -83c-37.333 -60.667 -56 -134.667 -56 -222c0 -18.667 2.83301 -37.667 8.5 -57s13.5 -38 23.5 -56c24.667 -44.667 54.334 -67 89.001 -67 c0.666992 0.666992 2 1.33398 4 2.00098c1.33301 0.666992 3 1.16699 5 1.5s4.33301 1.16602 7 2.49902c-24 20 -36 41 -36 63c0 16.667 7.16699 31 21.5 43s30.166 18 47.499 18c18.667 0 34.667 -7.83301 48 -23.5s20 -32.834 20 -51.501 c0 -13.333 -2.66699 -25.666 -8 -36.999s-12.666 -21.166 -21.999 -29.499s-20.166 -14.833 -32.499 -19.5s-25.166 -7 -38.499 -7c-65.333 0 -115.333 32.667 -150 98c-29.333 53.333 -44 115 -44 185c0 97.333 39.667 192.333 119 285h-176l-56 56h530l15 38 c0 37.333 -35.333 56 -106 56c-14.667 0 -32.334 -1 -53.001 -3l-37 -2c-57.333 0 -104.666 8.33301 -141.999 25c-51.333 21.333 -77 56 -77 104c0 10 2.83301 21.333 8.5 34s13.834 26.667 24.501 42l22 -19c-13.333 -10.667 -20 -24.334 -20 -41.001 c0 -48 41.667 -72 125 -72c8 0 17.5 0.333008 28.5 1s24.167 2 39.5 4l40 3.5c11.333 1 20.666 1.5 27.999 1.5c116 0 174 -43.333 174 -130c0 -7.33301 -0.666992 -14.333 -2 -21l-4 -21h55l56 -56h-113z"/>
    <glyph glyph-name="u09CD" unicode="" horiz-adv-x="0" d="M-28 -222l-177 140v75l178 -168z"/>
    <glyph glyph-name="u09A4_u09CD" unicode="" horiz-adv-x="466" d="M448 65c0 -14 -0.999023 -28 -2.99902 -42l-43 13c8.66699 10.667 13 23.667 13 39c0 21.333 -9 41.333 -27 60s-44 36.667 -78 54c-32.667 16 -65.167 31 -97.5 45s-64.166 30.333 -95.499 49c-68.667 47.333 -103 106.666 -103 177.999 c0 52.667 18.333 97.334 55 134.001c37.333 37.333 82.666 56 135.999 56c20.667 0 40.167 -3.33301 58.5 -10s34.166 -16.167 47.499 -28.5s24 -27 32 -44s12 -35.833 12 -56.5c0 -32.667 -9.5 -59 -28.5 -79s-44.5 -30 -76.5 -30 c-77.333 0.666992 -125.666 48 -144.999 142c-24.667 -10 -38 -33.333 -40 -70c0 -50 33.333 -94 100 -132l92.5 -47c30.333 -14.667 61.166 -31.667 92.499 -51c65.333 -48 98 -108 98 -180zM307.001 529c-7.33301 40 -44.333 56.665 -111 49.998 c-20 -2.66699 -36 -7.66699 -48 -15c0 -29.333 10.667 -54.666 32 -75.999c20 -17.333 40 -24.666 60 -21.999c19.333 2.66699 35.833 9.66699 49.5 21s19.5 25.333 17.5 42z"/>
    <glyph glyph-name="u09D7" unicode="" horiz-adv-x="243" d="M151 588l0.00292969 -600.998l-60 61v540h-94l-56 56h150c8.66699 13.333 13.334 26 14.001 38c0 37.333 -35.333 56 -106 56c-15.333 0 -30.333 -0.833008 -45 -2.5s-29.667 -2.5 -45 -2.5c-56 -0.666992 -103 7.66602 -141 24.999c-52 22 -78 56.667 -78 104 c0 10 2.66699 21.333 8 34s13.666 26.667 24.999 42l22 -19c-13.333 -10.667 -20 -24.334 -20 -41.001c0 -48 41.667 -72 125 -72c8 0 17.667 0.333008 29 1s24.666 2 39.999 4s28.666 3.33301 39.999 4s20.666 1 27.999 1c115.333 0 173 -43.333 173 -130 c0 -7.33301 -0.5 -14.333 -1.5 -21s-2.5 -13.667 -4.5 -21h49l56 -56h-108z"/>
    <glyph glyph-name="u09DC" unicode="" horiz-adv-x="597" d="M268 -61c0 18.667 6.5 34.5 19.5 47.5s28.833 19.5 47.5 19.5s34.5 -6.5 47.5 -19.5s19.5 -28.833 19.5 -47.5c0 -19.333 -6.5 -35.333 -19.5 -48s-28.833 -19 -47.5 -19s-34.5 6.33301 -47.5 19s-19.5 28.667 -19.5 48zM287 588l-0.00390625 -226.997 c18.667 -2.66699 34.834 0.166016 48.501 8.49902s26.167 19.333 37.5 33s22.166 28 32.499 43s21.5 27.833 33.5 38.5c16.667 -9.33301 31.334 -21 44.001 -35s23.167 -29.5 31.5 -46.5s14.833 -35 19.5 -54s7 -37.833 7 -56.5c0 -64 -17.667 -116.333 -53 -157 c-36.667 -42.667 -87 -64 -151 -64c-166.667 0 -265 159.667 -295 479l37 -18c4 -42.667 11.333 -84.334 22 -125.001s24.334 -76.667 41.001 -108c44.667 -86 107.334 -129 188.001 -129c29.333 -0.666992 57.166 6.16602 83.499 20.499s47.333 32.5 63 54.5 s23.834 46.333 24.501 73s-10.333 51.667 -33 75c-5.33301 -16 -13.5 -30.667 -24.5 -44s-23.667 -25 -38 -35s-29.666 -18.333 -45.999 -25s-32.5 -11 -48.5 -13c-52 0 -78 40 -78 120v192h-236l-56 56h610l54 -56h-318z"/>
    <glyph glyph-name="u09DD" unicode="" horiz-adv-x="478" d="M148 588v-377.001c0 -25.333 9.33301 -38 28 -38c31.333 0 64.666 21.333 99.999 64c15.333 18.667 27.833 37.5 37.5 56.5s15.167 37.167 16.5 54.5c-11.333 -4 -22.333 -5.16699 -33 -3.5s-20.167 5.33398 -28.5 11.001s-15.166 13.167 -20.499 22.5s-8 19.333 -8 30 c-0.666992 22.667 5.5 41.5 18.5 56.5s30.167 22.5 51.5 22.5c14.667 0 28.5 -3.5 41.5 -10.5s24 -16.167 33 -27.5s16.167 -24 21.5 -38s8 -27.667 8 -41c0 -61.333 -21 -120.333 -63 -177c-43.333 -61.333 -95 -92 -155 -92c-71.333 0 -107 53 -107 159v328h-94l-54 56 h489l56 -56h-338zM143 -36.001c0 18.667 6.5 34.5 19.5 47.5s28.833 19.5 47.5 19.5c19.333 0 35.333 -6.5 48 -19.5s19 -28.833 19 -47.5c0 -18 -6.33301 -33.667 -19 -47s-28.667 -20 -48 -20c-18.667 0 -34.5 6.66699 -47.5 20s-19.5 29 -19.5 47z"/>
    <glyph glyph-name="u09DF" unicode="" horiz-adv-x="514" d="M429 588v-594.999c-15.333 11.333 -36 40 -62 86c-28 48.667 -55 84.334 -81 107.001c-42.667 33.333 -98 51.666 -166 54.999l-75 97l88.5 82c29 26 55.833 48 80.5 66c-6.66699 7.33301 -19.667 15.666 -39 24.999s-45 20 -77 32c-75.333 22 -127 55.667 -155 101h519 l58 -56h-91zM374 588.001h-215c17.333 -10.667 38 -27.667 62 -51s50 -52 78 -86l-68 -66.5l-69 -72.5c92 -32 162 -88.667 210 -170h2v446zM140 92.001c0 16 5.66699 29.667 17 41s24.666 17 39.999 17c16 0 29.667 -5.66699 41 -17s17 -25 17 -41 c0 -15.333 -5.66699 -28.666 -17 -39.999s-25 -17 -41 -17c-15.333 0 -28.666 5.66699 -39.999 17s-17 24.666 -17 39.999z"/>
    <glyph glyph-name="u09E0" unicode="" horiz-adv-x="690" d="M586 588l-0.00292969 -464.001l-16 19c-8.66699 78 -53 138 -133 180v-275l-25 39l-127 -93l83.5 -58c19.667 -13.333 40.334 -29.333 62.001 -48s34.5 -49 38.5 -91c-11.333 16 -28.166 33 -50.499 51s-49.833 37.667 -82.5 59l-155 91l191 150 c-28 38.667 -61.167 71 -99.5 97s-81.833 46.667 -130.5 62h1c-10 13.333 -20 27.5 -30 42.5l-30 43.5c28.667 21.333 65 45 109 71s95.333 54 154 84c-22 30.667 -48 47 -78 49c-11.333 -22.667 -33.666 -41 -66.999 -55c-31.333 -14 -60.666 -21 -87.999 -21 c-24 0 -45.667 7 -65 21c-20 16.667 -30 36.667 -30 60c0 42 20.667 63 62 63c31.333 0 47 -19 47 -57c25.333 2.66699 48.666 11.334 69.999 26.001s39 32.667 53 54c25.333 -14.667 49.333 -32.667 72 -54s41.667 -45.333 57 -72h2v195l56 -55v-310 c42 -25.333 72.667 -55.333 92 -90h2v450l54 -54v-54h59l56 -56h-114zM381.997 474.999c-32.667 -16.667 -63.333 -33.832 -92 -51.499s-55.667 -35.834 -81 -54.501c65.333 -35.333 123 -87.333 173 -156v262z"/>
    <glyph glyph-name="u09E1" unicode="" horiz-adv-x="600" d="M468 -32l23.5078 -21.5029c8.33301 -7.66699 16.166 -16.167 23.499 -25.5s13.666 -19.833 18.999 -31.5s8.66602 -24.834 9.99902 -39.501c2 -24 -3.33301 -45 -16 -63s-29.167 -32.833 -49.5 -44.5s-42.333 -20.334 -66 -26.001s-44.834 -8.83398 -63.501 -9.50098 c-3.33301 0 -5.83301 1.33301 -7.5 4s-1.83398 5.66699 -0.500977 9c3.33301 9.33301 5.16602 14 5.49902 14s1.16602 1 2.49902 3v-1l4 6l7 11c7.33301 12 14.666 24.833 21.999 38.5s11 27.167 11 40.5c0 8 -5 17.667 -15 29 c-3.33301 2.66699 -8.33301 5.33398 -15 8.00098s-13.667 4 -21 4s-14.666 -1.66699 -21.999 -5s-12.666 -8.66602 -15.999 -15.999c-2 -4 -2 -6.66699 0 -8s4.66699 -2.66602 8 -3.99902h-2h5c8 -2.66699 16 -6 24 -10s12 -12.333 12 -25c0 -4.66699 -0.5 -9.5 -1.5 -14.5 s-3.16699 -11.167 -6.5 -18.5c-6 -7.33301 -12.667 -13 -20 -17s-14.666 -6 -21.999 -6c-15.333 0 -28.333 6 -39 18c-10 8.66699 -16.333 20.167 -19 34.5s-3.66699 25.833 -3 34.5c0.666992 8 3.16699 16.833 7.5 26.5s10.333 18.834 18 27.501s16.5 16.334 26.5 23.001 s21 11 33 13c15.333 0.666992 30 -0.833008 44 -4.5s26.167 -9.66699 36.5 -18s18.666 -18.5 24.999 -30.5s9.5 -25.667 9.5 -41s-2.33301 -30 -7 -44c8 5.33301 15.667 11.5 23 18.5l21 20.5c4 4 7.16699 8.16699 9.5 12.5s3.5 9.83301 3.5 16.5 c0 8.66699 -4.5 19.167 -13.5 31.5s-21.167 23.5 -36.5 33.5l-53 37l-34.5 25c-11.667 8.66699 -22.167 17.667 -31.5 27s-17 19 -23 29s-9 20.667 -9 32c0 18 12.333 34.333 37 49c3.33301 0.666992 6.83301 1 10.5 1h12.5c9.33301 0 18.166 -1.83301 26.499 -5.5 s12.5 -10.5 12.5 -20.5c0 -7.33301 -5.66699 -17.666 -17 -30.999c-4.66699 -4.66699 -1.83398 -12 8.49902 -22s22.833 -20.667 37.5 -32l11 -10l29 -23zM434.008 430.997l38.4971 -33.501c13.667 -12.333 26.5 -26.166 38.5 -41.499s22.333 -32.333 31 -51 s14 -39.334 16 -62.001c2.66699 -26 -0.333008 -49.5 -9 -70.5s-21.334 -39.667 -38.001 -56s-36.167 -30.666 -58.5 -42.999s-45.5 -22.666 -69.5 -30.999s-48.167 -14.5 -72.5 -18.5s-46.5 -6 -66.5 -6c5.33301 10 12.666 21.667 21.999 35l22.5 37.5 c7.66699 13 14.834 26.333 21.501 40s12 27.167 16 40.5s6 26.666 6 39.999c0 22.667 -9 43 -27 61c-7.33301 6.66699 -17.5 12.667 -30.5 18s-27.167 8 -42.5 8s-30.5 -3.5 -45.5 -10.5s-27.167 -19.167 -36.5 -36.5c-8 -14 -8.16699 -23.667 -0.5 -29 s18.167 -9.66602 31.5 -12.999c6 -1.33301 12 -3 18 -5s11.5 -4.5 16.5 -7.5s9.16699 -6.83301 12.5 -11.5s5 -11 5 -19c0 -10.667 -4.33301 -25.667 -13 -45c-8 -10.667 -17.167 -18.667 -27.5 -24s-20.833 -8 -31.5 -8c-22 0 -40 8 -54 24 c-7.33301 6.66699 -13.166 14.834 -17.499 24.501s-7.66602 19.5 -9.99902 29.5s-3.66602 19.333 -3.99902 28s-0.166016 15.667 0.500977 21c0 12 3.16699 25.667 9.5 41s15.333 30 27 44s25.334 26.167 41.001 36.5s32.834 16.833 51.501 19.5 c24 0.666992 46.667 -2 68 -8s40.166 -15.333 56.499 -28s29.166 -28.167 38.499 -46.5s14 -38.833 14 -61.5c0 -16.667 -2.33301 -34.167 -7 -52.5s-12.334 -37.833 -23.001 -58.5c8 2.66699 17 7 27 13s20.167 12.833 30.5 20.5s20.333 15.667 30 24 s18.167 16.166 25.5 23.499c10.667 10.667 19 21.667 25 33s9 23.333 9 36c0 18.667 -8.16699 39.167 -24.5 61.5s-38.5 42.833 -66.5 61.5l-89 65l-57.5 40.5c-19 13.667 -36 28 -51 43s-27.167 30.333 -36.5 46s-14 32.167 -14 49.5c0 25.333 17.667 46.666 53 63.999 c4.66699 2 9.33398 3.33301 14.001 4s9.66699 1 15 1c12 0 23.5 -2.16699 34.5 -6.5s16.5 -11.833 16.5 -22.5c0 -12 -8 -26 -24 -42c-8 -7.33301 -10.5 -15.5 -7.5 -24.5s9.5 -19.167 19.5 -30.5s22.667 -23.5 38 -36.5l50 -41.5l47 -38z"/>
    <glyph glyph-name="u09E2" unicode="" horiz-adv-x="349" d="M300 -133l23.5078 -21.502c8.33301 -7.66699 16.166 -16.167 23.499 -25.5s13.666 -19.833 18.999 -31.5s8.66602 -24.834 9.99902 -39.501c2 -24 -3.33301 -45 -16 -63s-29.167 -32.833 -49.5 -44.5s-42.333 -20.334 -66 -26.001s-44.834 -8.83398 -63.501 -9.50098 c-3.33301 0 -5.83301 1.33301 -7.5 4s-1.83398 5.66699 -0.500977 9c3.33301 9.33301 5.16602 14 5.49902 14s1.16602 1 2.49902 3v-1l4 6l7 11c7.33301 12 14.666 24.833 21.999 38.5s11 27.167 11 40.5c0 8 -5 17.667 -15 29 c-3.33301 2.66699 -8.33301 5.33398 -15 8.00098s-13.667 4 -21 4s-14.666 -1.66699 -21.999 -5s-12.666 -8.66602 -15.999 -15.999c-2 -4 -2 -6.66699 0 -8s4.66699 -2.66602 8 -3.99902h-2h5c8 -2.66699 16 -6 24 -10s12 -12.333 12 -25c0 -4.66699 -0.5 -9.5 -1.5 -14.5 s-3.16699 -11.167 -6.5 -18.5c-6 -7.33301 -12.667 -13 -20 -17s-14.666 -6 -21.999 -6c-15.333 0 -28.333 6 -39 18c-10 8.66699 -16.333 20.167 -19 34.5s-3.66699 25.833 -3 34.5c0.666992 8 3.16699 16.833 7.5 26.5s10.333 18.834 18 27.501s16.5 16.334 26.5 23.001 s21 11 33 13c15.333 0.666992 30 -0.833008 44 -4.5s26.167 -9.66699 36.5 -18s18.666 -18.5 24.999 -30.5s9.5 -25.667 9.5 -41s-2.33301 -30 -7 -44c8 5.33301 15.167 9.66602 21.5 12.999s12.833 8.33301 19.5 15c4 4 7.66699 10 11 18s5 15.333 5 22 c0 8.66699 -4.5 19.167 -13.5 31.5s-21.167 23.5 -36.5 33.5l-53 37l-34.5 25c-11.667 8.66699 -22.167 17.667 -31.5 27s-17 19 -23 29s-9 20.667 -9 32c0 18 12.333 34.333 37 49c3.33301 0.666992 6.83301 1 10.5 1h12.5c9.33301 0 18.166 -1.83301 26.499 -5.5 s12.5 -10.5 12.5 -20.5c0 -7.33301 -5.66699 -17.666 -17 -30.999c-4.66699 -4.66699 -1.83398 -12 8.49902 -22s22.833 -20.667 37.5 -32l11 -10l29 -23z"/>
    <glyph glyph-name="u09E3" unicode="" horiz-adv-x="324" d="M229 5l18.501 -16.9951c6.33301 -6 12.5 -12.833 18.5 -20.5s11 -16.167 15 -25.5s6.66699 -19.666 8 -30.999c2 -22 -4 -41 -18 -57l12 -9l9 -8l23 -19l9 -7l18.5 -17c6.33301 -6 12.5 -12.833 18.5 -20.5s11 -16.167 15 -25.5s6.66699 -19.666 8 -30.999 c2 -19.333 -2.16699 -36.166 -12.5 -50.499s-23.5 -26.166 -39.5 -35.499s-33.5 -16.333 -52.5 -21s-36.167 -7.33398 -51.5 -8.00098c-2 0 -3.83301 1 -5.5 3s-1.83398 4.66699 -0.500977 8c2.66699 7.33301 4.16699 11 4.5 11s0.833008 0.666992 1.5 2l4 4l5 9l17.5 30.5 c6.33301 11 9.5 21.833 9.5 32.5c0 6.66699 -4 14.667 -12 24c-3.33301 2 -7.5 4 -12.5 6s-10.5 3 -16.5 3s-11.833 -1.33301 -17.5 -4s-10.167 -7 -13.5 -13c-2.66699 -4.66699 -0.666992 -7.66699 6 -9h3c6.66699 -2 13.167 -4.66699 19.5 -8s9.5 -10 9.5 -20 c0 -3.33301 -0.333008 -7.16602 -1 -11.499s-2.33398 -9.5 -5.00098 -15.5c-10 -12 -21.333 -18 -34 -18c-11.333 0 -21.666 4.66699 -30.999 14c-8 7.33301 -13.167 16.666 -15.5 27.999s-3.16602 20.666 -2.49902 27.999c0.666992 6 2.83398 12.833 6.50098 20.5 s8.5 15 14.5 22s13 13.333 21 19s16.667 9.16699 26 10.5c25.333 1.33301 47 -4.83398 65 -18.501s27 -32.834 27 -57.501c0 -5.33301 -0.333008 -11 -1 -17s-2 -12 -4 -18c6 4.66699 12 9.66699 18 15s11.667 10.666 17 15.999c3.33301 3.33301 5.83301 6.83301 7.5 10.5 s2.5 8.16699 2.5 13.5c0 6.66699 -3.5 15 -10.5 25s-16.833 19 -29.5 27l-42 29l-14 10c-4.66699 3.33301 -9 6.66602 -13 9.99902c-16 -8.66699 -32.833 -15.167 -50.5 -19.5s-33.834 -6.83301 -48.501 -7.5c-2 0 -3.83301 1 -5.5 3s-1.83398 4.66699 -0.500977 8 c2.66699 7.33301 4.16699 11 4.5 11s0.833008 0.666992 1.5 2l4 4l5 9l17.5 30.5c6.33301 11 9.5 21.833 9.5 32.5c0 6.66699 -4 14.667 -12 24c-3.33301 2 -7.5 4 -12.5 6s-10.5 3 -16.5 3s-11.833 -1.33301 -17.5 -4s-10.167 -7 -13.5 -13 c-2.66699 -4.66699 -0.666992 -7.66699 6 -9h1h2c6.66699 -2 13.167 -4.66699 19.5 -8s9.5 -10 9.5 -20c0 -3.33301 -0.333008 -7.16602 -1 -11.499s-2.33398 -9.5 -5.00098 -15.5c-10 -12 -21.333 -18 -34 -18c-11.333 0 -21.666 4.66699 -30.999 14 c-8 7.33301 -13.167 16.666 -15.5 27.999s-3.16602 20.666 -2.49902 27.999c0.666992 6 2.83398 12.833 6.50098 20.5s8.5 15 14.5 22s13 13.333 21 19s16.667 9.16699 26 10.5c25.333 1.33301 47 -4.83398 65 -18.501s27 -32.834 27 -57.501 c0 -5.33301 -0.333008 -11 -1 -17s-2 -12 -4 -18c6 4.66699 12 9.66699 18 15s11.667 10.666 17 15.999c3.33301 3.33301 5.83301 6.83301 7.5 10.5s2.5 8.16699 2.5 13.5c0 6.66699 -3.5 15 -10.5 25s-16.833 19 -29.5 27l-42 29l-28 20 c-9.33301 6.66699 -17.833 13.834 -25.5 21.501s-13.834 15.5 -18.501 23.5s-7 16.667 -7 26c0 14.667 10 27.667 30 39c3.33301 0.666992 9.33301 1 18 1c7.33301 0 14.5 -1.5 21.5 -4.5s10.5 -8.5 10.5 -16.5c0 -6 -4.66699 -14.333 -14 -25 c-3.33301 -3.33301 -0.833008 -9 7.5 -17s18.166 -16.667 29.499 -26l9 -8l23 -19z"/>
    <glyph glyph-name="u09E6" unicode="" horiz-adv-x="561" d="M500 292c0 -61.333 -22.333 -113.334 -67 -156.001c-45.333 -42 -99 -63 -161 -63c-65.333 0 -119.666 22.333 -162.999 67c-44 46 -64.667 102.667 -62 170c7.33301 60.667 30.666 110.334 69.999 149.001c44.667 38.667 97.667 58 159 58 c63.333 0 116.333 -21.333 159 -64c43.333 -43.333 65 -97 65 -161zM425 337.999c0 34 -9.83398 61.334 -29.501 82.001s-46.5 31 -80.5 31c-50.667 -1.33301 -95 -22.666 -133 -63.999c-38.667 -42 -58.667 -89 -60 -141c0 -14.667 2.83301 -28.5 8.5 -41.5 s13.167 -24.333 22.5 -34s20.333 -17.334 33 -23.001s26.334 -8.5 41.001 -8.5c50.667 1.33301 96 21.666 136 60.999s60.667 85.333 62 138z"/>
    <glyph glyph-name="u09E7" unicode="" horiz-adv-x="441" d="M384 219c0 -58.667 -24.001 -110.33 -72.001 -154.997c-48.667 -44.667 -101.667 -67 -159 -67c-26.667 0 -50 7.66699 -70 23c-24.667 17.333 -37 37.666 -37 60.999c0 30 12.667 55 38 75c26.667 21.333 55 32 85 32c52.667 0 91.334 -14 116.001 -42 c13.333 13.333 22.833 27 28.5 41s8.5 28.333 8.5 43c0 33.333 -23.333 73.666 -70 120.999l-65 60.5l-66 59.5c-19.333 17.333 -36 37.166 -50 59.499s-21 39.833 -21 52.5c0 20 6.66699 37.333 20 52s30 22 50 22c36.667 0 55 -25.667 55 -77v-14.5 c0 -5 -0.333008 -10.5 -1 -16.5l82.5 -83.5c23 -24.333 41.167 -45.833 54.5 -64.5c48.667 -65.333 73 -126 73 -182z"/>
    <glyph glyph-name="u09E8" unicode="" horiz-adv-x="530" d="M548 -88c-30 31.333 -62.335 60.498 -97.002 87.498s-71.334 52.167 -110.001 75.5c-40 24.667 -81.333 45.5 -124 62.5s-84 29.5 -124 37.5l-54 183c14 -23.333 48.333 -45.666 103 -66.999c26.667 -10.667 51.334 -19 74.001 -25s42.667 -9 60 -9 c26.667 0 52.334 6.66699 77.001 20c29.333 16 44 36 44 60c0 36.667 -24.333 70.334 -73 101.001l-65.5 35.5l-66.5 34.5c-46.667 25.333 -70 49.666 -70 72.999c0 17.333 5.83301 32.666 17.5 45.999s26.167 20 43.5 20c38.667 0 59.334 -20.333 62.001 -61 c60 -30 104.667 -58.667 134 -86c43.333 -41.333 65 -87.666 65 -138.999c0 -90 -53 -151.333 -159 -184c34 -19.333 72 -45.666 114 -78.999s87.667 -73 137 -119z"/>
    <glyph glyph-name="u09E9" unicode="" horiz-adv-x="576" d="M546 302c0 -37.333 -5.49902 -71.666 -16.499 -102.999s-26.333 -58.5 -46 -81.5s-43 -41 -70 -54s-56.5 -19.5 -88.5 -19.5c-37.333 0 -70.5 7.66699 -99.5 23s-54.5 35.666 -76.5 60.999s-40.667 54.5 -56 87.5s-28.333 67 -39 102s-19.334 70 -26.001 105 s-12 67.167 -16 96.5l47 -23c4 -34 11.5 -71 22.5 -111s26.5 -77.5 46.5 -112.5s44.667 -64.167 74 -87.5s64.333 -35 105 -35c24.667 0 48 3.5 70 10.5s41.333 17 58 30s30 29.167 40 48.5s15.667 41.333 17 66c3.33301 102 -39 167.333 -127 196 c12.667 -24 18.667 -45.667 18 -65c-0.666992 -28 -11 -51.333 -31 -70s-44 -27.334 -72 -26.001c-28.667 0.666992 -52.667 13.334 -72 38.001c-18.667 24.667 -27.667 52 -27 82c4 88.667 55.667 132 155 130c56 -2 108 -36 156 -102c38 -58.667 56 -120.667 54 -186z"/>
    <glyph glyph-name="u09EA" unicode="" horiz-adv-x="501" d="M467 201c-1.33301 -31.333 -8.5 -57.5029 -21.5 -78.5029s-30 -37.667 -51 -50s-45.167 -21.166 -72.5 -26.499s-55.666 -8 -84.999 -8c-21.333 0 -43.333 3.83301 -66 11.5s-43.334 18.334 -62.001 32.001s-34 30.334 -46 50.001s-18 41.5 -18 65.5 c0 34 13.5 64.333 40.5 91s57.833 43.667 92.5 51c-76.667 21.333 -115 68.333 -115 141c0 27.333 5.33301 52.166 16 74.499s25.5 41.333 44.5 57s41.833 27.834 68.5 36.501s55.667 13 87 13c44 0 82 -12.667 114 -38c35.333 -29.333 53 -64.333 53 -105 c0 -28.667 -10.167 -56 -30.5 -82s-44.833 -45.667 -73.5 -59c83.333 -26 125 -84.667 125 -176zM379 511.997c0 14.667 -3.66602 28.1689 -10.999 40.502s-16.833 23 -28.5 32s-24.667 16.167 -39 21.5s-28.833 8 -43.5 8c-12.667 -0.666992 -25.5 -2.83398 -38.5 -6.50098 s-25 -9.16699 -36 -16.5s-20.333 -16.333 -28 -27s-11.834 -23.334 -12.501 -38.001c0 -23.333 4.16699 -42.5 12.5 -57.5s18.833 -27 31.5 -36s26.5 -15.667 41.5 -20s29.5 -7.5 43.5 -9.5c72 38.667 108 75 108 109zM385.001 183.999 c0 17.333 -4.16797 33.999 -12.501 49.999s-18.833 30.333 -31.5 43s-27.167 22.667 -43.5 30s-32.5 11 -48.5 11c-14.667 -4 -28.667 -10.167 -42 -18.5s-25.833 -17.666 -37.5 -27.999s-21 -22.833 -28 -37.5s-10.833 -29.667 -11.5 -45 c3.33301 -16 8.83301 -29.5 16.5 -40.5s17.334 -20.167 29.001 -27.5s24.5 -12.833 38.5 -16.5s27 -5.5 39 -5.5c30.667 -0.666992 60.167 6.83301 88.5 22.5s42.833 36.5 43.5 62.5z"/>
    <glyph glyph-name="u09EB" unicode="" horiz-adv-x="568" d="M562 419c-30 -8 -57.999 -17.999 -83.999 -29.999s-50.333 -27.333 -73 -46c-54.667 -45.333 -82 -94.333 -82 -147c0 -42 11.167 -76.5 33.5 -103.5s57.166 -46.833 104.499 -59.5c-15.333 -7.33301 -32 -13 -50 -17s-36.667 -6 -56 -6c-42 0 -81.5 5.83301 -118.5 17.5 s-69.5 28.167 -97.5 49.5c-32 24 -56.833 52.667 -74.5 86s-26.5 70.333 -26.5 111c0 34 5.83301 70.167 17.5 108.5s31.834 76.833 60.501 115.5c30.667 41.333 65.167 73.833 103.5 97.5s74.5 40.167 108.5 49.5l91 -35c-34.667 -11.333 -52 -33 -52 -65 c0 -10 2.5 -19 7.5 -27s11.167 -14.833 18.5 -20.5s15.333 -10.334 24 -14.001s16.667 -6.5 24 -8.5c9.33301 -2.66699 17.666 -4.5 24.999 -5.5s15.333 -4.16699 24 -9.5zM401.001 426.001c-50.667 6 -84.333 42.3369 -101 109.004 c-28.667 -12.667 -54.5 -28.5 -77.5 -47.5s-43.167 -41.5 -60.5 -67.5c-17.333 -27.333 -30.5 -54.833 -39.5 -82.5s-13.5 -56.834 -13.5 -87.501c0 -53.333 22.333 -98.333 67 -135c26 -16.667 49.833 -29.834 71.5 -39.501s47.167 -16.834 76.5 -21.501 c-46.667 42 -70 91.667 -70 149c0 47.333 13.667 91.666 41 132.999c26.667 40.667 62 70.667 106 90z"/>
    <glyph glyph-name="u09EC" unicode="" horiz-adv-x="590" d="M553 267c0 -34 -4.16797 -65.168 -12.501 -93.501s-21.166 -54.166 -38.499 -77.499c-38 -52.667 -89.333 -79 -154 -79c-94.667 0 -174 59.667 -238 179c-51.333 96 -81.333 198.333 -90 307l31 -15c18 -93.333 48.333 -173 91 -239c55.333 -87.333 123 -131 203 -131 c48.667 0 87.667 14.667 117 44c30.667 29.333 46 67.333 46 114c0 14 -2.16699 28.167 -6.5 42.5s-11.166 28.833 -20.499 43.5c-12.667 -30 -32.667 -53.167 -60 -69.5s-57 -24.5 -89 -24.5c-56 0 -95 31 -117 93c-3.33301 9.33301 -7 28 -11 56s-8.66699 65 -14 111 c-14.667 0 -27.167 5.66699 -37.5 17s-15.5 24 -15.5 38c0 14.667 5.66699 27.334 17 38.001s24.333 16 39 16c53.333 0 80 -41.667 80 -125v-12c0 -4.66699 -0.333008 -11.334 -1 -20.001s-1.33398 -20.167 -2.00098 -34.5s-1.33398 -32.833 -2.00098 -55.5 c0.666992 -39.333 14.334 -59 41.001 -59c13.333 0 27 4.83301 41 14.5s28.667 23.5 44 41.5c12 15.333 22.5 30.666 31.5 45.999s15.833 31.333 20.5 48c71.333 -53.333 107 -124.666 107 -213.999z"/>
    <glyph glyph-name="u09ED" unicode="" horiz-adv-x="541" d="M488 58c0 -38.667 -18.668 -57.999 -56.001 -57.999c-51.333 0 -77 51 -77 153c0 26 1.33301 50.667 4 74s4 46.666 4 69.999h-173c-35.333 0 -66.666 15.167 -93.999 45.5s-41 62.833 -41 97.5c0 48.667 18 92 54 130c36 38.667 78.333 58 127 58 c77.333 0 131.666 -35 162.999 -105c24 -52 36 -127.333 36 -226c0 -7.33301 -0.166992 -16.333 -0.5 -27s-0.666016 -22 -0.999023 -34l-1 -36.5c-0.333008 -12.333 -0.5 -23.833 -0.5 -34.5v-55c17.333 0 31 -4.33301 41 -13s15 -21.667 15 -39zM363.999 403.001 c0 16 -2.16992 32.167 -6.50293 48.5s-11.166 33.833 -20.499 52.5c-22.667 43.333 -47 65 -73 65c-17.333 0 -34.166 -4.33301 -50.499 -13s-31.166 -20.667 -44.499 -36c-28.667 -32 -43 -65.333 -43 -100c0 -26.667 19.333 -40 58 -40h179z"/>
    <glyph glyph-name="u09EE" unicode="" horiz-adv-x="598" d="M579 438c0 -19.333 -4.49805 -35.666 -13.498 -48.999s-20.833 -23.333 -35.5 -30c-12 -4 -45.667 -8 -101 -12c-20.667 -2 -31 -8 -31 -18c0 -8.66699 3 -22 9 -40c6.66699 -16 10 -29 10 -39c0 -51.333 -24.667 -101.666 -74 -150.999c-48 -48 -97.667 -72 -149 -72 c-8 0 -17.667 3.66699 -29 11s-23.333 17.666 -36 30.999c-12 14 -21.333 26.667 -28 38s-10 21 -10 29v383l-18 -1c-14.667 0.666992 -26.334 7.16699 -35.001 19.5s-13 25.166 -13 38.499c0 39.333 16.667 59 50 59c55.333 0 83 -50 83 -150v-27.5 c0 -10.333 -0.666992 -22.166 -2 -35.499l-3 -50c25.333 43.333 63.333 65 114 65c10 0 20 -2.33301 30 -7s20 -10.667 30 -18l50 -52c9.33301 8 16.333 17.167 21 27.5s12.334 21.166 23.001 32.499c4 4 10.667 6.66699 20 8s19.333 2 30 2c26 0 43.667 1 53 3 c9.33301 3.33301 17.166 9 23.499 17s12.166 17.667 17.499 29l10 -5c2.66699 -12.667 4 -24.667 4 -36zM333.002 302c0 17.333 -9.66602 31.667 -28.999 43c-14 9.33301 -31 14 -51 14c-36 0 -69.667 -11.333 -101 -34v-197c0 -8 5.33301 -19.333 16 -34 c20.667 0 40.667 6.5 60 19.5s37.666 31.5 54.999 55.5c15.333 22 27.5 44.333 36.5 67s13.5 44.667 13.5 66z"/>
    <glyph glyph-name="u09EF" unicode="" horiz-adv-x="550" d="M515 223c0.666992 -30 -7.1582 -56.6699 -23.4912 -80.0029s-36.833 -43 -61.5 -59s-52 -28.5 -82 -37.5s-58.333 -13.833 -85 -14.5c1.33301 12 3.66602 23.667 6.99902 35l10.5 34.5c3.66699 11.667 6.66699 23.5 9 35.5s3.83301 24 4.5 36 c-0.666992 13.333 -2.83398 27.5 -6.50098 42.5s-9.5 27.833 -17.5 38.5s-18 19.5 -30 26.5s-26 10.5 -42 10.5c-12.667 -0.666992 -23 -2.66699 -31 -6s-16.667 -10.166 -26 -20.499s-15.333 -22 -18 -35s-4.66699 -26.5 -6 -40.5 c0.666992 -6.66699 1.83398 -13.334 3.50098 -20.001s5.5 -11.334 11.5 -14.001c7.33301 3.33301 17.5 4.83301 30.5 4.5s25.5 -5.16602 37.5 -14.499s18 -24.666 18 -45.999c-2.66699 -20.667 -10.167 -36.167 -22.5 -46.5s-28.5 -15.166 -48.5 -14.499 c-18.667 0 -35.167 5 -49.5 15s-25 21.667 -32 35s-12.167 27.666 -15.5 42.999s-5 29.666 -5 42.999c-0.666992 22 2.66602 43.667 9.99902 65s17.833 40.166 31.5 56.499s30.667 29.666 51 39.999s42.833 15.833 67.5 16.5c22 0.666992 42.167 -3.33301 60.5 -12 s34.5 -20.5 48.5 -35.5s25.167 -32.167 33.5 -51.5s12.833 -39.333 13.5 -60c0.666992 -12 -0.166016 -24 -2.49902 -36s-6.5 -23.667 -12.5 -35c12.667 6.66699 25 13.667 37 21s22.667 15.333 32 24s17 18.667 23 30s9 24 9 38c-4.66699 34.667 -17.667 62.5 -39 83.5 s-46.833 39.333 -76.5 55s-60.334 29.667 -92.001 42s-59.834 27.5 -84.501 45.5c-31.333 20.667 -55.833 42.5 -73.5 65.5s-26.167 47.833 -25.5 74.5c0.666992 22 6.66699 40.333 18 55s25.666 21.334 42.999 20.001s30.666 -7.83301 39.999 -19.5 s13.666 -25.167 12.999 -40.5c-0.666992 -13.333 -8.33398 -26.666 -23.001 -39.999c-0.666992 -7.33301 8 -16.666 26 -27.999s43 -23.333 75 -36c15.333 -7.33301 31.166 -14.166 47.499 -20.499s32.333 -13.333 48 -21s30.5 -15.667 44.5 -24s27.333 -18.166 40 -29.499 c22 -18.667 42.167 -44.167 60.5 -76.5s27.166 -71.5 26.499 -117.5z"/>
    <glyph glyph-name="u09F0" unicode="" horiz-adv-x="526" d="M425 588v-588l-31 37c-11.333 29.333 -25.833 57 -43.5 83s-37.5 49 -59.5 69c-48 44 -111.333 70 -190 78l-74 104c112 78 226.667 136.667 344 176v41h-373l-55 56h533l54 -56h-105zM371 259c-28.667 26.667 -57.332 50.499 -85.999 71.499s-53.667 37.5 -75 49.5 l-33 -20.5c-10.667 -6.33301 -21.334 -13.166 -32.001 -20.499c100.667 -42 176 -106 226 -192v112zM371.002 322.999v135c-19.333 -7.33301 -38 -14.833 -56 -22.5s-34.667 -15.167 -50 -22.5z"/>
    <glyph glyph-name="u09F1" unicode="" horiz-adv-x="526" d="M319 7c-31.333 36 -62.667 64.168 -94 84.501s-62.333 32.166 -93 35.499l-11 64c38.667 -9.33301 75 -26 109 -50s63.667 -54 89 -90v-44zM424.999 588.001l-0.000976562 -588l-31 37c-24.667 50.667 -44.667 85.5 -60 104.5s-29.666 34.833 -42.999 47.5 c-48 44 -111.667 70 -191 78l-73 104c112 78 226.667 136.667 344 176v41h-373l-55 56h533l54 -56h-105zM370.998 456.001c-36 -13.333 -72.5 -29.333 -109.5 -48s-75.833 -41.667 -116.5 -69c100.667 -42 176 -106 226 -192v309z"/>
    <glyph glyph-name="u09F2" unicode="" horiz-adv-x="470" d="M416 1c-2 50 -11.833 97.333 -29.5 142s-42.5 85.667 -74.5 123c-32.667 38.667 -70 69.167 -112 91.5s-87.667 35.166 -137 38.499l37 74c54.667 -3.33301 104.167 -18.166 148.5 -44.499s82.5 -64.833 114.5 -115.5c27.333 -42.667 48.333 -90 63 -142 s23 -107.667 25 -167h-35z"/>
    <glyph glyph-name="u09F3" unicode="" horiz-adv-x="532" d="M473 245c-4 -64 -27.0029 -116.667 -69.0029 -158c-40.667 -40.667 -85.334 -61 -134.001 -61c-58 0 -97.333 15.333 -118 46c-9.33301 13.333 -15.333 29 -18 47s-4 39.667 -4 65v209h-51l-40 53h95v112c0 26 -11.667 39 -35 39 c-5.33301 0 -10.166 -1.16699 -14.499 -3.5s-9.16602 -4.5 -14.499 -6.5l-20 56c21.333 8.66699 40.333 13 57 13c30 0 51.833 -10 65.5 -30s20.5 -53 20.5 -99v-81h55l43 -53h-98v-259c2 -33.333 21.333 -50 58 -50c34.667 0 65.667 14.667 93 44s41 62.333 41 99 c-9.33301 -2 -17.666 -3 -24.999 -3c-19.333 0 -34.666 5.66699 -45.999 17s-17 28 -17 50c0 26 7 45.5 21 58.5s32 19.5 54 19.5c67.333 0 101 -41.333 101 -124z"/>
    <glyph glyph-name="u09F4" unicode="" horiz-adv-x="478" d="M470 468c-36 -130 -87.833 -233.998 -155.5 -311.998s-149.167 -127.333 -244.5 -148c-4.66699 14 -9.66699 28 -15 42l-15 41c46 13.333 89 32.166 129 56.499s76.333 53.166 109 86.499s61.167 71 85.5 113s43.5 87.333 57.5 136z"/>
    <glyph glyph-name="u09F5" unicode="" horiz-adv-x="598" d="M579 437c-8 -127.333 -46.333 -229.336 -115 -306.003c-33.333 -37.333 -73 -68.166 -119 -92.499s-95.667 -42.166 -149 -53.499l-23 73c23.333 7.33301 41.166 18.666 53.499 33.999s18.5 34 18.5 56c0 9.33301 -1.16699 17.833 -3.5 25.5 s-5.16602 14.834 -8.49902 21.501c-9.33301 16 -23 24 -41 24c-20.667 0 -38 -6.33301 -52 -19s-21.667 -28.667 -23 -48l-52 -3c1.33301 17.333 5.83301 34.333 13.5 51s17.5 32.667 29.5 48c12 12.667 26.333 23.334 43 32.001s32.667 13 48 13c33.333 0 60 -10 80 -30 s30 -46 30 -78c0 -17.333 -3.33301 -34.333 -10 -51s-16.334 -33.667 -29.001 -51c70 25.333 128.333 67.5 175 126.5s80.334 129.833 101.001 212.5z"/>
    <glyph glyph-name="u09F6" unicode="" horiz-adv-x="707" d="M685 503c-24.667 -11.333 -45.167 -31.6699 -61.5 -61.0029s-28.5 -65.333 -36.5 -108c-10 -52.667 -20.667 -99.334 -32 -140.001s-22.333 -69.667 -33 -87c-26 -36 -62.667 -63.833 -110 -83.5s-105.333 -29.5 -174 -29.5c-89.333 0 -134 26 -134 78 c0 12.667 4.16699 23.834 12.5 33.501s19.166 17.5 32.499 23.5c14 6 28 11.5 42 16.5l42 15.5c31.333 12.667 47 30.334 47 53.001c0 8 -1.66699 15.667 -5 23s-7.66602 14 -12.999 20s-11.666 10.833 -18.999 14.5s-15 5.5 -23 5.5c-14 0 -28 -14.667 -42 -44 c-13.333 -27.333 -26.333 -41 -39 -41c-28.667 0 -43 14.333 -43 43c0 28 19.667 52.333 59 73c16.667 7.33301 33.667 13.333 51 18s33.666 7 48.999 7c27.333 0 50.666 -10.667 69.999 -32c20.667 -22 31 -45.667 31 -71c0 -31.333 -18 -58.333 -54 -81 c-8.66699 -6.66699 -21 -13.667 -37 -21s-35.667 -15.666 -59 -24.999c-36.667 -15.333 -55.667 -28.666 -57 -39.999c7.33301 -11.333 22.333 -17 45 -17c64.667 0 119.834 9 165.501 27s81.167 43.667 106.5 77c12.667 20 25.667 49 39 87s24.666 82 33.999 132 c8.66699 48 19.834 87.833 33.501 119.5s29.167 55.5 46.5 71.5z"/>
    <glyph glyph-name="u09F7" unicode="" horiz-adv-x="282" d="M192 1v542h56v-542h-56z"/>
    <glyph glyph-name="u09F8" unicode="" horiz-adv-x="445" d="M418 68l-77.001 -46.001v244c0 78 -9.33301 117 -28 117c-14 0 -34 -18 -60 -54l-50.5 -72c-11.667 -16.667 -18.5 -26.667 -20.5 -30c-31.333 -36.667 -57.666 -55 -78.999 -55c-28.667 0 -43 28 -43 84v330l36.5 28.5l36.5 28.5c0 -37.333 0.166992 -73.833 0.5 -109.5 s0.5 -72.167 0.5 -109.5l-3 -91l-2 -58h2c14 25.333 27.333 47.333 40 66s24.667 34.334 36 47.001c34 40 72 60 114 60c64 0 96 -59 96 -177z"/>
    <glyph glyph-name="u09F9" unicode="" horiz-adv-x="333" d="M308 243c0 -34 -10.5 -61.667 -31.5 -83s-48.5 -32 -82.5 -32c-34.667 0 -62 10.667 -82 32s-30 49 -30 83s10 61.5 30 82.5s47.333 31.5 82 31.5c34 0 61.5 -10.5 82.5 -31.5s31.5 -48.5 31.5 -82.5zM257 243c0 42.667 -21.333 64 -64 64s-64 -21.333 -64 -64 c0 -44.667 21.333 -67 64 -67s64 22.333 64 67z"/>
    <glyph glyph-name="u09FA" unicode="" horiz-adv-x="483" d="M231 646c-20.667 0 -35.998 6.66699 -45.998 20s-14.833 28.166 -14.5 44.499s5.66602 31.166 15.999 44.499s25.166 20 44.499 20c22 0.666992 38.5 -5.66602 49.5 -18.999s16.5 -28.166 16.5 -44.499s-5.5 -31.333 -16.5 -45s-27.5 -20.5 -49.5 -20.5zM462.002 668 c-12.667 -26 -27.3311 -51.1719 -43.998 -75.5049s-34.667 -46.166 -54 -65.499s-40 -35 -62 -47s-45 -18.833 -69 -20.5s-48.5 3 -73.5 14s-50.167 30.167 -75.5 57.5c-24 26 -42.333 57.5 -55 94.5s-19 73.167 -19 108.5c0 10.667 1.66699 18 5 22 s7.16602 5.66699 11.499 5s8.66602 -3.5 12.999 -8.5s7.5 -11.167 9.5 -18.5l16 -51.5c5.33301 -17 12.333 -33.167 21 -48.5c10.667 -19.333 24.167 -35 40.5 -47s34 -20.667 53 -26s38.667 -7 59 -5s39.833 8 58.5 18c17.333 10 33.166 21.833 47.499 35.5 s27.666 28.334 39.999 44.001s23.833 32 34.5 49s20.667 33.833 30 50.5l34 58c12 20.667 25.333 40.5 40 59.5s31 36 49 51s38 25.5 60 31.5c7.33301 2 15.833 3.5 25.5 4.5s19.334 0.5 29.001 -1.5s18.834 -6 27.501 -12s16 -15 22 -27 c4.66699 -9.33301 6.16699 -18.666 4.5 -27.999s-5.16699 -17.666 -10.5 -24.999s-12 -13.666 -20 -18.999s-16.333 -8.33301 -25 -9c6.66699 11.333 10 24 10 38s-6 25.667 -18 35c-9.33301 6.66699 -18.666 10.167 -27.999 10.5s-18.5 -1.5 -27.5 -5.5 s-17.333 -9.5 -25 -16.5l-21.5 -20.5c-13.333 -14.667 -24.833 -30.5 -34.5 -47.5s-18.834 -34.5 -27.501 -52.5s-17 -36.333 -25 -55s-16.667 -36.667 -26 -54z"/>
    <glyph glyph-name="afii61664" unicode="" horiz-adv-x="0" d="M1 865h62v-1147h-62v1147z"/>
    <glyph glyph-name="afii301" unicode="" horiz-adv-x="0" d="M1 865h240v-61h-178v-1086h-62v1147z"/>
    <glyph glyph-name="endash" unicode="" d="M439 266c-1.33301 -7.33301 -3.16797 -15.1689 -5.50098 -23.502s-5.16602 -15.166 -8.49902 -20.499h-383l-12 12c1.33301 7.33301 3.33301 14.833 6 22.5s5.66699 14.834 9 21.501h383l11 -12v0z"/>
    <glyph glyph-name="emdash" unicode="" horiz-adv-x="766" d="M736 266c-1.33301 -7.33301 -3.33203 -15.1689 -5.99902 -23.502s-5.33398 -15.166 -8.00098 -20.499h-680l-12 12c1.33301 7.33301 3.33301 14.833 6 22.5s5.66699 14.834 9 21.501h680l11 -12v0z"/>
    <glyph glyph-name="quoteleft" unicode="" horiz-adv-x="229" d="M187 513c-3.33301 -4 -9.66797 -8.66406 -19.001 -13.9971s-19.666 -10.333 -30.999 -15s-22.333 -8.5 -33 -11.5s-19 -4.16699 -25 -3.5c-11.333 9.33301 -19.833 19.666 -25.5 30.999s-8.5 26.666 -8.5 45.999c0 12.667 2.16699 26.334 6.5 41.001 s10.833 29.334 19.5 44.001s19 28.667 31 42s26 25 42 35l21 -17c-14 -14.667 -24.333 -31.834 -31 -51.501s-10 -36.167 -10 -49.5c0 -14.667 4.33301 -27.334 13 -38.001s22.667 -16.334 42 -17.001l8 -22v0z"/>
    <glyph glyph-name="quoteright" unicode="" horiz-adv-x="229" d="M184 633c0 -12.667 -2.1709 -26.502 -6.50391 -41.502s-10.666 -29.833 -18.999 -44.5s-18.666 -28.667 -30.999 -42s-26.166 -25 -41.499 -35l-22 17c14 14.667 24.333 31.834 31 51.501s10 36.167 10 49.5c0 14.667 -4.33301 27.334 -13 38.001 s-22.334 16.667 -41.001 18l-8 22c2.66699 4 8.66699 8.5 18 13.5s19.833 9.83301 31.5 14.5s22.834 8.5 33.501 11.5s19 4.5 25 4.5c10.667 -10 18.834 -20.667 24.501 -32s8.5 -26.333 8.5 -45z"/>
    <glyph glyph-name="quotedblleft" unicode="" horiz-adv-x="436" d="M393 513c-3.33301 -4 -9.66797 -8.66406 -19.001 -13.9971s-19.666 -10.333 -30.999 -15s-22.333 -8.5 -33 -11.5s-19 -4.16699 -25 -3.5c-10.667 9.33301 -19 19.666 -25 30.999s-9 26.666 -9 45.999c0 12.667 2.16699 26.334 6.5 41.001s10.833 29.334 19.5 44.001 s19 28.667 31 42s26 25 42 35l21 -17c-14 -14.667 -24.333 -31.834 -31 -51.501s-10 -36.167 -10 -49.5c0 -14.667 4.33301 -27.334 13 -38.001s22.667 -16.334 42 -17.001zM186.998 513.003c-3.33301 -4 -9.66797 -8.66406 -19.001 -13.9971s-19.666 -10.333 -30.999 -15 s-22.333 -8.5 -33 -11.5s-19 -4.16699 -25 -3.5c-11.333 9.33301 -19.833 19.666 -25.5 30.999s-8.5 26.666 -8.5 45.999c0 12.667 2.16699 26.334 6.5 41.001s10.833 29.334 19.5 44.001s19 28.667 31 42s26 25 42 35l21 -17c-14 -14.667 -24.333 -31.834 -31 -51.501 s-10 -36.167 -10 -49.5c0 -14.667 4.33301 -27.334 13 -38.001s22.667 -16.334 42 -17.001z"/>
    <glyph glyph-name="quotedblright" unicode="" horiz-adv-x="436" d="M390 633c0 -12.667 -2.17188 -26.502 -6.50488 -41.502s-10.666 -29.833 -18.999 -44.5s-18.666 -28.667 -30.999 -42s-26.166 -25 -41.499 -35l-21 17c13.333 14.667 23.5 31.834 30.5 51.501s10.5 36.167 10.5 49.5c0 14.667 -4.5 27.334 -13.5 38.001 s-22.833 16.667 -41.5 18l-8 22c2.66699 4 8.66699 8.5 18 13.5s19.833 9.83301 31.5 14.5s22.834 8.5 33.501 11.5s19 4.5 25 4.5c10.667 -10 18.834 -20.667 24.501 -32s8.5 -26.333 8.5 -45zM183.995 632.998c0 -12.667 -2.1709 -26.502 -6.50391 -41.502 s-10.666 -29.833 -18.999 -44.5s-18.666 -28.667 -30.999 -42s-26.166 -25 -41.499 -35l-22 17c14 14.667 24.333 31.834 31 51.501s10 36.167 10 49.5c0 14.667 -4.33301 27.334 -13 38.001s-22.334 16.667 -41.001 18l-8 22c2.66699 4 8.66699 8.5 18 13.5 s19.833 9.83301 31.5 14.5s22.834 8.5 33.501 11.5s19 4.5 25 4.5c10.667 -10 18.834 -20.667 24.501 -32s8.5 -26.333 8.5 -45z"/>
    <glyph glyph-name="ellipsis" unicode="" horiz-adv-x="669" d="M180 60c0 -22.667 -6.33301 -41.667 -19 -57s-28.667 -23 -48 -23c-17.333 0 -29.833 4.83301 -37.5 14.5s-11.5 23.167 -11.5 40.5c0 22 6.66699 40.833 20 56.5s29.333 23.5 48 23.5c32 0 48 -18.333 48 -55zM400 60c0 -22.667 -6.33301 -41.667 -19 -57 s-28.667 -23 -48 -23c-17.333 0 -29.833 4.83301 -37.5 14.5s-11.5 23.167 -11.5 40.5c0 22 6.66699 40.833 20 56.5s29.333 23.5 48 23.5c32 0 48 -18.333 48 -55zM620 60c0 -22.667 -6.5 -41.667 -19.5 -57s-29.167 -23 -48.5 -23c-32.667 0 -49 18.333 -49 55 c0 22 6.66699 40.833 20 56.5s29.333 23.5 48 23.5c32.667 0 49 -18.333 49 -55z"/>
    <glyph glyph-name="minus" unicode="" horiz-adv-x="410" d="M380 290c-1.33301 -6.66699 -3.5 -14.168 -6.5 -22.501s-5.83301 -15.166 -8.5 -20.499h-323l-12 12c3.33301 14 8.33301 28.333 15 43h323l12 -12v0z"/>
    <glyph glyph-name="uni25CC" unicode="" horiz-adv-x="518" d="M404 390c-8 11.333 -16.167 21.168 -24.5 29.501s-17.833 16.166 -28.5 23.499l29 40c26.667 -17.333 48.667 -39 66 -65zM297 467.002l-20.002 3.49805c-6 1 -12.333 1.5 -19 1.5s-13 -0.5 -19 -1.5s-12.333 -2.16699 -19 -3.5 c-1.33301 8.66699 -2.66602 16.834 -3.99902 24.501s-2.66602 15.834 -3.99902 24.501c16 4.66699 31.333 7 46 7c7.33301 0 15 -0.5 23 -1.5s16.667 -2.83301 26 -5.5zM476.998 304c0 -6.66699 -0.5 -14.166 -1.5 -22.499s-2.5 -16.833 -4.5 -25.5l-50 10 c3.33301 13.333 5 25.666 5 36.999s-1.66699 24.333 -5 39l50 10c4 -19.333 6 -35.333 6 -48zM445.998 190.001c-9.33301 -14 -19.5 -26.332 -30.5 -36.999s-22.833 -20 -35.5 -28c-5.33301 6.66699 -10.333 13.5 -15 20.5l-14 20.5c10.667 7.33301 20.667 15.166 30 23.499 s17.333 17.833 24 28.5zM166.998 444.002c-21.333 -14 -39.333 -31.999 -54 -53.999c-6 4.66699 -12.667 9 -20 13s-14.333 8.66699 -21 14c17.333 29.333 39.333 51.666 66 66.999zM45.998 256.003c-2 9.33301 -3.33301 17.832 -4 25.499s-1 15.167 -1 22.5 c0 8 0.333008 15.833 1 23.5s2 15.834 4 24.501l50 -10c-1.33301 -6 -2.33301 -12.5 -3 -19.5s-1 -13.5 -1 -19.5s0.333008 -12.333 1 -19s1.66699 -12.667 3 -18zM306.998 91.002c-8 -1.33301 -16.333 -2.5 -25 -3.5s-16.667 -1.5 -24 -1.5c-12 0 -27.333 1.66699 -46 5 l4 25l4 25c6.66699 -2.66699 13 -4.16699 19 -4.5s12.333 -0.5 19 -0.5c12 0 25 2 39 6zM137.998 125.002c-13.333 8 -25.667 17.668 -37 29.001s-21 23.666 -29 36.999c6.66699 5.33301 13.667 10 21 14s14 8.33301 20 13c7.33301 -10 15.5 -19.667 24.5 -29 s18.833 -17.333 29.5 -24z"/>
    <glyph glyph-name="NULL" horiz-adv-x="0"/>
    <glyph glyph-name="nonmarkingreturn" horiz-adv-x="0"/>
    <glyph glyph-name="u09AF_u09CD.pstf" horiz-adv-x="206" d="M206 588c-51.333 -2 -80.332 -38.001 -86.999 -108.001c-0.666992 -50.667 4.33301 -102.334 15 -155.001c6 -34 10.667 -63.667 14 -89s5 -46.666 5 -63.999c0 -20.667 -4.66699 -41.5 -14 -62.5s-22.333 -41.167 -39 -60.5c-15.333 -13.333 -32.5 -25.333 -51.5 -36 s-38.167 -19 -57.5 -25l-32 24c18.667 6.66699 36.667 14.834 54 24.501s31.666 21.5 42.999 35.5c16 20 24 51 24 93c0 13.333 -1.83301 29.5 -5.5 48.5s-9.16699 40.833 -16.5 65.5c-14.667 48.667 -22 86.667 -22 114c-4.66699 72.667 24.333 137.667 87 195h-163l-56 56 h282l56 -56h-36z"/>
    <glyph glyph-name="u0995_u09CD_u0995" horiz-adv-x="651" d="M400 588l-0.00488281 -44.002h13c46.667 -3.33301 89.334 -22.666 128.001 -57.999c39.333 -36 59 -77.333 59 -124c0 -54 -21 -81.333 -63 -82c30 -32.667 44.333 -68.667 43 -108c-6 -47.333 -30.667 -72 -74 -74c-16 0 -30.5 5.16699 -43.5 15.5 s-19.5 23.166 -19.5 38.499c0 12.667 5.5 22.834 16.5 30.501s23.5 11.5 37.5 11.5c12 0 26.333 -9.33301 43 -28l1 6c0 15.333 -3.16699 29.333 -9.5 42s-14.833 23.667 -25.5 33s-23 16.833 -37 22.5s-28.667 9.5 -44 11.5l-25 1v-332 c-3.33301 2.66699 -7.16602 5.33398 -11.499 8.00098l-11.5 7v-1c-28 50.667 -62.167 91.167 -102.5 121.5s-84.5 47.166 -132.5 50.499h1l-67 86c8.66699 6 17.5 11.667 26.5 17l27.5 16h-1l36 21c-9.33301 7.33301 -20.666 12.5 -33.999 15.5s-26.666 4.83301 -39.999 5.5 l-73 87c46.667 32.667 98.334 62.834 155.001 90.501s113.667 50.167 171 67.5v46h-355l-55 56h677l54 -56h-265zM559.995 365.998c-2.66699 14 -8.33301 26.833 -17 38.5s-21.667 22.834 -39 33.501c-26.667 15.333 -56.667 23.666 -90 24.999h-14v-103 c19.333 -3.33301 36.333 -8.83301 51 -16.5s27.667 -17.167 39 -28.5l-4 20c0 30.667 11 46 33 46c18 0 30.333 -7.66699 37 -23c2.66699 4 4 6.66699 4 8zM343.996 455.998c-37.333 -11.333 -74 -25.668 -110 -43.001s-71.333 -38 -106 -62c24 -11.333 50 -28.333 78 -51 l69 30.5c22.667 9.66699 45.667 18.834 69 27.501v98zM343.996 275.996c-22.667 -7.33301 -48.333 -18.333 -77 -33s-60 -32.667 -94 -54c69.333 -14 126.333 -53.667 171 -119v206z"/>
    <glyph glyph-name="u0995_u09CD_u099F" horiz-adv-x="506" d="M509 588l-202.004 0.00683594l1 -24c20.667 -3.33301 39.834 -9.33301 57.501 -18s32.667 -20 45 -34s22 -30.167 29 -48.5s10.5 -38.833 10.5 -61.5c0 -23.333 -5 -43 -15 -59c-12.667 -18.667 -30 -28 -52 -28c-35.333 1.33301 -56 17.333 -62 48 c0 16 3.83301 30.333 11.5 43s18.5 19 32.5 19c23.333 -3.33301 36.333 -14 39 -32c4 1.33301 7.33301 3.66602 10 6.99902s3.66699 9.66602 3 18.999c-14 53.333 -52 83 -114 89c0.666992 -47.333 -10.666 -98 -33.999 -152 c-2.66699 -6.66699 -9.83398 -20.667 -21.501 -42l-48.5 -86c-24 -45.333 -36 -79.333 -36 -102c0 -39.333 14.667 -59 44 -59c18.667 0 46.667 10.333 84 31c18 10.667 31.833 21.167 41.5 31.5s16.167 20.166 19.5 29.499h-7c-18 0 -34 5 -48 15s-21 24 -21 42 c0 19.333 6.83301 36.666 20.5 51.999s29.834 23 48.501 23c66 0 99 -28 99 -84c0 -50.667 -23.333 -95.334 -70 -134.001c-46 -38 -93.667 -57 -143 -57c-86 0 -129 33 -129 99c0 43.333 27.333 101.666 82 174.999c-10 31.333 -26 50.666 -48 57.999 c-8.66699 3.33301 -19.167 5.5 -31.5 6.5s-22.166 1.5 -29.499 1.5l-54 78c30.667 28 65.667 53.167 105 75.5s80.666 39.833 123.999 52.5v26h-252l-56 56h432c4 10 6 18 6 24c0 24.667 -20 37 -60 37h-18.5c-7.66699 0 -14.5 -0.666992 -20.5 -2 c-3.33301 0 -6.16602 -0.166992 -8.49902 -0.5s-4.16602 -0.5 -5.49902 -0.5h-96c-100 0 -150 29.333 -150 88c0 17.333 1.83301 33.166 5.5 47.499s9.5 26.166 17.5 35.499c6.66699 -3.33301 12.5 -6.66602 17.5 -9.99902s10.833 -6.66602 17.5 -9.99902 c-15.333 -8 -23 -20 -23 -36c0 -34.667 36.333 -52 109 -52h16.5c7 0 13.833 0.333008 20.5 1c2 0 3.83301 0.333008 5.5 1s3.5 1 5.5 1l37 2c104.667 0 157 -33.667 157 -101c0 -4.66699 -0.166992 -9 -0.5 -13s-0.833008 -8 -1.5 -12h48zM245.996 498.007 c-55.333 -18 -100.332 -44.002 -134.999 -78.002c55.333 -23.333 84.666 -56.333 87.999 -99c15.333 20.667 27.333 46.334 36 77.001c10 30.667 15 58.334 15 83.001c-0.666992 0.666992 -1 2 -1 4c-0.666992 1.33301 -1 2.83301 -1 4.5s-0.333008 4.16699 -1 7.5z"/>
    <glyph glyph-name="u0995_u09CD_u09A4" horiz-adv-x="774" d="M789 588h-804l-58 56h809zM729 348c0 -28.667 -8.67285 -56.335 -26.0059 -83.002c-18.667 -24 -43.667 -37.667 -75 -41c-8.66699 -0.666992 -17.167 -0.166992 -25.5 1.5s-15.666 5.5 -21.999 11.5s-11.333 13.667 -15 23s-5.5 18 -5.5 26 c-0.666992 15.333 3.33301 28 12 38c11.333 10.667 24.333 15.667 39 15c18 0 32.667 -13.667 44 -41h5c12 0 19 14 21 42c0 23.333 -6.16699 42.333 -18.5 57s-29.5 22 -51.5 22c-25.333 0 -52 -12 -80 -36c-12 -11.333 -21.667 -23.166 -29 -35.499s-11 -24.833 -11 -37.5 l1 -7c26.667 -27.333 40 -60.833 40 -100.5s-15.333 -73.5 -46 -101.5c-15.333 -14.667 -32 -25.334 -50 -32.001s-37.667 -10 -59 -10c-144 0 -260.333 161 -349 483l40 -21l64 -160c14.667 -34 29.334 -63.5 44.001 -88.5s30.334 -45.833 47.001 -62.5 c44.667 -43.333 97.334 -65 158.001 -65c32 0 57.5 8 76.5 24s28.5 39.333 28.5 70c0 16.667 -9 34.334 -27 53.001c-16.667 -14.667 -32.334 -22 -47.001 -22c-19.333 0 -35.166 6.33301 -47.499 19s-18.5 28.667 -18.5 48c0 16.667 5.83301 31.5 17.5 44.5 s25.167 19.5 40.5 19.5c16.667 0 33.334 -4.66699 50.001 -14c20 12 30 28.667 30 50c0 16 -9.66699 30 -29 42c-19.333 9.33301 -37.666 14 -54.999 14c-24.667 0 -49 -5.66699 -73 -17s-41.667 -27 -53 -47c22 -11.333 33 -29.666 33 -54.999 c0 -32.667 -16.667 -49 -50 -49c-20.667 0 -37.667 7 -51 21s-20 31.667 -20 53c0 45.333 22 84.666 66 117.999c42 30.667 85.667 46 131 46c50 0 85 -13.667 105 -41c18 -23.333 27.667 -61.666 29 -114.999c39.333 42.667 74 64 104 64s55.333 -12.667 76 -38 c21.333 -26.667 32 -55 32 -85z"/>
    <glyph glyph-name="u0995_u09CD_u09A4_u09F0_u09CD" horiz-adv-x="773" d="M477 -54l-0.00292969 147.995c-28.667 -23.333 -62 -35 -100 -35c-144 0 -260.333 161 -349 483l40 -21l64 -160c14.667 -34 29.334 -63.5 44.001 -88.5s30.334 -45.833 47.001 -62.5c44.667 -43.333 97.334 -65 158.001 -65c32 0 57.5 8 76.5 24s28.5 39.333 28.5 70 c0 16.667 -9 34.334 -27 53.001c-16.667 -14.667 -32.334 -22 -47.001 -22c-19.333 0 -35.166 6.33301 -47.499 19s-18.5 28.667 -18.5 48c0 16.667 5.83301 31.5 17.5 44.5s25.167 19.5 40.5 19.5c16.667 0 33.334 -4.66699 50.001 -14c20 12 30 28.667 30 50 c0 16 -10 29.333 -30 40h1c-19.333 10.667 -37.666 16 -54.999 16c-24.667 0 -49 -5.66699 -73 -17s-41.667 -27 -53 -47c22 -11.333 33 -29.666 33 -54.999c0 -32.667 -16.667 -49 -50 -49c-20.667 0 -37.667 7 -51 21s-20 31.667 -20 53c0 45.333 22 84.666 66 117.999 c42 30.667 85.667 46 131 46c50 0 85 -13.667 105 -41c18 -23.333 27.667 -61.666 29 -114.999c39.333 42.667 74 64 104 64s55.333 -12.667 76 -38c21.333 -26.667 32 -55 32 -85c0 -28.667 -9.33301 -56 -28 -82c-19.333 -28 -43.666 -42 -72.999 -42 c-8 0 -16.167 1.5 -24.5 4.5s-15.5 7.33301 -21.5 13s-11 12.5 -15 20.5s-6 16 -6 24c-0.666992 13.333 3 26 11 38c14 11.333 27 16.333 39 15c18 0 32.667 -13.667 44 -41h5c14 -0.666992 21 13.333 21 42c0 23.333 -6.16699 42.333 -18.5 57s-29.5 22 -51.5 22 c-25.333 0 -52 -12 -80 -36c-12 -11.333 -21.667 -23.166 -29 -35.499s-11 -24.833 -11 -37.5l1 -7c26.667 -27.333 40 -59 40 -95c0 -8 -0.5 -15.5 -1.5 -22.5s-2.16699 -13.833 -3.5 -20.5v-311c-2.66699 2.66699 -8.33398 9.16699 -17.001 19.5l-34 40.5 c-9.33301 10.667 -20.166 19.334 -32.499 26.001s-26.5 10.667 -42.5 12h-100c-66.667 0 -118.334 7.66699 -155.001 23c-58 24 -87 68.333 -87 133c0 22 6.66699 55 20 99l21 -21c-5.33301 -7.33301 -8 -19.666 -8 -36.999c0 -59.333 28.333 -95 85 -107 c30 -1.33301 56.167 -3 78.5 -5s41.166 -4 56.499 -6c75.333 -7.33301 129.666 -36 162.999 -86zM788.997 587.995h-804l-58 56h809z"/>
    <glyph glyph-name="u0995_u09CD_u09A4_u09AC_u09CD" horiz-adv-x="770" d="M513 -207c-21.333 9.33301 -41.3389 28.6631 -60.0059 57.9961c-11.333 16 -21.166 29.167 -29.499 39.5s-15.833 18.166 -22.5 23.499c-12.667 9.33301 -29 16.5 -49 21.5s-41.667 7.83301 -65 8.5l-54 74l78 52c-114.667 44.667 -209 202 -283 472l40 -21l64 -160 c14.667 -34 29.334 -63.5 44.001 -88.5s30.334 -45.833 47.001 -62.5c44.667 -43.333 97.334 -65 158.001 -65c32 0 57.5 8 76.5 24s28.5 39.333 28.5 70c0 16.667 -9 34.334 -27 53.001c-16.667 -14.667 -32.334 -22 -47.001 -22c-19.333 0 -35.166 6.33301 -47.499 19 s-18.5 28.667 -18.5 48c0 16.667 5.83301 31.5 17.5 44.5s25.167 19.5 40.5 19.5c16.667 0 33.334 -4.66699 50.001 -14c20 12 30 28.667 30 50c0 16 -10 29.333 -30 40h1c-19.333 10.667 -37.666 16 -54.999 16c-24.667 0 -49 -5.66699 -73 -17s-41.667 -27 -53 -47 c22 -11.333 33 -29.666 33 -54.999c0 -32.667 -16.667 -49 -50 -49c-20.667 0 -37.667 7 -51 21s-20 31.667 -20 53c0 45.333 22 84.666 66 117.999c42 30.667 85.667 46 131 46c50 0 85 -13.667 105 -41c18 -23.333 27.667 -61.666 29 -114.999c39.333 42.667 74 64 104 64 s55.333 -12.667 76 -38c21.333 -26.667 32 -55 32 -85c0 -28.667 -9.33301 -56 -28 -82c-19.333 -28 -43.666 -42 -72.999 -42c-8 0 -15.833 1.83301 -23.5 5.5s-14.834 8.33398 -21.501 14.001s-12 12.167 -16 19.5s-6 15 -6 23c0 7.33301 3.66699 20 11 38v-1 c11.333 10.667 24.333 16 39 16c18 0 32.667 -13.667 44 -41h5c14 -0.666992 21 13.333 21 42c0 23.333 -6.16699 42.333 -18.5 57s-29.5 22 -51.5 22c-25.333 0 -52 -12 -80 -36c-12 -11.333 -21.667 -23.166 -29 -35.499s-11 -24.833 -11 -37.5l1 -7 c26.667 -27.333 40 -59 40 -95c0 -32.667 -8.66699 -61 -26 -85c4.66699 -7.33301 7 -12.666 7 -15.999v-314zM778.994 587.997h-784l-58 56h789zM433.994 67.9971l-113.001 -72c53.333 -12 100 -44 140 -96v181c-5.33301 -4 -10.166 -6.83301 -14.499 -8.5l-11.5 -4.5h-1z "/>
    <glyph glyph-name="u0995_u09CD_u09A8" horiz-adv-x="656" d="M401 588l0.00292969 -46l13 2c25.333 -1.33301 50 -7.5 74 -18.5s46.333 -27.167 67 -48.5c42 -45.333 63 -94 63 -146c0 -16 -1.83301 -31.167 -5.5 -45.5s-9.5 -27.5 -17.5 -39.5c-17.333 -28 -41 -42 -71 -42c-18.667 0 -35.667 6.66699 -51 20s-23 29.666 -23 48.999 c0 18 6.33301 33 19 45s28.334 18 47.001 18c24 0 42.333 -9.66699 55 -29c1.33301 2.66699 2.16602 4.66699 2.49902 6s0.833008 2.66602 1.5 3.99902l1 2c0 38 -15.333 72.667 -46 104c-29.333 32.667 -63 47.334 -101 44.001l-29 -2v-480l-19 7l-40 101 c-22 46.667 -57.333 70 -106 70c-0.666992 -0.666992 -2 -1 -4 -1c-1.33301 0 -3.33301 -0.166992 -6 -0.5s-6 -0.5 -10 -0.5c16 -9.33301 24 -25 24 -47c0 -46 -24.667 -69 -74 -69c-11.333 0 -21.833 2.16699 -31.5 6.5s-18.334 10.333 -26.001 18 s-13.667 16.334 -18 26.001s-6.5 20.167 -6.5 31.5c0 37.333 11 65.666 33 84.999s51.667 29 89 29c73.333 0 125.666 -46.667 156.999 -140h2v12c0 118.667 -80 188 -240 208l-78 97c57.333 32 110.666 58.333 159.999 79s95 35.334 137 44.001v47h-349l-57 56h668l58 -56 h-262zM343.003 464c-58.667 -8.66699 -120.667 -31.667 -186 -69c78 -11.333 140 -51 186 -119v188z"/>
    <glyph glyph-name="u0995_u09CD_u09AE" horiz-adv-x="639" d="M665 588l-87.9971 -0.000976562v-602c-2 0.666992 -4.16699 1.66699 -6.5 3s-4.5 2.33301 -6.5 3h1c-16.667 16.667 -35.667 42.334 -57 77.001c-20.667 32 -37 54 -49 66c-10.667 9.33301 -23.834 17.5 -39.501 24.5s-33.5 13.167 -53.5 18.5 c0 -24.667 -8.33301 -44.5 -25 -59.5s-37.667 -22.5 -63 -22.5c-22 0 -41 8 -57 24s-24 35 -24 57c0 20 7.16699 37.667 21.5 53s33.166 25.333 56.499 30c-52 63.333 -113 96 -183 98c-10 14 -20 28.833 -30 44.5l-29 44.5c38 28 77.167 51 117.5 69 s80.166 31.333 119.499 40v32h-273l-56 56h666zM271.003 308.999v177.999c-24 -7.33301 -47.5 -16 -70.5 -26s-45.167 -22.333 -66.5 -37c57.333 -27.333 103 -65.666 137 -114.999zM523.003 100.998v486.997h-200v-26c44 -6 81 -26.667 111 -62 c13.333 -18 23.5 -36.667 30.5 -56s10.5 -38 10.5 -56c0 -19.333 -5.33301 -38.666 -16 -57.999c-13.333 -20 -30.333 -30 -51 -30c-16 0 -30.5 5.33301 -43.5 16s-20.167 24 -21.5 40c-0.666992 22.667 5.66602 39 18.999 49c12 7.33301 24.333 10.333 37 9 c12 -1.33301 21.333 -7.66602 28 -18.999c4.66699 -3.33301 7.33398 -0.666016 8.00098 8.00098c0 22 -9.66699 42 -29 60c-18 16.667 -38.333 25.667 -61 27h-22v-231c74.667 -10.667 140.667 -63.667 198 -159z"/>
    <glyph glyph-name="u0995_u09F0_u09CD" horiz-adv-x="804" d="M812 588h-817l-57 56h820zM786 299c0 -27.333 -7.66406 -50.332 -22.9971 -68.999s-37 -28 -65 -28c-20 0 -37.333 4.66699 -52 14c-16.667 14 -25 30.667 -25 50c0 12 4.83301 22.667 14.5 32s20.5 14 32.5 14c22.667 0 41 -11.667 55 -35 c10.667 2.66699 16 10.667 16 24c0 10.667 -2.5 20.667 -7.5 30s-11.667 17.5 -20 24.5s-17.833 12.333 -28.5 16s-21.667 5.5 -33 5.5c-38.667 0 -69.334 -20.667 -92.001 -62v-330l-34 31v-1c-18 62.667 -52.333 91.667 -103 87c-18.667 -2 -41 -4.66699 -67 -8 c-35.333 -6 -60.833 -9.5 -76.5 -10.5s-28.834 -1.5 -39.501 -1.5c-63.333 0 -112.333 19.333 -147 58c-33.333 36.667 -50 86.667 -50 150c0 30 4.16699 57.167 12.5 81.5s20.166 45.833 35.499 64.5l21 -22c-7.33301 -10 -13.166 -19.333 -17.499 -28 s-7.16602 -15.667 -8.49902 -21c-2 -11.333 -3.16699 -21 -3.5 -29s-0.5 -15.667 -0.5 -23c0.666992 -55.333 20.334 -94.333 59.001 -117c28.667 -15.333 71 -23 127 -23h20c8 0 17.667 0.333008 29 1s20.833 1 28.5 1h18.5c23.333 0 47.166 -2.66699 71.499 -8 s47.166 -16 68.499 -32v322c0 28.667 -12.667 43 -38 43c-26 0 -55.333 -17.333 -88 -52c-15.333 -16 -28.333 -31.667 -39 -47s-18.334 -30.333 -23.001 -45c11.333 2.66699 22.666 4 33.999 4c16.667 -1.33301 28.667 -8.5 36 -21.5s11 -27.167 11 -42.5 c0 -42.667 -24.667 -64 -74 -64c-64.667 0 -97 37.667 -97 113c2.66699 46 30.667 92.667 84 140c56 50.667 105.667 76 149 76c17.333 0 38.333 -10.667 63 -32c25.333 -20 38 -38.333 38 -55v-104c11.333 15.333 28.333 29 51 41 c24.667 11.333 47.334 16.666 68.001 15.999c30 0 56 -13.333 78 -40c20 -26.667 30.333 -56 31 -88z"/>
    <glyph glyph-name="u0995_u09CD_u09B2" horiz-adv-x="660" d="M413 588l-0.00292969 -35.9922c64.667 2.66699 117 -22.666 157 -75.999c19.333 -24 33.833 -49.333 43.5 -76s14.5 -54 14.5 -82c0 -14 -2.33301 -27.333 -7 -40s-11.167 -23.834 -19.5 -33.501s-18.166 -17.334 -29.499 -23.001s-23.666 -8.5 -36.999 -8.5 c-9.33301 0 -18.333 1.83301 -27 5.5s-16.334 8.66699 -23.001 15s-12.167 13.666 -16.5 21.999s-6.5 17.166 -6.5 26.499c0 18 6.16699 33 18.5 45s27.833 18 46.5 18c21.333 0 40 -10 56 -30l5 13c0 36.667 -15.333 71.334 -46 104.001 c-31.333 33.333 -74.666 45.666 -129.999 36.999v-520l-22 20c-6 26.667 -15 50 -27 70c-15.333 25.333 -33.333 38 -54 38c-26.667 0 -38.334 -15.333 -35.001 -46l3 -31c-8.66699 1.33301 -16.667 3.16602 -24 5.49902s-15.333 7.83301 -24 16.5 c-0.666992 16 -2.83398 29.5 -6.50098 40.5s-8.16699 20.5 -13.5 28.5c-14.667 20 -32.667 30 -54 30c-8.66699 0 -17.5 -1.5 -26.5 -4.5s-17.167 -7.33301 -24.5 -13s-13.333 -12.667 -18 -21s-7 -17.833 -7 -28.5c0 -29.333 9.33301 -49.333 28 -60 c0 17.333 4.83301 32.166 14.5 44.499s20.834 18.5 33.501 18.5c34 0 51 -19 51 -57c0 -40 -23.333 -60 -70 -60c-15.333 0 -29.666 2.66699 -42.999 8s-25.333 13 -36 23s-19 22 -25 36s-9 29.333 -9 46c0 17.333 3 33.666 9 48.999s14.333 28.5 25 39.5 s22.834 19.667 36.501 26s28.5 9.5 44.5 9.5c46.667 0 82.334 -32.333 107.001 -97c-0.666992 41.333 15 62 47 62c27.333 0 50 -21.667 68 -65v56c-10.667 18.667 -22.5 35.667 -35.5 51s-26.833 29.666 -41.5 42.999c-25.333 22.667 -52.333 40.667 -81 54 s-58.334 21.666 -89.001 24.999l-78 88c95.333 68 203.333 117.667 324 149v45h-365l-57 56h679l58 -56h-261zM356.997 461.008c-33.333 -7.33301 -67.5 -18.667 -102.5 -34s-70.833 -33.666 -107.5 -54.999c93.333 -32.667 163 -83.334 209 -152.001z"/>
    <glyph glyph-name="u0995_u09AC_u09CD" horiz-adv-x="654" d="M415 542c57.333 0 106.662 -24.668 147.995 -74.001c17.333 -24 31 -49.5 41 -76.5s15 -54.5 15 -82.5c0 -14 -2.33301 -27.333 -7 -40s-11 -23.834 -19 -33.501s-17.667 -17.334 -29 -23.001s-23.666 -8.5 -36.999 -8.5c-19.333 0 -36.5 6.66699 -51.5 20 s-22.5 29.666 -22.5 48.999c0 18 6.33301 33 19 45s28 18 46 18c22.667 0 41.334 -9.66699 56.001 -29c3.33301 3.33301 5 7.33301 5 12c0 38.667 -15.667 73.334 -47 104.001c-27.333 28.667 -63.666 43 -108.999 43c-2 0 -3.83301 -0.166992 -5.5 -0.5 s-3.16699 -0.5 -4.5 -0.5h-11v-515c-3.33301 2.66699 -7.16602 5.33398 -11.499 8.00098l-11.5 7v-1c-28 51.333 -62.167 92 -102.5 122s-84.5 46.667 -132.5 50l-65 86l56 35l31 19c-10 5.33301 -22.667 9.33301 -38 12s-30.666 4.33398 -45.999 5.00098l-61 91 c46 32.667 97.167 62.834 153.5 90.501s113.5 50.167 171.5 67.5v46h-345l-55 56h657l54 -56h-255v-46h13zM345.996 275.999c-23.333 -7.33301 -48.833 -18.333 -76.5 -33s-59.167 -32.667 -94.5 -54c69.333 -14 126.333 -53.667 171 -119v206zM345.996 455.999 c-72 -21.333 -143.667 -56.335 -215 -105.002c24.667 -11.333 50.334 -28.333 77.001 -51c21.333 10.667 43.166 20.834 65.499 30.501s46.5 18.834 72.5 27.501v98z"/>
    <glyph glyph-name="u0995_u09CD_u09B7" horiz-adv-x="759" d="M773 588h-260.001v-93c10 2 23.333 3 40 3c43.333 0 81.666 -14 114.999 -42c32.667 -28.667 49 -63.667 49 -105c-1.33301 -30 -8.16602 -53.833 -20.499 -71.5s-29.166 -28.5 -50.499 -32.5c-22 0.666992 -41.667 5.83398 -59 15.501s-27.666 24.167 -30.999 43.5 c-0.666992 17.333 4.16602 31.5 14.499 42.5s21.833 16.5 34.5 16.5c24.667 1.33301 46.667 -10.334 66 -35.001c6 10.667 9 21.667 9 33c0 21.333 -14.667 39 -44 53c-21.333 8.66699 -44.666 13 -69.999 13c-19.333 0 -36 -2.66699 -50 -8v-413l-26 30v-1l-28.5 78.5 c-7.66699 20.333 -14.167 35.166 -19.5 44.499v-1c-22.667 40 -54.667 69.667 -96 89c-12.667 -36.667 -38.334 -55 -77.001 -55c-20 0 -37.167 6.83301 -51.5 20.5s-21.5 30.834 -21.5 51.501c0 24.667 9.66699 43.667 29 57s42 18.666 68 15.999c4 10 6 20.667 6 32 c0 22 -7.66699 41.5 -23 58.5s-34 25.5 -56 25.5c-5.33301 0 -10.333 -1.16699 -15 -3.5s-9.66699 -5.5 -15 -9.5c0 -19.333 -7.16699 -36.5 -21.5 -51.5s-31.166 -22.5 -50.499 -22.5c-21.333 0 -40 7 -56 21s-23.667 35 -23 63c3.33301 30 20.666 52 51.999 66 c10.667 3.33301 20.667 5.33301 30 6l2 7c0 4 -1.66699 9 -5 15s-7.33301 11.833 -12 17.5s-9.66699 10.834 -15 15.501s-10 8 -14 10h-83l-58 56h780zM458.999 489v99h-109c-9.33301 0 -14 -8.66699 -14 -26c0 -50 31.333 -75 94 -75h13.5c4.33301 0 9.5 0.666992 15.5 2z M459.999 194v223.999c-44 4 -83.667 22 -119 54c-33.333 32.667 -53 71.334 -59 116.001h-144l12 -25c4.66699 -10 9.66699 -22.667 15 -38c8 -2 14.667 -4 20 -6l16 -6c20 -7.33301 39.5 -17.666 58.5 -30.999s36.5 -29 52.5 -47c15.333 -19.333 27.5 -40 36.5 -62 s14.167 -44 15.5 -66c44.667 -28.667 76 -66.334 94 -113.001h2z"/>
    <glyph glyph-name="u0995_u09CD_u09B7_u09CD_u09A3" horiz-adv-x="764" d="M513 588l-0.000976562 -68h40c43.333 0 81.666 -14 114.999 -42c32.667 -28.667 49 -63.667 49 -105c0 -32.667 -7 -58.334 -21 -77.001s-33.667 -30 -59 -34c-48.667 7.33301 -73 31 -73 71c0 15.333 5 28.166 15 38.499s22.667 15.5 38 15.5 c25.333 0 43.333 -11.667 54 -35c6 8 9 19 9 33c0 22.667 -14.333 40.334 -43 53.001c-22.667 8.66699 -46.334 13 -71.001 13c-19.333 0 -36 -2.66699 -50 -8v-452c-16 16.667 -29.667 35 -41 55c-15.333 39.333 -28.333 65.333 -39 78c-22.667 24.667 -54 37 -94 37h-3 c-1.33301 0 -3.16602 -0.166992 -5.49902 -0.5s-5.16602 -0.833008 -8.49902 -1.5c12.667 -16.667 19 -34.334 19 -53.001c0 -16.667 -5.83301 -30.334 -17.5 -41.001s-25.5 -16 -41.5 -16c-52 0 -81 26 -87 78c6 66.667 45.333 100 118 100c30 0 58.333 -8.66699 85 -26 s47.334 -39.333 62.001 -66h2v31c0 58 -39.667 105.667 -119 143c-13.333 -37.333 -39 -56 -77 -56c-9.33301 0 -18.5 1.83301 -27.5 5.5s-16.833 8.83398 -23.5 15.501s-12 14.167 -16 22.5s-6 17.5 -6 27.5c0 50 32.333 75 97 75l7 10c0 20 -7.83301 36.167 -23.5 48.5 s-34.5 18.5 -56.5 18.5c-11.333 -1.33301 -18.833 -3.16602 -22.5 -5.49902s-6.16699 -5.16602 -7.5 -8.49902c0 -44 -19.667 -66 -59 -66c-10 0 -19.667 1.66699 -29 5s-17.833 8 -25.5 14s-13.834 13 -18.501 21s-7 16.667 -7 26c0 20 7 37 21 51 c4.66699 5.33301 11 10.333 19 15s18 10 30 16l2 8c0 11.333 -11.667 20 -35 26s-54.666 9.33301 -93.999 10l-52 56h772l57 -56h-258zM458.999 588h-109c-9.33301 0 -14 -8.66699 -14 -26c0 -35.333 21.667 -53 65 -53h22c12.667 0 24.667 2.33301 36 7v72zM459.999 440 c-45.333 3.33301 -84.332 17.667 -116.999 43c-36.667 27.333 -57 62.333 -61 105h-146c8.66699 -7.33301 16 -14.333 22 -21s10.667 -14.334 14 -23.001c32 -8 60.5 -18.167 85.5 -30.5s46.5 -27.166 64.5 -44.499c27.333 -23.333 41.333 -58 42 -104 c24.667 -14 44.667 -29.333 60 -46s26.666 -34.667 33.999 -54h2v175z"/>
    <glyph glyph-name="u0995_u09CD_u09B7_u09CD_u09AE" horiz-adv-x="795" d="M800 588l-103.999 -0.00488281v-623c-4.66699 4 -9.33398 7.5 -14.001 10.5s-9.33398 6.16699 -14.001 9.5v-1c-13.333 28.667 -25.5 52.834 -36.5 72.501s-21.5 34.834 -31.5 45.501c-15.333 16.667 -33 30.834 -53 42.501s-48.667 18.834 -86 21.501 c0.666992 -4 1.16699 -8 1.5 -12s0.166016 -7.66699 -0.500977 -11c0 -8.66699 -2 -17 -6 -25s-9.5 -15.167 -16.5 -21.5s-15 -11.333 -24 -15s-18.167 -5.5 -27.5 -5.5s-18.333 2.16699 -27 6.5s-16.167 10 -22.5 17s-11.5 15 -15.5 24s-6 18.167 -6 27.5 c0 17.333 5.5 33.5 16.5 48.5s31.833 25.5 62.5 31.5c-14.667 40.667 -42.667 69 -84 85c2 -22.667 -4.66699 -39.334 -20 -50.001s-33.666 -15 -54.999 -13c-16 2 -29 9.5 -39 22.5s-14.667 27.5 -14 43.5c0 20.667 7 37.334 21 50.001s31 17.667 51 15c6 12 9 22.333 9 31 c0 16.667 -6.16699 31.5 -18.5 44.5s-26.833 19.167 -43.5 18.5l-17 -1c1.33301 -3.33301 2 -7.16602 2 -11.499v-11.5c0 -17.333 -7.5 -31.333 -22.5 -42s-31.833 -16 -50.5 -16c-17.333 0 -32.666 6 -45.999 18s-20 27 -20 45c0 23.333 6.33301 42.333 19 57 c15.333 15.333 33 25.333 53 30c-10 29.333 -34 43.333 -72 42h-54l-57 56h804zM396.001 531.995v56.001h-96c-6 -1.33301 -9 -4.33301 -9 -9c0 -16.667 9.33301 -30.334 28 -41.001c16 -10 32.667 -15 50 -15c9.33301 0 18.333 2.66699 27 8v1zM396.001 299.996 l0.000976562 154.001c-36 6 -67.833 21 -95.5 45s-46.834 53.667 -57.501 89h-98c4 -4 11.333 -17 22 -39c12.667 -6 25 -12.333 37 -19s23 -14.334 33 -23.001c22.667 -17.333 40.5 -37.333 53.5 -60s20.833 -48 23.5 -76c8.66699 -6 19.667 -14.5 33 -25.5 s29 -26.5 47 -46.5zM640.002 103.997l0.000976562 483.999h-189v-61c13.333 2.66699 24.666 4 33.999 4c38 0 68.833 -12.167 92.5 -36.5s35.5 -55.5 35.5 -93.5c0 -21.333 -7.33301 -41.666 -22 -60.999c-14 -18.667 -30.667 -28 -50 -28c-16 0 -30.333 6.16699 -43 18.5 s-19 26.5 -19 42.5c0 14 5.5 26 16.5 36s23.833 15 38.5 15c19.333 0 34.333 -7 45 -21c-14 44 -40 66 -78 66c-16 0 -32.667 -3.33301 -50 -10v-225c81.333 -18 144.333 -61.333 189 -130z"/>
    <glyph glyph-name="u0995_u09CD_u09B7_u09F0_u09CD" horiz-adv-x="789" d="M513 588l0.000976562 -94.9961c6 2 12.333 3.33301 19 4s13.667 1 21 1c43.333 0 81.666 -14 114.999 -42c32.667 -28.667 49 -63.667 49 -105c0 -66.667 -23.667 -100 -71 -100c-60 0 -90 20.333 -90 61c0 10.667 4 21.667 12 33s17.333 17 28 17c40 0 65 -11 75 -33 c2 11.333 4 19.666 6 24.999l3 9c0 23.333 -14.333 41.333 -43 54c-20 8 -43.667 12 -71 12c-19.333 0 -36 -2.66699 -50 -8v-432c-14 4 -33 19.667 -57 47c-20.667 22 -57 33 -109 33l-49 -2c-10 -0.666992 -18.333 -1 -25 -1h-16c-132 0 -198 56 -198 168 c0 28.667 3.33301 54.334 10 77.001l33 -23c-1.33301 -5.33301 -2.33301 -10 -3 -14s-1.33398 -7.33301 -2.00098 -10s-1 -5.33398 -1 -8.00098c0 -58.667 25.333 -94.334 76 -107.001l163 -16c32.667 -6 62 -17.5 88 -34.5s46 -38.5 60 -64.5h2 c0 46 -12.667 87.833 -38 125.5s-60 67.167 -104 88.5c-12.667 -36.667 -38.334 -55 -77.001 -55c-19.333 0 -36.333 7 -51 21s-22 31 -22 51c0 48.667 32.333 73 97 73c1.33301 5.33301 2.16602 9.66602 2.49902 12.999s0.833008 6.66602 1.5 9.99902 c0.666992 2.66699 1.33398 5.66699 2.00098 9c0 10.667 -2 21.167 -6 31.5s-9.5 19.333 -16.5 27s-15 13.834 -24 18.501s-18.833 7 -29.5 7l-21 -7c-6 -2 -10 -4 -12 -6c0 -19.333 -7.16699 -36.5 -21.5 -51.5s-31.166 -22.5 -50.499 -22.5 c-49.333 2.66699 -74.333 29.667 -75 81c4.66699 43.333 31.334 70.333 80.001 81c0 13.333 -4.5 24.666 -13.5 33.999s-21.5 16 -37.5 20c-5.33301 1.33301 -15.833 2.5 -31.5 3.5s-31.167 1.5 -46.5 1.5l-52 56h772l57 -56h-258zM459.001 588.004h-109 c-9.33301 0 -14 -8.66699 -14 -26c0 -50 31.333 -75 94 -75c8 0 17.667 2 29 6v95zM460.001 418.004c-45.333 4 -85.333 22 -120 54c-32.667 32.667 -52 71.334 -58 116.001h-143l26 -59c28 -4 53.333 -11.833 76 -23.5s42.667 -27.167 60 -46.5 c40 -38.667 61 -89.334 63 -152.001c45.333 -28 77.333 -65.667 96 -113v224z"/>
    <glyph glyph-name="u0995_u09CD_u09B7_u09AC_u09CD" horiz-adv-x="764" d="M513 588l-0.00292969 -82.002c5.33301 1.33301 11.333 2.33301 18 3s14 1 22 1c44.667 0 82.334 -11.333 113.001 -34c34 -27.333 51 -61.666 51 -102.999c0 -72.667 -23.667 -109 -71 -109c-53.333 0 -80 20 -80 60c0 14.667 4.66699 27.5 14 38.5s21 16.5 35 16.5 c23.333 0 42 -12.667 56 -38l9 32c0 22 -13.333 39.667 -40 53c-21.333 12 -43 18 -65 18c-5.33301 0 -13.166 -1 -23.499 -3s-23.166 -5.66699 -38.499 -11v-520c-7.33301 4 -15.666 11.333 -24.999 22v-1c-8 38 -27.167 66.333 -57.5 85s-69.833 28.667 -118.5 30l-48 68 c24.667 20 52.667 38.333 84 55s64.666 31 99.999 43c-35.333 49.333 -69.333 77 -102 83c-12 -37.333 -37.667 -56 -77 -56c-19.333 0 -36.333 6.33301 -51 19s-22 28 -22 46c0 53.333 32.333 80 97 80l6 17c0 42 -20.333 63 -61 63c-15.333 0 -31.333 -3.66699 -48 -11 c0 -19.333 -7.16699 -35.666 -21.5 -48.999s-30.833 -20 -49.5 -20c-19.333 0 -35.5 7.66699 -48.5 23s-19.5 33 -19.5 53c0 35.333 23.333 59.666 70 72.999l2 9c0 24.667 -18.333 39.334 -55 44.001c-10.667 0 -23 0.333008 -37 1s-26.333 1 -37 1l-52 56h772l57 -56h-258 zM458.997 587.998l-109 -0.000976562c-9.33301 0 -14 -8.66699 -14 -26c0 -14 2.5 -25.167 7.5 -33.5s12.833 -15.166 23.5 -20.499c14.667 -5.33301 35.667 -8 63 -8c8 0 17.667 2 29 6v82zM458.997 429.997c-44.667 6 -84.002 21.999 -118.002 47.999 c-17.333 14.667 -30.666 31.334 -39.999 50.001s-15.666 38.667 -18.999 60h-144l31 -54c46.667 -3.33301 90.667 -20 132 -50c41.333 -33.333 62.333 -77 63 -131c46.667 -27.333 77.667 -61.333 93 -102h2v179zM458.995 141.996c-15.333 -5.33301 -32 -12 -50 -20 s-38 -17.667 -60 -29c48 -10 84.667 -28.667 110 -56v105z"/>
    <glyph glyph-name="u0995_u09CD_u09B8" horiz-adv-x="787" d="M792 588l-96.002 -0.00195312v-660l-26 25.5l-26 25.5v97c-10 7.33301 -21.5 14.333 -34.5 21s-25.833 12.334 -38.5 17.001c-10 4 -20.5 7.16699 -31.5 9.5s-21.5 3.5 -31.5 3.5c-26 0 -61.667 -18.667 -107 -56c-46 -36.667 -80.333 -55 -103 -55s-47 11 -73 33 c-12 10.667 -22.333 22 -31 34s-15 23.667 -19 35l30 31c2.66699 -15.333 10.834 -28.666 24.501 -39.999s28.167 -17 43.5 -17c9.33301 0 18.5 1.33301 27.5 4s18.167 6.33398 27.5 11.001c22.667 14 34 28.667 34 44c0 36 -36 76.333 -108 121 c-55.333 30 -104.666 48.667 -147.999 56l-47 85c43.333 29.333 91.5 56.166 144.5 80.499s109.5 44.5 169.5 60.5v34h-376l-58 56h795zM641.998 133.998l0.00292969 454.006h-219v-35c22 -6 43.5 -14.333 64.5 -25s39.5 -23.834 55.5 -39.501s29 -33.334 39 -53.001 s15 -40.834 15 -63.501c0 -19.333 -3.66699 -38 -11 -56c-6.66699 -11.333 -14.834 -20.833 -24.501 -28.5s-21.834 -12.834 -36.501 -15.501c-25.333 0 -44 5.5 -56 16.5s-18 23.833 -18 38.5c0 37.333 18 56 54 56c8.66699 0 16.667 -0.666992 24 -2 s13.666 -4.33301 18.999 -9c0 31.333 -10.333 55.666 -31 72.999s-52 29.666 -94 36.999v-307c34 14 60.667 21 80 21c36.667 0 83 -20.667 139 -62zM373.001 223.004l0.00195312 254c-24.667 -4 -53.334 -13.167 -86.001 -27.5s-70 -33.833 -112 -58.5 c28 -6.66699 65 -29.667 111 -69c17.333 -17.333 33.166 -34.333 47.499 -51s27.5 -32.667 39.5 -48z"/>
    <glyph glyph-name="u0996_u09F0_u09CD" horiz-adv-x="563" d="M427 68l0.00390625 26.0039c-0.666992 4 -1.66699 7.5 -3 10.5s-3 6.5 -5 10.5c-12.667 22 -28.334 41.833 -47.001 59.5s-40.667 34.167 -66 49.5h1c-44.667 26.667 -94 42.667 -148 48l-95 116c7.33301 -1.33301 14.833 -2.5 22.5 -3.5s15.5 -1.5 23.5 -1.5 c18.667 0 38.5 2.5 59.5 7.5s42.167 12.167 63.5 21.5c26 11.333 46.167 23.833 60.5 37.5s21.5 28.167 21.5 43.5c0 24 -9.66699 44.333 -29 61c-61.333 -61.333 -122.666 -92 -183.999 -92c-22.667 0 -42.334 7.33301 -59.001 22s-25 33 -25 55 c0 16 5.83301 30.333 17.5 43s25.834 19 42.501 19c34 0 52 -17.333 54 -52c11.333 2 22.833 6.16699 34.5 12.5s23.5 14.166 35.5 23.499c1.33301 0.666992 7.5 6.5 18.5 17.5l35.5 34.5l52 -45c13.333 -12 21.666 -19.667 24.999 -23 c26.667 -28.667 40 -58.334 40 -89.001c0 -32.667 -13 -64 -39 -94c-26 -28.667 -56 -47.667 -90 -57c81.333 -40.667 141 -93.334 179 -158.001v577l31 -20c0 -11.333 0.666992 -22.666 2 -33.999s2.66602 -19 3.99902 -23c7.33301 -16 26.333 -25 57 -27l57 -56h-97v-612 c-3.33301 2 -8.83301 8 -16.5 18s-19.167 24 -34.5 42c-19.333 22 -44.333 34 -75 36h-99c-32 0 -61.333 2.16699 -88 6.5s-49.334 10.166 -68.001 17.499c-26.667 12.667 -47.834 30.167 -63.501 52.5s-23.5 49.5 -23.5 81.5c0 11.333 1.83301 25.333 5.5 42 s8.5 35.667 14.5 57l21 -21c-4.66699 -7.33301 -7 -20 -7 -38c0 -60.667 28.333 -96.334 85 -107.001c30 -3.33301 56 -5.5 78 -6.5s40.667 -2.5 56 -4.5c38 -3.33301 70.5 -12 97.5 -26s48.833 -33.667 65.5 -59z"/>
    <glyph glyph-name="u0996_u09AC_u09CD" horiz-adv-x="561" d="M564 588h-87v-419v-288c-18 8.66699 -34 23 -48 43c-13.333 20.667 -22.333 34.167 -27 40.5s-13.667 15.166 -27 26.499c-14.667 10 -31 17 -49 21s-36.333 6 -55 6l-48 67l156 106c-20 20 -44.333 38.667 -73 56c-44 26.667 -93 42.667 -147 48l-95 117 c14.667 -4 30 -6 46 -6c37.333 0 78.333 9.66699 123 29c52.667 22 79 41.333 79 58c2 24 -6.66699 44.333 -26 61c-61.333 -52.667 -122.666 -79 -183.999 -79c-22.667 0 -42.334 7.16699 -59.001 21.5s-25 32.5 -25 54.5c0 16.667 5.83301 31.167 17.5 43.5 s25.834 18.5 42.501 18.5c34 0 52 -17 54 -51c22 4 43 11.333 63 22s40.333 28.334 61 53.001l52 -45c13.333 -12 21.666 -19.667 24.999 -23c26.667 -28.667 39 -58.334 37 -89.001c0 -14 -3.5 -27.667 -10.5 -41s-16.167 -25.666 -27.5 -36.999 s-24.666 -21.333 -39.999 -30s-31.333 -15.334 -48 -20.001c81.333 -40.667 141 -90 179 -148v544l31 -20c0 -11.333 0.666992 -22.666 2 -33.999s2.66602 -19 3.99902 -23c7.33301 -16 23 -25 47 -27zM311 64c37.333 -7.33301 76.667 -36.001 118 -86.001v136 c-1.33301 6.66699 -3 12.167 -5 16.5s-3.66699 7.5 -5 9.5c-38.667 -23.333 -74.667 -48.666 -108 -75.999z"/>
    </font>
</defs>
</svg>
